<?xml version="1.0" encoding="UTF-8" standalone="no"?>
<svg
   version="1.1"
   viewBox="0 0 1714.0043 638.40002"
   class="w-[128px]"
   width="1714.0044"
   height="638.40002"
   id="svg1"
   xmlns="http://www.w3.org/2000/svg"
   xmlns:svg="http://www.w3.org/2000/svg"
   xmlns:rdf="http://www.w3.org/1999/02/22-rdf-syntax-ns#"
   xmlns:cc="http://creativecommons.org/ns#"
   xmlns:dc="http://purl.org/dc/elements/1.1/">
  <defs
     id="defs1" />
  <title
     id="title1">iZotope by Native Instruments</title>
  <path
     style="stroke-width:8"
     d="m 727.60438,240 h 22.4 v 20 h -22.4 z m 0,36.8 h 22.4 v 89.6 h -22.4 z m 296.00002,-39.2 c 37.6,0 65.6,28.8 65.6,64.8 0,37.6 -28,66.4 -65.6,66.4 -37.60003,0 -65.60003,-28.8 -65.60003,-66.4 0,-36.8 28,-64.8 65.60003,-64.8 z m 0,109.6 c 23.2,0 41.6,-19.2 41.6,-45.6 0,-24.8 -18.4,-44 -41.6,-44 -23.2,0 -41.60003,18.4 -41.60003,44 0,26.4 18.40003,45.6 41.60003,45.6 z m 155.2,-88 h -41.6 V 240 h 106.4 v 20 h -41.6 v 107.2 h -23.2 z m 178.4,-21.6 c 37.6,0 65.6,28.8 65.6,64.8 0,37.6 -28,66.4 -65.6,66.4 -37.6,0 -65.6,-28.8 -65.6,-66.4 0,-36.8 28,-64.8 65.6,-64.8 z m 0,109.6 c 23.2,0 41.6,-19.2 41.6,-45.6 0,-24.8 -18.4,-44 -41.6,-44 -23.2,0 -41.6,18.4 -41.6,44 0,26.4 18.4,45.6 41.6,45.6 z m 128,-107.2 h 48.8 c 24,0 40,16.8 40,41.6 0,24.8 -16.8,41.6 -40,41.6 h -25.6 v 44 h -23.2 z m 44.8,62.4 c 13.6,0 21.6,-8.8 21.6,-21.6 0,-12.8 -8,-21.6 -20.8,-21.6 h -21.6 v 43.2 z m 104.8,-62.4 h 76 v 20 h -52.8 v 33.6 h 42.4 v 20 h -42.4 V 348 h 56 v 20 h -79.2 z M 840.40438,346.4 c 0,0 4,-4 9.59999,-11.2 l 66.4,-96 H 814.80438 v 20 h 62.39999 c 0,0 -4,4 -9.6,11.2 l -66.39999,96 h 105.59999 v -20 z M 333.20437,39.2 c 0.8,-2.4 0.8,-4.8 0.8,-7.2 0,-17.6 -14.4,-32 -32,-32 -17.6,0 -32,14.4 -32,32 0,17.6 14.4,32 32,32 5.6,0 11.2,-1.6 16,-4.8 7.2,15.2 14.4,29.6 21.6,44.8 10.4,21.6 21.6,43.2 31.2,65.6 20.8,44 40,88 56.8,132.8 2.4,7.2 5.6,14.4 8,22.4 -28.8,-2.4 -59.2,-5.6 -88.8,-10.4 -2.4,-23.2 -22.4,-41.6 -45.6,-41.6 -8.8,0 -17.6,2.4 -24.8,7.2 -16,-19.2 -32.8,-36 -52,-51.2 -9.6,-8 -20,-15.2 -31.2,-21.6 -5.6,-3.2 -12,-6.4 -18.4,-8.8 -6.4,-2.4 -13.6,-4 -23.2,-3.2 -8.8,0.8 -19.2,8.8 -21.6,17.6 -3.2,8 -3.2,15.2 -2.4,22.4 0.8,13.6 4,25.6 7.2,37.6 1.6,4.8 3.2,9.6 4.8,13.6 C 75.604374,284.8 15.604374,292 2.0043739,325.6 -21.995626,382.4 175.60437,532 270.00437,599.2 c -0.8,2.4 -0.8,4.8 -0.8,7.2 0,17.6 14.4,32 32,32 17.6,0 32,-14.4 32,-32 0,-17.6 -14.4,-32 -32,-32 -5.6,0 -11.2,1.6 -16,4.8 -7.2,-15.2 -14.4,-29.6 -21.6,-44.8 -10.4,-21.6 -21.6,-43.2 -31.2,-65.6 -20.8,-44 -40,-88 -56.8,-132.8 -2.4,-7.2 -5.6,-14.4 -8,-22.4 28.8,2.4 59.2,5.6 88.8,10.4 2.4,23.2 22.4,41.6 45.6,41.6 8.8,0 17.6,-2.4 24.8,-7.2 16,19.2 32.8,36 52,51.2 9.6,8 20,15.2 31.2,21.6 5.6,3.2 12,6.4 18.4,8.8 6.4,2.4 13.6,4 23.2,3.2 8.8,-0.8 19.2,-8.8 21.6,-17.6 3.2,-8 3.2,-15.2 2.4,-22.4 -0.8,-13.6 -4,-25.6 -7.2,-37.6 -1.6,-4.8 -3.2,-9.6 -4.8,-13.6 h 18.4 c 56.8,0 107.2,-9.6 120,-40 23.2,-55.2 -174.4,-204.8 -268.8,-272.8 z m -172,304 c 19.2,44.8 40.8,88 63.2,131.2 11.2,21.6 22.4,43.2 34.4,64 7.2,12.8 13.6,24.8 20.8,37.6 -164,-118.4 -263.199996,-216.8 -253.599996,-239.2 8.8,-20.8 60.8,-26.4 123.199996,-23.2 4,9.6 8,20 12,29.6 z m -8,-74.4 c -2.4,-11.2 -4.8,-23.2 -4.8,-33.6 0,-5.6 0.8,-10.4 1.6,-13.6 0.8,-1.6 1.6,-2.4 2.4,-3.2 0.8,-0.8 1.6,-0.8 3.2,-1.6 6.4,-0.8 17.6,4 27.2,9.6 9.6,5.6 18.4,12.8 28,20.8 17.6,15.2 34.4,32 48,50.4 0,0.8 0.8,0.8 1.6,0.8 -28,-4.8 -64.8,-9.6 -100.8,-11.2 -2.4,-5.6 -4.8,-12 -6.4,-18.4 z m 296.8,102.4 c 2.4,11.2 4.8,23.2 4.8,33.6 0,5.6 -0.8,10.4 -1.6,13.6 -0.8,1.6 -1.6,2.4 -2.4,3.2 -0.8,0.8 -1.6,0.8 -3.2,1.6 -6.4,0.8 -17.6,-4 -27.2,-9.6 -9.6,-5.6 -18.4,-12.8 -28,-20.8 -17.6,-15.2 -34.4,-32 -48,-50.4 0,-0.8 -0.8,-0.8 -1.6,-0.8 28,4.8 64.8,9.6 100.8,11.2 3.2,5.6 4.8,12 6.4,18.4 z m 128,-68 c -8.8,20.8 -60.8,26.4 -123.2,23.2 -4,-9.6 -7.2,-19.2 -11.2,-28.8 -19.2,-44.8 -40.8,-88 -63.2,-131.2 -11.2,-21.6 -22.4,-43.2 -34.4,-64 -7.2,-12.8 -13.6,-24.8 -20.8,-36.8 136,97.6 264,210.4 252.8,237.6 z m 157.60001,185.6 v 8 h -8 v -72 h 8 V 456 c 2.4,-4.8 9.6,-8.8 16.8,-8.8 12.8,0 22.4,9.6 22.4,24.8 0,15.2 -8.8,24.8 -22.4,24.8 -8.8,0.8 -14.4,-3.2 -16.8,-8 z m 30.4,-16 c 0,-12.8 -6.4,-19.2 -15.2,-19.2 -8.8,0 -16,5.6 -16,18.4 v 0.8 c 0,12.8 6.4,18.4 16,18.4 9.6,0 15.2,-7.2 15.2,-18.4 z m 34.4,18.4 -19.2,-43.2 h 8 l 15.2,35.2 13.6,-35.2 h 8 l -27.2,65.6 h -8 z m 65.59999,-61.6 h 10.4 l 32,55.2 v -55.2 h 8 V 496 h -9.6 l -33.6,-56.8 V 496 h -8 v -66.4 z m 64.8,53.6 c 0,-11.2 12,-15.2 24,-15.2 h 7.2 v -4 c 0,-8 -3.2,-11.2 -10.4,-11.2 -6.4,0 -10.4,2.4 -11.2,8.8 h -8 c 0.8,-11.2 9.6,-15.2 19.2,-15.2 9.6,0 17.6,4 17.6,17.6 v 32 h -8 v -6.4 c -4,4.8 -8,7.2 -15.2,7.2 -8,0.8 -15.2,-4 -15.2,-13.6 z m 31.2,-4 v -6.4 h -6.4 c -9.6,0 -16.8,2.4 -16.8,9.6 0,4.8 2.4,8 9.6,8 7.2,0.8 13.6,-3.2 13.6,-11.2 z m 27.2,4.8 v -29.6 h -7.2 V 448 h 7.2 v -11.2 h 8 V 448 h 11.20003 v 6.4 H 997.20437 V 484 c 0,4.8 2.4,7.2 6.40003,7.2 2.4,0 4,0 5.6,-0.8 v 5.6 c -1.6,0.8 -3.2,0.8 -6.4,0.8 -9.60003,0 -13.60003,-4.8 -13.60003,-12.8 z m 32.00003,-51.2 c 0,-2.4 2.4,-4.8 4.8,-4.8 2.4,0 4.8,2.4 4.8,4.8 0,2.4 -2.4,4.8 -4.8,4.8 -2.4,0 -4.8,-2.4 -4.8,-4.8 z m 1.6,15.2 h 8 v 48.8 h -8 z m 20,0 h 8 l 14.4,40.8 14.4,-40.8 h 8 l -17.6,48.8 h -9.6 z m 52,24.8 c 0,-15.2 9.6,-25.6 23.2,-25.6 11.2,0 21.6,6.4 21.6,24 v 2.4 h -36.8 c 0,11.2 5.6,17.6 16,17.6 7.2,0 12,-2.4 12.8,-8.8 h 8 c -1.6,9.6 -9.6,15.2 -20.8,15.2 -14.4,0 -24,-9.6 -24,-24.8 z m 36.8,-5.6 c -0.8,-10.4 -5.6,-14.4 -13.6,-14.4 -8,0 -13.6,5.6 -14.4,14.4 z m 49.6,-37.6 h 8 V 496 h -8 z m 27.2,18.4 h 8 v 8 c 2.4,-4.8 8,-8.8 16,-8.8 10.4,0 16.8,5.6 16.8,20 v 29.6 h -8 v -30.4 c 0,-8.8 -4,-12 -11.2,-12 -7.2,0 -13.6,4.8 -13.6,13.6 v 29.6 h -8 z m 53.6,33.6 h 7.2 c 0.8,5.6 4,9.6 11.2,9.6 7.2,0 10.4,-2.4 10.4,-8 0,-4.8 -4,-6.4 -11.2,-8 -12.8,-2.4 -16.8,-5.6 -16.8,-14.4 0,-8.8 8.8,-13.6 16.8,-13.6 8.8,0 16,3.2 17.6,14.4 h -7.2 c -0.8,-5.6 -4,-8 -10.4,-8 -5.6,0 -9.6,2.4 -9.6,7.2 0,4 2.4,6.4 11.2,8 10.4,1.6 16.8,4 16.8,14.4 0,8.8 -6.4,14.4 -17.6,14.4 -11.2,0 -17.6,-6.4 -18.4,-16 z m 52.8,2.4 v -29.6 h -7.2 V 448 h 7.2 v -11.2 h 8 V 448 h 11.2 v 6.4 h -11.2 V 484 c 0,4.8 2.4,7.2 6.4,7.2 2.4,0 4,0 5.6,-0.8 v 5.6 c -1.6,0.8 -3.2,0.8 -6.4,0.8 -9.6,0 -13.6,-4.8 -13.6,-12.8 z m 33.6,-36 h 8 v 8.8 c 3.2,-5.6 7.2,-9.6 16,-9.6 v 7.2 c -9.6,0.8 -16,3.2 -16,15.2 V 496 h -8 z m 36.8,30.4 V 448 h 8 v 30.4 c 0,8.8 4,12 11.2,12 7.2,0 13.6,-4.8 13.6,-13.6 V 448 h 8 v 48.8 h -8 v -8 c -2.4,4.8 -8,8.8 -15.2,8.8 -10.4,0 -17.6,-5.6 -17.6,-19.2 z m 57.6,-30.4 h 8 v 7.2 c 2.4,-4.8 7.2,-8 14.4,-8 6.4,0 12,2.4 14.4,8.8 3.2,-6.4 10.4,-8.8 16.8,-8.8 8.8,0 16,5.6 16,19.2 v 30.4 h -8 v -30.4 c 0,-8.8 -4,-12 -10.4,-12 -6.4,0 -12.8,4 -12.8,12.8 v 29.6 h -8 v -30.4 c 0,-8.8 -4,-12 -10.4,-12 -6.4,0 -12.8,4 -12.8,12.8 v 29.6 h -8 V 448 Z m 83.2,24.8 c 0,-15.2 9.6,-25.6 23.2,-25.6 11.2,0 21.6,6.4 21.6,24 v 2.4 h -36.8 c 0,11.2 5.6,17.6 16,17.6 7.2,0 12,-2.4 12.8,-8.8 h 8 c -1.6,9.6 -9.6,15.2 -20.8,15.2 -14.4,0 -24,-9.6 -24,-24.8 z m 36.8,-5.6 c -0.8,-10.4 -5.6,-14.4 -13.6,-14.4 -8,0 -13.6,5.6 -14.4,14.4 z m 21.6,-19.2 h 8 v 8 c 2.4,-4.8 8,-8.8 16,-8.8 10.4,0 16.8,5.6 16.8,20 v 29.6 h -8 v -30.4 c 0,-8.8 -4,-12 -11.2,-12 -7.2,0 -13.6,4.8 -13.6,13.6 v 29.6 h -8 z m 59.2,36 v -29.6 h -7.2 V 448 h 7.2 v -11.2 h 8 V 448 h 11.2 v 6.4 h -11.2 V 484 c 0,4.8 2.4,7.2 6.4,7.2 2.4,0 4,0 5.6,-0.8 v 5.6 c -1.6,0.8 -3.2,0.8 -6.4,0.8 -8.8,0 -13.6,-4.8 -13.6,-12.8 z m 29.6,-2.4 h 7.2 c 0.8,5.6 4,9.6 11.2,9.6 7.2,0 10.4,-2.4 10.4,-8 0,-4.8 -4,-6.4 -11.2,-8 -12.8,-2.4 -16.8,-5.6 -16.8,-14.4 0,-8.8 8.8,-13.6 16.8,-13.6 8.8,0 16,3.2 17.6,14.4 h -7.2 c -0.8,-5.6 -4,-8 -10.4,-8 -5.6,0 -9.6,2.4 -9.6,7.2 0,4 2.4,6.4 11.2,8 10.4,1.6 16.8,4 16.8,14.4 0,8.8 -6.4,14.4 -17.6,14.4 -10.4,0 -17.6,-6.4 -18.4,-16 z"
     fill="#13161a"
     id="path1" />
  <metadata
     id="metadata1">
    <rdf:RDF>
      <cc:Work
         rdf:about="">
        <dc:title>iZotope by Native Instruments</dc:title>
      </cc:Work>
    </rdf:RDF>
  </metadata>
</svg>
