<!--Created with Inkscape (http://www.inkscape.org/)-->
<svg xmlns="http://www.w3.org/2000/svg" width="919.861" height="166.934" viewBox="0 0 243.38 44.168">
  <path fill="#161315" d="M137.755 29.414c-4.25 0-7.927-2.53-7.927-7.402 0-4.87 3.677-7.4 7.927-7.4 4.202 0 7.878 2.53 7.878 7.4 0 4.871-3.676 7.402-7.878 7.402m-32.088.286c-5.205 0-8.213-2.817-8.213-7.83 0-5.015 3.009-7.832 8.213-7.832 5.205 0 8.213 2.817 8.213 7.831s-3.008 7.831-8.213 7.831m-34.044-2.674c-1.194 2.197-3.581 3.343-6.972 3.343-5.73 0-8.213-3.725-8.213-6.16v-.095H80.6v2.912zm-15.185-7.974c0-.62 1.385-5.682 8.022-5.682 6.16 0 7.926 4.297 7.926 5.682v.096H56.438zm162.3 0c0-.62 1.385-5.682 8.022-5.682 6.16 0 7.927 4.297 7.927 5.682v.096h-15.949zm24.639 5.062v-.765c0-9.645-5.348-15.232-16.426-15.232-8.552 0-14.718 2.932-16.426 9.657v-.155c0-7.544-6.637-9.216-10.982-9.216-4.918 0-8.93 2.245-10.457 4.394h-.096V9.072h-14.42l-7.067 16.904-7.306-16.904h-6.446V0h-8.404v12.224h-.095c-1.624-2.292-5.11-3.82-9.837-3.82-6.348 0-11.54 3.37-13.47 8.851-1.889-6.355-7.95-9.137-16.278-9.137-9.026 0-15.39 3.268-16.664 10.813V0h-8.405v18.755c-1.529-6.8-6.77-10.637-15.948-10.637-8.55 0-14.716 2.93-16.425 9.655v-.44c0-6.732-5.013-8.93-10.17-8.93-4.68 0-8.214 1.768-10.554 4.824-1.29-2.913-3.963-4.823-8.834-4.823-4.918 0-8.929 2.244-10.457 4.393h-.095V9.073H-.003v25.594h8.404V20.82c0-4.01 2.865-5.921 6.447-5.921 2.34 0 5.061.955 5.061 4.393v15.375h8.404V20.82c0-4.01 2.865-5.921 6.35-5.921 2.436 0 5.158.955 5.158 4.393v15.375h8.404v-8.7c1.708 6.724 7.874 9.655 16.425 9.655 7.687 0 13.513-2.53 15.948-8.594v7.639h8.404v-9.858c1.275 7.545 7.639 10.813 16.664 10.813 8.156 0 14.139-2.668 16.158-8.749 1.836 5.806 7.17 8.749 13.59 8.749 3.82 0 7.402-.86 10.124-4.155h.095v3.2h8.118V14.559l9.36 19.2-.86 1.863c-.956 1.767-1.91 2.626-3.963 2.626-1.195 0-2.436-.095-3.63-.19v5.92c1.958.096 3.964.191 5.92.191 4.68 0 6.973-1.002 8.978-5.3l11.316-24.1v19.897h8.404V22.3c0-5.443 3.295-7.401 7.21-7.401 3.773 0 5.635 1.719 5.635 5.253v14.516h8.404v-8.702c1.708 6.725 7.874 9.657 16.426 9.657 7.687 0 13.513-2.531 15.948-8.595h-8.977c-1.194 2.196-3.582 3.342-6.972 3.342-5.73 0-8.213-3.725-8.213-6.16v-.095z"/>
</svg>
