<svg id="Calque_1" data-name="Calque 1" xmlns="http://www.w3.org/2000/svg" viewBox="0 0 1000 1000"><defs><style>.cls-1{fill:#1d1d1b;fill-rule:evenodd;}</style></defs><title>nikon_logo</title><path class="cls-1" d="M679.27,473.93c-4.62-11.82-15.8-20.94-27.75-23.9-32.76-8.73-74.26-5.26-96.88,22.1-13.1,16.83-20.81,42.15-11,63.48,4.75,12.46,18,21.45,30.45,23.76,27.49,3.6,63,5.14,85.05-15,20.69-17.21,27.63-46,20.17-70.41Zm-67.83,50.62c-3.09,1.16-8.1,1.67-10.92-.51-6.56-3.6-4.37-11.69-3.6-17.09,3.08-10,6.55-24.15,19-26.08,4.09-.4,9.25,1.41,10.92,6.17,1.15,14.51-3,29.28-15.42,37.51Z"/><polygon class="cls-1" points="313.38 391.5 290.25 458.58 272.67 391.5 225.95 391.5 168.59 555.26 223.18 555.26 244.92 492.81 261.11 555.26 310.61 555.26 367.97 391.5 313.38 391.5 313.38 391.5 313.38 391.5"/><path class="cls-1" d="M403.9,440.35c9.64-1.41,19.79-4.49,25.06-14,3.85-7.58,2.44-16.7-2.19-23.39-7.45-7.83-17.73-8.6-28.65-8-10,1.41-20.17,6.42-23.77,16.83-1.67,6.55-1.28,14.52,3.09,19.79,6.42,7.83,16.83,9,26.46,8.73Z"/><polygon class="cls-1" points="364.14 451.32 327.59 555.41 379.4 555.41 415.95 451.32 364.14 451.32 364.14 451.32 364.14 451.32"/><polygon class="cls-1" points="564.53 451.18 504.39 451.18 474.32 486.33 507.16 391.5 454.43 391.5 397.06 555.26 449.8 555.26 464.61 514.09 472.93 555.26 527.98 555.26 518.73 505.3 564.53 451.18 564.53 451.18 564.53 451.18"/><path class="cls-1" d="M801.33,449.93a68.79,68.79,0,0,0-46.26,17.12h0l6-15.73H706.5L670,555.41h54.59l17.58-50h0c2.77-7.87,7.4-11.57,15.26-11.57s9.72,7.87,7.4,14.34h0l-16.65,47.19h52.74l23.59-67.54h0c6.48-18.51,0-37.94-23.13-37.94Z"/><path class="cls-1" d="M827.94,533.6a10.89,10.89,0,1,0,10.86,10.86,10.9,10.9,0,0,0-10.86-10.86Zm0,20.47a9.58,9.58,0,1,1,9.55-9.61,9.57,9.57,0,0,1-9.55,9.61Z"/><path class="cls-1" d="M833.53,541.61a3,3,0,0,0-1.37-2.62,5.62,5.62,0,0,0-3-.6h-5.3v12.17h1.48V545h2.74l3.47,5.61h1.77L829.68,545h0c2.17-.06,3.85-.94,3.85-3.34Zm-5.87,2.15h-2.28v-4.3h3.48c1.51,0,3.16.23,3.16,2.11,0,2.48-2.65,2.19-4.36,2.19Z"/></svg>