<?xml version="1.0" encoding="UTF-8"?>
<!-- Generator: Adobe Illustrator 24.3.0, SVG Export Plug-In . SVG Version: 6.00 Build 0)  -->
<svg version="1.1" id="Layer_1" xmlns="http://www.w3.org/2000/svg" xmlns:xlink="http://www.w3.org/1999/xlink" x="0px" y="0px" viewBox="0 0 512 512" style="enable-background:new 0 0 512 512;" xml:space="preserve">
<style type="text/css">
	.st0{fill:#FCB833;}
	.st1{fill:#F68E2F;}
	.st2{fill:#F16528;}
	.st3{fill:#231F20;}
	.st4{fill:url(#XMLID_2_);}
	.st5{opacity:0.43;fill:url(#XMLID_3_);enable-background:new    ;}
</style>
<g id="XMLID_43_">
</g>
<g>
	<path id="XMLID_26_" class="st0" d="M91.04,187.13c0,37.87,13.05,74.77,36.89,104.08l18.66-15.15   c-20.34-24.97-31.56-56.67-31.56-88.93s11.22-63.82,31.42-88.79l-18.66-15.01C103.94,112.5,91.04,149.39,91.04,187.13z"/>
	<path id="XMLID_25_" class="st1" d="M45.17,187.13c0,48.11,16.69,95.25,46.99,132.7l18.52-15.01   c-26.79-33.1-41.66-74.91-41.66-117.55s14.73-84.44,41.52-117.55L92.02,54.71C61.86,91.88,45.17,139.01,45.17,187.13z"/>
	<path id="XMLID_24_" class="st2" d="M0,187.13c0,58.49,20.34,115.73,57.09,161.17l18.66-15.15c-33.39-41.1-51.76-93-51.76-146.17   c0-53.02,18.38-104.78,51.48-145.88L56.81,26.23C20.2,71.54,0,128.77,0,187.13z"/>
	<path id="XMLID_23_" class="st0" d="M365.69,98.33c20.34,24.97,31.42,56.53,31.42,88.79c0,32.4-11.22,63.96-31.56,88.93   l18.52,15.15c23.85-29.32,36.89-66.21,36.89-104.08c0-37.73-13.05-74.63-36.75-103.94L365.69,98.33z"/>
	<path id="XMLID_22_" class="st1" d="M401.32,69.72c26.79,33.1,41.52,74.77,41.52,117.55c0,42.64-14.73,84.44-41.66,117.55   l18.66,15.01c30.3-37.31,46.99-84.44,46.99-132.7c0-48.11-16.69-95.25-46.85-132.56L401.32,69.72z"/>
	<path id="XMLID_21_" class="st2" d="M436.53,41.24c33.24,41.1,51.48,92.86,51.48,145.88s-18.38,104.92-51.76,146.17l18.66,15.15   C491.66,302.99,512,245.76,512,187.27S491.8,71.68,455.19,26.37L436.53,41.24z"/>
	<g id="XMLID_4_">
		<g id="XMLID_5_">
			<path id="XMLID_6_" class="st3" d="M60.32,484.65H48.39l-6.59-20.48H19.08l-6.17,20.48H1.26l22.58-70h13.89L60.32,484.65      M39.84,455.61l-5.89-18.38c-0.56-1.82-1.82-6.31-3.51-13.19h-0.28c-0.7,2.95-1.82,7.43-3.37,13.19l-5.75,18.38H39.84z"/>
			<path id="XMLID_16_" class="st3" d="M111.1,484.65h-9.82l-0.56-7.57h-0.42c-3.51,5.75-8.84,8.7-15.99,8.7     c-5.05,0-8.98-1.54-11.92-4.63c-3.51-3.79-5.33-9.54-5.33-17.25v-29.74h11.22v27.91c0,9.68,3.37,14.59,9.96,14.59     c4.91,0,8.42-2.52,10.38-7.29c0.56-1.26,0.7-2.67,0.7-4.21v-30.86h11.22v36.05C110.54,474.97,110.82,479.74,111.1,484.65z"/>
			<path id="XMLID_7_" class="st3" d="M169.87,484.65h-9.96l-0.56-8h-0.28c-3.23,6.17-8.56,9.12-16.27,9.12     c-6.03,0-11.22-2.38-15.15-7.15c-4.07-4.77-6.03-10.94-6.03-18.52c0-8.14,2.24-14.73,6.59-19.78c4.21-4.77,9.54-7.15,15.71-7.15     c6.87,0,11.64,2.38,14.31,6.87v-28.9h11.22v60.04C169.59,476.09,169.73,480.58,169.87,484.65 M158.23,463.47v-8.42     c0-1.4-0.14-2.67-0.28-3.51c-0.56-2.67-1.96-5.05-4.07-6.73c-2.1-1.82-4.63-2.81-7.57-2.81c-4.07,0-7.43,1.68-9.82,4.91     c-2.38,3.37-3.65,7.57-3.65,12.76c0,5.05,1.12,9.12,3.37,12.2c2.38,3.37,5.75,5.05,9.82,5.05c3.65,0,6.59-1.4,8.84-4.21     C157.25,470.06,158.23,467.11,158.23,463.47z"/>
			<path id="XMLID_8_" class="st3" d="M195.96,419.14c0,1.96-0.7,3.65-1.96,4.91c-1.26,1.26-3.09,1.82-5.19,1.82     c-1.82,0-3.37-0.7-4.77-1.96c-1.26-1.26-1.96-2.81-1.96-4.77c0-1.82,0.7-3.51,1.96-4.77c1.26-1.26,2.95-1.82,4.91-1.82     c1.96,0,3.65,0.56,4.91,1.82C195.4,415.63,195.96,417.17,195.96,419.14 M194.84,484.65h-11.22v-50.5h11.22V484.65z"/>
			<path id="XMLID_9_" class="st3" d="M255.16,459.12c0,7.72-2.24,14.17-6.59,19.08c-4.63,5.05-10.8,7.57-18.52,7.57     c-7.43,0-13.33-2.52-17.81-7.29c-4.35-4.91-6.59-11.08-6.59-18.52c0-7.86,2.24-14.17,6.87-19.22c4.49-4.91,10.66-7.43,18.38-7.43     c7.43,0,13.33,2.52,17.96,7.43C253.05,445.37,255.16,451.54,255.16,459.12 M243.52,459.4c0-4.63-0.98-8.56-2.95-11.92     c-2.38-3.93-5.75-6.03-10.1-6.03c-4.49,0-8,2.1-10.24,6.03c-2.1,3.37-2.95,7.43-2.95,12.2c0,4.63,0.98,8.7,2.95,11.92     c2.38,3.93,5.89,6.03,10.24,6.03c4.35,0,7.57-2.1,10.1-6.17C242.39,468.09,243.52,464.03,243.52,459.4z"/>
			<path id="XMLID_27_" class="st3" d="M343.11,455.33c0,10.38-2.52,18.1-7.43,23.29c-4.63,4.77-11.08,7.15-19.36,7.15     c-17.11,0-25.53-10.1-25.53-30.3v-40.82h11.22v41.38c0,6.87,1.4,12.06,4.07,15.57c2.52,3.23,6.03,4.91,10.66,4.91     c10.1,0,15.15-6.87,15.15-20.62v-41.38h11.22C343.11,414.51,343.11,455.33,343.11,455.33z"/>
			<path id="XMLID_28_" class="st3" d="M401.04,484.65h-11.22v-28.9c0-8.98-3.37-13.47-10.24-13.47c-3.23,0-6.03,1.26-8.14,3.65     c-2.1,2.52-3.09,5.33-3.09,8.7v30.02h-11.22V448.6c0-4.49-0.14-9.26-0.42-14.45h9.82l0.56,7.86h0.28     c1.26-2.38,3.23-4.49,5.75-6.03c3.09-1.82,6.45-2.81,10.24-2.81c4.77,0,8.56,1.54,11.78,4.63c3.93,3.79,5.89,9.4,5.89,16.83     V484.65L401.04,484.65z"/>
			<path id="XMLID_29_" class="st3" d="M426.43,419.14c0,1.96-0.7,3.65-1.96,4.91c-1.26,1.26-3.09,1.82-5.19,1.82     c-1.82,0-3.51-0.7-4.77-1.96c-1.26-1.26-1.96-2.81-1.96-4.77c0-1.82,0.7-3.51,1.96-4.77c1.26-1.26,2.95-1.82,4.91-1.82     s3.65,0.56,4.91,1.82C425.73,415.63,426.43,417.17,426.43,419.14 M425.17,484.65h-11.22v-50.5h11.22V484.65z"/>
			<path id="XMLID_32_" class="st3" d="M464.73,442.7h-12.34v24.41c0,6.17,2.24,9.26,6.59,9.26c1.96,0,3.65-0.14,5.05-0.42     l0.28,8.42c-2.24,0.7-5.19,1.12-8.7,1.12c-4.49,0-7.86-1.4-10.38-4.07c-2.52-2.67-3.79-7.15-3.79-13.47v-25.53h-7.43v-8.28h7.43     v-9.12l10.94-3.37v12.48h12.48v8.56H464.73z"/>
			<path id="XMLID_33_" class="st3" d="M505.41,470.06c0,4.77-1.68,8.42-5.19,11.36c-3.51,2.81-8.28,4.21-14.31,4.21     c-5.75,0-10.66-1.12-14.73-3.23l2.38-8.28c3.93,2.38,8,3.65,12.34,3.65c5.75,0,8.56-2.24,8.56-6.45c0-1.82-0.7-3.37-1.82-4.63     c-1.26-1.26-3.51-2.38-6.59-3.51c-8.98-3.37-13.47-8.14-13.47-14.59c0-4.35,1.68-8,4.91-10.94c3.37-2.95,7.72-4.35,13.19-4.35     c5.05,0,9.26,0.98,12.76,3.09l-2.38,8c-3.23-1.96-6.73-2.95-10.24-2.95c-2.38,0-4.21,0.56-5.47,1.68     c-1.26,1.12-1.96,2.52-1.96,4.21c0,1.82,0.7,3.23,2.1,4.21c1.12,1.12,3.51,2.24,6.87,3.51     C501.06,458.28,505.41,463.32,505.41,470.06z"/>
		</g>
	</g>
	
		<radialGradient id="XMLID_2_" cx="258.0525" cy="2098.1396" r="198.1626" gradientTransform="matrix(1 0 0 0.7986 0 -1419.1135)" gradientUnits="userSpaceOnUse">
		<stop offset="0" style="stop-color:#FFF79E"/>
		<stop offset="0.2454" style="stop-color:#FFE791"/>
		<stop offset="1" style="stop-color:#EE3B24"/>
	</radialGradient>
	<circle id="XMLID_35_" class="st4" cx="256.14" cy="186.42" r="109.41"/>
	
		<linearGradient id="XMLID_3_" gradientUnits="userSpaceOnUse" x1="256.1403" y1="-91.371" x2="256.1403" y2="-138.0121" gradientTransform="matrix(1 0 0 1 0 224)">
		<stop offset="0" style="stop-color:#FFFFFF"/>
		<stop offset="1" style="stop-color:#FFFFFF"/>
	</linearGradient>
	<path id="XMLID_36_" class="st5" d="M319.82,118.95c0,18.24-127.37,18.24-127.37,0s28.48-32.96,63.68-32.96   S319.82,100.86,319.82,118.95z"/>
</g>
</svg>