<?xml version="1.0" encoding="UTF-8"?>
<svg xmlns="http://www.w3.org/2000/svg" xmlns:xlink="http://www.w3.org/1999/xlink" width="2836" height="2836" viewBox="0 0 2836 2836">
<path fill-rule="evenodd" fill="rgb(100%, 100%, 100%)" fill-opacity="1" d="M 0.882812 0.46875 L 2835.53125 0.46875 L 2835.53125 2835.117188 L 0.882812 2835.117188 L 0.882812 0.46875 "/>
<path fill-rule="evenodd" fill="rgb(0%, 0%, 0%)" fill-opacity="1" d="M 663.554688 829.640625 C 1130.25 638.398438 1785.300781 656.511719 2173.058594 829.640625 L 2173.058594 937.699219 L 2100.238281 937.699219 L 2100.238281 1791.460938 L 2196.550781 1791.460938 L 2196.550781 2077.683594 L 1792.320312 2077.683594 L 1792.320312 1986.953125 L 1044.300781 1986.953125 L 1044.300781 2077.683594 L 640.066406 2077.683594 L 640.066406 1791.460938 L 736.371094 1791.460938 L 736.371094 937.699219 L 663.554688 937.699219 Z M 1043.378906 1011.890625 L 1043.378906 1039.570312 C 1055.671875 1043.839844 1064.550781 1055.550781 1064.550781 1069.25 L 1064.550781 1111.609375 L 1001.761719 1111.609375 L 1001.761719 1069.25 C 1001.761719 1055.550781 1010.640625 1043.839844 1022.929688 1039.570312 L 1022.929688 1011.890625 L 930.601562 1011.890625 L 930.601562 1791.460938 L 1906.019531 1791.460938 L 1906.019531 1011.890625 L 1821.03125 1011.890625 L 1821.03125 1039.570312 C 1833.320312 1043.839844 1842.199219 1055.550781 1842.199219 1069.25 L 1842.199219 1111.609375 L 1779.410156 1111.609375 L 1779.410156 1069.25 C 1779.410156 1055.550781 1788.300781 1043.839844 1800.589844 1039.570312 L 1800.589844 1011.890625 L 1626.621094 1011.890625 L 1626.621094 1039.570312 C 1638.910156 1043.839844 1647.789062 1055.550781 1647.789062 1069.25 L 1647.789062 1111.609375 L 1585 1111.609375 L 1585 1069.25 C 1585 1055.550781 1593.878906 1043.839844 1606.171875 1039.570312 L 1606.171875 1011.890625 L 1432.210938 1011.890625 L 1432.210938 1039.570312 C 1444.488281 1043.839844 1453.378906 1055.550781 1453.378906 1069.25 L 1453.378906 1111.609375 L 1390.589844 1111.609375 L 1390.589844 1069.25 C 1390.589844 1055.550781 1399.46875 1043.839844 1411.761719 1039.570312 L 1411.761719 1011.890625 L 1237.789062 1011.890625 L 1237.789062 1039.570312 C 1250.078125 1043.839844 1258.960938 1055.550781 1258.960938 1069.25 L 1258.960938 1111.609375 L 1196.171875 1111.609375 L 1196.171875 1069.25 C 1196.171875 1055.550781 1205.058594 1043.839844 1217.351562 1039.570312 L 1217.351562 1011.890625 Z M 326.246094 1639.441406 L 580.992188 1639.441406 L 580.992188 2077.613281 L 326.246094 2077.613281 Z M 2255.628906 1639.441406 L 2510.371094 1639.441406 L 2510.371094 2077.613281 L 2255.628906 2077.613281 Z M 2383 1860.890625 C 2407.679688 1860.890625 2430.03125 1870.894531 2446.210938 1887.070312 C 2462.378906 1903.246094 2472.390625 1925.597656 2472.390625 1950.28125 C 2472.390625 1974.96875 2462.378906 1997.316406 2446.210938 2013.488281 C 2430.03125 2029.664062 2407.679688 2039.671875 2383 2039.671875 C 2358.308594 2039.671875 2335.960938 2029.664062 2319.789062 2013.488281 C 2303.609375 1997.316406 2293.609375 1974.96875 2293.609375 1950.28125 C 2293.609375 1925.597656 2303.609375 1903.246094 2319.789062 1887.070312 C 2335.960938 1870.898438 2358.308594 1860.890625 2383 1860.890625 Z M 2383 1677.878906 C 2400.929688 1677.878906 2417.179688 1685.148438 2428.929688 1696.910156 C 2440.691406 1708.660156 2447.960938 1724.910156 2447.960938 1742.839844 C 2447.960938 1760.78125 2440.691406 1777.03125 2428.929688 1788.78125 C 2417.179688 1800.539062 2400.929688 1807.808594 2383 1807.808594 C 2365.058594 1807.808594 2348.820312 1800.539062 2337.058594 1788.78125 C 2325.300781 1777.03125 2318.03125 1760.78125 2318.03125 1742.839844 C 2318.03125 1724.910156 2325.300781 1708.660156 2337.058594 1696.910156 C 2348.820312 1685.148438 2365.058594 1677.878906 2383 1677.878906 Z M 2416.550781 1709.289062 C 2407.960938 1700.710938 2396.101562 1695.390625 2383 1695.390625 C 2369.890625 1695.390625 2358.03125 1700.710938 2349.441406 1709.289062 C 2340.859375 1717.878906 2335.550781 1729.738281 2335.550781 1742.839844 C 2335.550781 1755.949219 2340.859375 1767.808594 2349.441406 1776.398438 C 2358.03125 1784.980469 2369.890625 1790.289062 2383 1790.289062 C 2396.101562 1790.289062 2407.960938 1784.980469 2416.550781 1776.398438 C 2425.128906 1767.808594 2430.449219 1755.949219 2430.449219 1742.839844 C 2430.449219 1729.738281 2425.128906 1717.878906 2416.550781 1709.289062 Z M 2433.078125 1900.199219 C 2420.261719 1887.382812 2402.550781 1879.453125 2383 1879.453125 C 2363.441406 1879.453125 2345.730469 1887.382812 2332.910156 1900.199219 C 2320.101562 1913.015625 2312.171875 1930.722656 2312.171875 1950.28125 C 2312.171875 1969.839844 2320.101562 1987.546875 2332.910156 2000.363281 C 2345.730469 2013.183594 2363.441406 2021.109375 2383 2021.109375 C 2402.550781 2021.109375 2420.261719 2013.183594 2433.078125 2000.363281 C 2445.898438 1987.546875 2453.828125 1969.839844 2453.828125 1950.28125 C 2453.828125 1930.722656 2445.898438 1913.015625 2433.078125 1900.199219 Z M 453.617188 1860.890625 C 478.304688 1860.890625 500.652344 1870.894531 516.828125 1887.070312 C 533.003906 1903.246094 543.011719 1925.597656 543.011719 1950.28125 C 543.011719 1974.96875 533.003906 1997.316406 516.828125 2013.488281 C 500.652344 2029.664062 478.304688 2039.671875 453.617188 2039.671875 C 428.933594 2039.671875 406.585938 2029.664062 390.410156 2013.488281 C 374.234375 1997.316406 364.226562 1974.96875 364.226562 1950.28125 C 364.226562 1925.597656 374.234375 1903.246094 390.410156 1887.070312 C 406.585938 1870.898438 428.933594 1860.890625 453.617188 1860.890625 Z M 453.617188 1677.878906 C 471.558594 1677.878906 487.800781 1685.148438 499.554688 1696.910156 C 511.3125 1708.660156 518.585938 1724.910156 518.585938 1742.839844 C 518.585938 1760.78125 511.3125 1777.03125 499.554688 1788.78125 C 487.800781 1800.539062 471.558594 1807.808594 453.617188 1807.808594 C 435.683594 1807.808594 419.4375 1800.539062 407.683594 1788.78125 C 395.925781 1777.03125 388.65625 1760.78125 388.65625 1742.839844 C 388.65625 1724.910156 395.925781 1708.660156 407.683594 1696.910156 C 419.4375 1685.148438 435.683594 1677.878906 453.617188 1677.878906 Z M 487.171875 1709.289062 C 478.585938 1700.710938 466.722656 1695.390625 453.617188 1695.390625 C 440.515625 1695.390625 428.652344 1700.710938 420.066406 1709.289062 C 411.480469 1717.878906 406.167969 1729.738281 406.167969 1742.839844 C 406.167969 1755.949219 411.480469 1767.808594 420.066406 1776.398438 C 428.652344 1784.980469 440.515625 1790.289062 453.617188 1790.289062 C 466.722656 1790.289062 478.585938 1784.980469 487.171875 1776.398438 C 495.757812 1767.808594 501.070312 1755.949219 501.070312 1742.839844 C 501.070312 1729.738281 495.757812 1717.878906 487.171875 1709.289062 Z M 503.703125 1900.199219 C 490.886719 1887.382812 473.175781 1879.453125 453.617188 1879.453125 C 434.0625 1879.453125 416.351562 1887.382812 403.535156 1900.199219 C 390.71875 1913.015625 382.789062 1930.722656 382.789062 1950.28125 C 382.789062 1969.839844 390.71875 1987.546875 403.535156 2000.363281 C 416.351562 2013.183594 434.0625 2021.109375 453.617188 2021.109375 C 473.175781 2021.109375 490.886719 2013.183594 503.703125 2000.363281 C 516.519531 1987.546875 524.449219 1969.839844 524.449219 1950.28125 C 524.449219 1930.722656 516.519531 1913.015625 503.703125 1900.199219 Z M 930.601562 991.441406 L 1906.019531 991.441406 L 1906.019531 937.699219 L 930.601562 937.699219 Z M 1068.140625 2009.175781 L 1768.46875 2009.175781 L 1768.46875 2142.84375 L 1068.140625 2142.84375 Z M 2074.621094 937.699219 L 1931.640625 937.699219 L 2003.128906 1007.550781 Z M 904.976562 937.699219 L 761.996094 937.699219 L 833.484375 1007.550781 Z M 891.707031 1781.238281 L 833.488281 1724.351562 L 775.269531 1781.238281 Z M 818.898438 1710.101562 L 756.820312 1649.441406 L 756.820312 1770.75 Z M 760.019531 1624.058594 L 833.484375 1695.851562 L 906.953125 1624.058594 L 833.488281 1552.28125 Z M 848.074219 1710.101562 L 910.152344 1770.75 L 910.152344 1649.441406 Z M 818.898438 1538.019531 L 756.820312 1477.371094 L 756.820312 1598.679688 Z M 760.019531 1451.988281 L 833.484375 1523.769531 L 906.953125 1451.988281 L 833.488281 1380.199219 Z M 848.074219 1538.019531 L 910.152344 1598.679688 L 910.152344 1477.371094 Z M 818.898438 1365.949219 L 756.820312 1305.300781 L 756.820312 1426.609375 Z M 760.019531 1279.921875 L 833.484375 1351.699219 L 906.953125 1279.921875 L 833.488281 1208.128906 Z M 848.074219 1365.949219 L 910.152344 1426.609375 L 910.152344 1305.300781 Z M 818.898438 1193.878906 L 756.820312 1133.21875 L 756.820312 1254.539062 Z M 760.019531 1107.839844 L 833.484375 1179.628906 L 906.953125 1107.839844 L 833.488281 1036.058594 Z M 848.074219 1193.878906 L 910.152344 1254.539062 L 910.152344 1133.21875 Z M 818.898438 1021.808594 L 756.820312 961.148438 L 756.820312 1082.460938 Z M 848.074219 1021.808594 L 910.152344 1082.460938 L 910.152344 961.148438 Z M 2061.351562 1781.238281 L 2003.128906 1724.351562 L 1944.910156 1781.238281 Z M 1988.539062 1710.101562 L 1926.460938 1649.441406 L 1926.460938 1770.75 Z M 1929.660156 1624.058594 L 2003.128906 1695.851562 L 2076.601562 1624.058594 L 2003.128906 1552.28125 Z M 2017.71875 1710.101562 L 2079.800781 1770.75 L 2079.800781 1649.441406 Z M 1988.539062 1538.019531 L 1926.460938 1477.371094 L 1926.460938 1598.679688 Z M 1929.660156 1451.988281 L 2003.128906 1523.769531 L 2076.601562 1451.988281 L 2003.128906 1380.199219 Z M 2017.71875 1538.019531 L 2079.800781 1598.679688 L 2079.800781 1477.371094 Z M 1988.539062 1365.949219 L 1926.460938 1305.300781 L 1926.460938 1426.609375 Z M 1929.660156 1279.921875 L 2003.128906 1351.699219 L 2076.601562 1279.921875 L 2003.128906 1208.128906 Z M 2017.71875 1365.949219 L 2079.800781 1426.609375 L 2079.800781 1305.300781 Z M 1988.539062 1193.878906 L 1926.460938 1133.21875 L 1926.460938 1254.539062 Z M 1929.660156 1107.839844 L 2003.128906 1179.628906 L 2076.601562 1107.839844 L 2003.128906 1036.058594 Z M 2017.71875 1193.878906 L 2079.800781 1254.539062 L 2079.800781 1133.21875 Z M 1988.539062 1021.808594 L 1926.460938 961.148438 L 1926.460938 1082.460938 Z M 2017.71875 1021.808594 L 2079.800781 1082.460938 L 2079.800781 961.148438 Z M 2017.71875 1021.808594 "/>
</svg>
