<?xml version="1.0" encoding="utf-8"?>
<!-- Generator: Adobe Illustrator 19.2.1, SVG Export Plug-In . SVG Version: 6.00 Build 0)  -->
<svg version="1.1" id="layer" xmlns="http://www.w3.org/2000/svg" xmlns:xlink="http://www.w3.org/1999/xlink" x="0px" y="0px"
	 viewBox="0 0 652 652" style="enable-background:new 0 0 652 652;" xml:space="preserve">
<style type="text/css">
	.st0{fill:#231815;}
	.st1{fill:#E50012;}
</style>
<g>
	<path class="st0" d="M572.1,358.2c-5.5,9-11.1,14.6-22.2,14.6c-13.2,0-20.8-11-21.9-22.1h61.5v-4.8c0-27.9-15.4-45.3-40.1-45.3
		c-25.7,0-41.7,17.6-41.7,45.8c0,26.4,17.3,44.8,42,44.8c16.8,0,31.6-8.7,39.5-23.3l1.1-2l-17.1-9.7L572.1,358.2z M549.4,318.8
		c9.8,0,16.9,5.7,19.4,15.5h-39.5C531.9,324.9,539.7,318.8,549.4,318.8 M201.2,253.7h-29.3v134.8h28.7c46.8,0,75.8-26.1,75.8-68.1
		C276.5,279.9,246.9,253.7,201.2,253.7 M196.1,369h-3.4v-95.8h3.4c27.1,0,59.4,8.3,59.4,47.9S223.3,369,196.1,369 M346.5,312.4
		c-6.9-7.7-15.9-11.8-26-11.8c-26.3,0-40.5,23-40.5,44.6c0,22.8,14.1,46,41,46c9.6,0,18.6-4.1,25.4-11.4v8.7h20.2V303h-20.2V312.4z
		 M323.5,372.8c-15.2,0-23.2-13.6-23.2-27c0-13.2,8-26.7,23.2-26.7c16.5,0,23.9,13.4,23.9,26.7C347.4,359.2,340,372.8,323.5,372.8
		 M510.1,303h-15.2v-30.9h-20.2V303h-8.5v19.2h8.5v66.3h20.2v-66.3h15.2V303z M424.8,300.6c-8.8,0-16.8,3.4-22.3,9.1V303h-20.2v85.4
		h20.2V349c0-17.5,1.3-29.9,17.7-29.9c13.2,0,15.4,6.4,15.4,20.8v48.6h20.2V338C455.8,312.9,445.6,300.6,424.8,300.6 M580.9,289.8
		h5.9v16.5h3.1v-16.5h6v-2.5h-15V289.8z M615.9,287.3l-5.6,14.4l-5.7-14.4h-4.8v19h3.1v-15.9h0.1l6.2,15.9h2l6.2-15.9h0.1v15.9h3.1
		v-19H615.9z M52.6,360.5v5.9h63.9v-16.9H69.6c4.6-24.8,25.9-44.3,52.7-48.3v48.3h0v16.9h16v-81.1h-5.9
		C88.4,285.2,52.6,319,52.6,360.5 M20.7,360.5v5.9l15.9,0v-5.9c0-50.3,42.9-91.2,95.7-91.2h5.9v-15.9h-5.9
		C70.8,253.4,20.7,301.4,20.7,360.5"/>
	<rect x="52.1" y="376.7" class="st1" width="85.9" height="12.1"/>
	<rect x="20.7" y="377" class="st1" width="16.8" height="11.7"/>
</g>
</svg>
