<?xml version="1.0" encoding="UTF-8" standalone="no"?>
<!-- Created with Inkscape (http://www.inkscape.org/) -->
<svg xmlns:dc="http://purl.org/dc/elements/1.1/" xmlns:cc="http://creativecommons.org/ns#" xmlns:rdf="http://www.w3.org/1999/02/22-rdf-syntax-ns#" xmlns:svg="http://www.w3.org/2000/svg" xmlns="http://www.w3.org/2000/svg" version="1.1" width="800" height="250" id="svg2">
  <defs id="defs4">
    <clipPath id="clipPath3037">
      <path d="m 86.563,368.517 422.15,0 0,167.232 -422.15,0 0,-167.232 z" id="path3039"/>
    </clipPath>
    <filter color-interpolation-filters="sRGB" id="filter4408">
      <feGaussianBlur id="feGaussianBlur4410" stdDeviation="2.776875"/>
    </filter>
  </defs>
  <metadata id="metadata7">
    <rdf:RDF>
      <cc:Work rdf:about="">
        <dc:format>image/svg+xml</dc:format>
        <dc:type rdf:resource="http://purl.org/dc/dcmitype/StillImage"/>
        <dc:title/>
      </cc:Work>
    </rdf:RDF>
  </metadata>
  <g transform="translate(0,-802.36218)" id="layer1">
    <path d="m 454.25908,923.27853 -7.9375,30.125 11.71875,-9.34375 3.1875,-11.65625 -6.96875,-9.125 z m -410.562499,0.0625 7.5,9.65625 17.6875,0 2.5,-9.65625 -27.6875,0 z m 63.937499,0 7.5,9.65625 19.4375,0 11.09375,-9.65625 -38.03125,0 z m 61.5,0 7.5,9.65625 24.46875,0 11.0625,-9.65625 -43.03125,0 z m 63.125,0 7.5,9.65625 19.46875,0 11.0625,-9.65625 -38.03125,0 z m 64,0 7.5,9.65625 24.46875,0 11.0625,-9.65625 -43.03125,0 z m 63.9375,0 7.5,9.65625 24.46875,0 11.0625,-9.65625 -43.03125,0 z m 62.9375,0.0937 7.5,9.65625 17.25,0 2.875,-9.65625 -27.625,0 z m -347.093749,0.90625 -18.875,70.5 11.40625,-8.15625 14.4375,-53.21875 -6.96875,-9.125 z m 71.406249,0.875 c 0,0 -11.4241,10.00893 -11.78125,10.1875 l -12.0625,48.2188 6.78125,9.375 17.0625,-67.78125 z m 124.625,0.1875 c 0,0 -10.24107,9.45535 -10.6875,9.8125 l -7.59375,28.03125 12.21875,-10.09375 6.0625,-27.75 z m -42.28125,0.25 -8.28125,31.4375 11.40625,-8.15625 3.84375,-14.15625 -6.96875,-9.125 z m -188.593749,0.0937 -17.9375,66.9375 11.40625,-8.1875 13.5,-49.625 -6.96875,-9.125 z m 64.499999,0 -17.937499,66.9375 11.40625,-8.1875 13.499999,-49.625 -6.96875,-9.125 z m 60.71875,0 -8.3125,31.4375 11.4375,-8.15625 3.84375,-14.15615 -6.96875,-9.125 z m 127.125,0 -8.3125,31.4375 11.40625,-8.15625 3.84375,-14.15615 -6.9375,-9.125 z m 63.90625,0 -8.28125,31.4375 11.40625,-8.15625 3.84375,-14.15615 -6.96875,-9.125 z m 62.9375,0.0937 -8.28125,31.4375 11.40625,-8.15625 3.84375,-14.15625 -6.96875,-9.125 z m -254.375,28.9375 -6.5,4.8125 3.8125,4.90625 32.59375,0 5.46875,-5.625 -3.6875,-4.09375 -31.6875,0 z m 62.625,0 -6.5,4.8125 3.84375,4.90625 23.28125,0 1.8125,-9.71875 -22.4375,0 z m 64.5,0 -6.53125,4.8125 3.84375,4.90625 32.59375,0 5.4375,-5.625 -3.65625,-4.09375 -31.6875,0 z m 63.9375,0 -6.53125,4.8125 3.84375,4.90625 32.59375,0 5.4375,-5.625 -3.65625,-4.09375 -31.6875,0 z m 62.9375,0.0937 -6.53125,4.8125 3.84375,4.90625 24.5,0 11.625,-9.71875 -33.4375,0 z m 33.6875,3.3125 c 0,0 -11.4241,10.00893 -11.78125,10.1875 l -6.75,27 9.21875,-0.0625 9.3125,-37.125 z m -296.40625,3.1877 -8.28125,31.4375 11.40625,-8.15625 3.84375,-14.1875 -6.96875,-9.09375 z m 191.0625,0 -8.3125,31.4375 11.4375,-8.15625 3.84375,-14.1875 -6.96875,-9.09375 z m -128.1875,0.34375 -8.875,33.59375 9.25,-0.0937 6.59375,-24.375 -6.96875,-9.125 z m 63.84375,0 -8.84375,33.59375 9.21875,-0.0937 6.59375,-24.375 -6.96875,-9.125 z m 126.875,0.125 -8.875,33.5625 9.25,-0.0937 6.59375,-24.375 -6.96875,-9.09375 z m -374.156249,23.8125 -12.15625,9.65625 28.0625,0 2.84375,-9.65625 -18.75,0 z m 64.812499,0 -13.124999,9.65625 39.656249,0 -7.6875,-9.65625 -18.84375,0 z m 61.09375,0 -12.15625,9.65625 44.28125,0 -7.6875,-9.65625 -24.4375,0 z m 191.03125,0 -12.125,9.65625 44.28125,0 -7.6875,-9.65625 -24.46875,0 z M 86.602831,1013.8723 c -2.19572,0 -4.02064,0.2612 -5.46875,0.8125 -1.44813,0.5513 -2.63823,1.3176 -3.59375,2.2812 -0.95553,0.9637 -1.63206,1.9791 -2,3.0625 -0.56092,1.6492 -0.39719,2.9982 0.46875,4.0625 0.85574,1.0643 2.57958,1.9201 5.21875,2.5625 1.6144,0.3836 2.60429,0.8186 2.9375,1.25 0.33258,0.4315 0.40451,0.891 0.21875,1.4375 -0.19538,0.5753 -0.62957,1.095 -1.28125,1.5313 -0.65171,0.4362 -1.44495,0.6562 -2.375,0.6562 -1.24648,0 -2.05637,-0.4279 -2.4375,-1.2812 -0.23317,-0.5274 -0.2392,-1.3058 -0.0312,-2.3125 l -6.34375,0.4062 c -0.54114,2.1286 -0.34898,3.8693 0.5625,5.25 0.91148,1.3807 3.164,2.0625 6.75,2.0625 2.04228,0 3.83218,-0.2853 5.375,-0.875 1.54279,-0.5897 2.89562,-1.4527 4.03125,-2.5937 1.13558,-1.141 1.91534,-2.3981 2.375,-3.75 0.39069,-1.1506 0.46352,-2.1637 0.21875,-3.0938 -0.24482,-0.93 -0.85628,-1.7157 -1.875,-2.3437 -1.01877,-0.628 -2.86086,-1.2614 -5.5,-1.875 -1.0691,-0.2397 -1.69413,-0.5032 -1.90625,-0.7813 -0.2253,-0.2684 -0.30197,-0.5706 -0.1875,-0.9062 0.1564,-0.4602 0.47614,-0.8351 0.96875,-1.1563 0.49258,-0.3212 1.11752,-0.5 1.875,-0.5 0.92045,0 1.5927,0.2248 1.96875,0.6563 0.37606,0.4315 0.47248,1.1133 0.3125,2.0625 l 6.28125,-0.3438 c 0.47459,-2.1861 0.1676,-3.7792 -0.90625,-4.7812 -1.07391,-1.002 -2.96198,-1.5 -5.65625,-1.5 z m 189.749999,0 c -3.42301,0 -6.43067,0.9574 -9,2.875 -2.56935,1.9176 -4.42399,4.5891 -5.59375,8.0312 -0.83718,2.4642 -1.06735,4.5167 -0.65625,6.1563 0.41109,1.6396 1.26179,2.8363 2.5625,3.5937 1.3007,0.7575 3.15336,1.125 5.53125,1.125 2.33951,0 4.44668,-0.4352 6.3125,-1.3125 1.86579,-0.8773 3.47831,-2.079 4.84375,-3.6562 1.3654,-1.5773 2.4747,-3.5983 3.3125,-6.0625 1.15296,-3.3942 1.10188,-6.0534 -0.15625,-7.9375 -1.25818,-1.8841 -3.64698,-2.8125 -7.15625,-2.8125 z m 95.46875,0 c -2.41625,0 -4.46505,0.3192 -6.125,1 -2.13099,0.8821 -3.94123,2.1731 -5.46875,3.875 -1.52753,1.7019 -2.68672,3.7301 -3.46875,6.0312 -0.74308,2.1862 -0.98174,4.125 -0.6875,5.8125 0.29424,1.6876 1.08778,2.9592 2.375,3.8125 1.28721,0.8534 3.18496,1.25 5.6875,1.25 2.03269,0 3.8574,-0.2129 5.5,-0.6875 1.64256,-0.4746 3.65755,-1.3739 6.03125,-2.6875 l 3.0625,-9 -10.0625,0 -1.5,4.4063 4.34375,0 -0.65625,1.9687 c -1.02596,0.5082 -1.92307,0.8828 -2.65625,1.0938 -0.73322,0.2109 -1.45881,0.3125 -2.1875,0.3125 -1.53413,0 -2.56791,-0.4908 -3.09375,-1.4688 -0.52587,-0.978 -0.40046,-2.6242 0.375,-4.9062 0.72989,-2.1478 1.68934,-3.6951 2.875,-4.6875 1.18563,-0.9924 2.50884,-1.5 3.9375,-1.5 0.9588,0 1.68101,0.2031 2.15625,0.625 0.47519,0.4219 0.6989,1.0479 0.6875,1.8437 l 6.65625,-1.125 c 0.0791,-1.3615 -0.1017,-2.4881 -0.5625,-3.375 -0.46086,-0.8869 -1.20662,-1.5468 -2.21875,-1.9687 -1.01218,-0.4219 -2.67008,-0.625 -5,-0.625 z m -346.374999,0.3437 -7.1875,21.0938 5.34375,0 5.46875,-16.0938 -1.34375,16.0938 4.8125,0 9.59375,-16.0938 -5.46875,16.0938 5.3125,0 7.1875,-21.0938 -8.5625,0 -7.65625,12.8438 1.0625,-12.8438 -8.5625,0 z m 27.875,0 -4.28125,12.5938 c -0.35178,1.0355 -0.54045,2.2201 -0.59375,3.5625 -0.0348,0.8342 0.12225,1.62 0.53125,2.4062 0.40899,0.7863 0.95502,1.4171 1.625,1.8438 0.66997,0.4267 1.58592,0.6999 2.75,0.8437 1.16405,0.1439 2.2553,0.2188 3.28125,0.2188 1.77381,0 3.38743,-0.249 4.8125,-0.7188 1.02472,-0.3356 2.10739,-0.9206 3.21875,-1.75 1.11131,-0.8294 2.04782,-1.7675 2.8125,-2.875 0.76464,-1.1074 1.35755,-2.2847 1.78125,-3.5312 l 4.25,-12.5938 -6.5,0 -4.375,12.875 c -0.39792,1.1698 -1.02077,2.0812 -1.875,2.7188 -0.85426,0.6376 -1.84694,0.9687 -2.96875,0.9687 -1.13142,0 -1.89483,-0.3528 -2.3125,-1 -0.41765,-0.6472 -0.42258,-1.5369 -0.0312,-2.6875 l 4.375,-12.875 -6.5,0 z m 46.09375,0 -7.1875,21.0938 6.53125,0 7.187499,-21.0938 -6.531249,0 z m 11.218749,0 -7.1875,21.0938 6.53125,0 1.75,-5.1563 4.5625,-3.5312 1.5,8.6875 8.03125,0 -3.5625,-13.125 10.375,-7.9688 -8.65625,0 -9.53125,7.9688 2.6875,-7.9688 -6.5,0 z m 24.5,0 -7.15625,21.0938 17.78125,0 1.625,-4.7813 -11.25,0 1.40625,-4.1562 10.15625,0 1.4375,-4.2813 -10.125,0 1.125,-3.375 10.9375,0 1.53125,-4.5 -17.46875,0 z m 21.3125,0 -7.15625,21.0938 16.6875,0 1.75,-5.1875 -10.15625,0 5.375,-15.9063 -6.5,0 z m 19.65625,0 -7.15625,21.0938 17.78125,0 1.625,-4.7813 -11.25,0 1.40625,-4.1562 10.125,0 1.46875,-4.2813 -10.125,0 1.125,-3.375 10.9375,0 1.53125,-4.5 -17.46875,0 z m 21.34375,0 -7.1875,21.0938 6.53125,0 1.75,-5.1563 4.5625,-3.5312 1.5,8.6875 8.03125,0 -3.5625,-13.125 10.375,-7.9688 -8.65625,0 -9.53125,7.9688 2.6875,-7.9688 -6.5,0 z m 23.03125,0 -1.75,5.2188 6.625,0 -5.375,15.875 6.5,0 5.40625,-15.875 6.65625,0 1.75,-5.2188 -19.8125,0 z m 22.875,0 -7.1875,21.0938 6.5625,0 2.90625,-8.5625 0.5625,0 c 0.59445,0 1.07853,0.174 1.4375,0.5 0.26067,0.2493 0.46738,0.7908 0.625,1.625 l 1.28125,6.4375 7.375,0 -1.0625,-6.125 c -0.0492,-0.3068 -0.20569,-0.7156 -0.46875,-1.2813 -0.2631,-0.5657 -0.50594,-0.9524 -0.6875,-1.125 -0.26669,-0.2588 -0.71772,-0.5223 -1.40625,-0.7812 1.0433,-0.2205 1.89251,-0.4769 2.5625,-0.8125 1.05229,-0.5274 1.96315,-1.2452 2.75,-2.0938 0.78681,-0.8485 1.38391,-1.8302 1.78125,-3 0.45661,-1.3423 0.52186,-2.5026 0.1875,-3.4375 -0.33442,-0.9348 -0.99039,-1.561 -1.9375,-1.9062 -0.94716,-0.3452 -2.42399,-0.5313 -4.4375,-0.5313 l -10.84375,0 z m 47.40625,0 -7.15625,21.0938 6.125,0 3.9375,-11.5938 3.96875,11.5938 6.125,0 7.15625,-21.0938 -6.125,0 -3.96875,11.6875 -3.96875,-11.6875 -6.09375,0 z m 24.78125,0 -7.15625,21.0938 6.53125,0 7.15625,-21.0938 -6.53125,0 z m 11.21875,0 -7.15625,21.0938 6.5,0 1.75,-5.1563 4.5625,-3.5312 1.5,8.6875 8.03125,0 -3.5625,-13.125 10.375,-7.9688 -8.65625,0 -9.53125,7.9688 2.71875,-7.9688 -6.53125,0 z m 58.875,0 -7.15625,21.0938 5.3125,0 5.46875,-16.0938 -1.34375,16.0938 4.8125,0 9.59375,-16.0938 -5.46875,16.0938 5.3125,0 7.1875,-21.0938 -8.5625,0 -7.65625,12.8438 1.0625,-12.8438 -8.5625,0 z m 27.875,0 -7.1875,21.0938 11.25,0 c 0.4794,0 1.49892,-0.09 3.03125,-0.2813 1.15117,-0.1438 2.06433,-0.3711 2.71875,-0.6875 1.05468,-0.5081 1.97642,-1.2212 2.78125,-2.0937 0.80479,-0.8726 1.37904,-1.8445 1.75,-2.9375 0.4566,-1.3424 0.47537,-2.4569 0.0625,-3.3438 -0.41291,-0.8869 -1.29603,-1.5106 -2.6875,-1.875 1.11461,-0.3451 2.03026,-0.8117 2.75,-1.4062 1.07985,-0.8917 1.82629,-1.9723 2.25,-3.2188 0.50515,-1.4861 0.37136,-2.7119 -0.375,-3.7187 -0.74641,-1.0068 -2.12357,-1.5313 -4.15625,-1.5313 l -12.1875,0 z m 22.90625,0 -7.15625,21.0938 6.5,0 2.90625,-8.5313 7.125,0 -2.90625,8.5313 6.53125,0 7.1875,-21.0938 -6.5625,0 -2.5,7.375 -7.125,0 2.5,-7.375 -6.5,0 z m -187.96875,4.2813 2.84375,0 c 1.18892,0 1.94226,0.1669 2.25,0.5312 0.3077,0.3644 0.35629,0.8818 0.125,1.5625 -0.15643,0.4603 -0.4185,0.864 -0.8125,1.2188 -0.39403,0.3548 -0.85169,0.5699 -1.3125,0.6562 -0.91809,0.1918 -1.51529,0.3125 -1.8125,0.3125 l -2.75,0 1.46875,-4.2812 z m 170.1875,0 2.875,0 c 0.98757,0 1.62548,0.1861 1.90625,0.5312 0.28074,0.3452 0.30228,0.8239 0.0937,1.4375 -0.22474,0.6616 -0.60816,1.1501 -1.125,1.5 -0.51689,0.35 -1.26491,0.5313 -2.28125,0.5313 l -2.84375,0 1.375,-4 z m -143.96875,0.3125 c 1.37109,0 2.29163,0.4593 2.78125,1.375 0.48958,0.9157 0.3935,2.359 -0.28125,4.3437 -0.80124,2.3587 -1.73564,3.9954 -2.8125,4.9063 -1.07689,0.9109 -2.31888,1.3437 -3.71875,1.3437 -1.36154,0 -2.2751,-0.4449 -2.75,-1.375 -0.47493,-0.93 -0.34832,-2.4651 0.375,-4.5937 0.72989,-2.1478 1.63805,-3.695 2.75,-4.625 1.11191,-0.9301 2.34264,-1.375 3.65625,-1.375 z m 141.25,7.6875 3.28125,0 c 1.14099,0 1.89213,0.215 2.21875,0.5937 0.32658,0.3788 0.36777,0.8768 0.15625,1.5 -0.22834,0.6712 -0.6234,1.1959 -1.21875,1.5938 -0.59539,0.3979 -1.47194,0.5937 -2.59375,0.5937 l -3.3125,0 1.46875,-4.2812 z" transform="matrix(1.7075581,0,0,1.7075581,-8.2038391,-737.52263)" id="path3517-8" style="font-size:29.45501709px;font-style:oblique;font-variant:normal;font-weight:900;font-stretch:normal;text-align:start;line-height:125%;letter-spacing:0px;word-spacing:0px;writing-mode:lr-tb;text-anchor:start;opacity:0.69360268;fill:#000000;fill-opacity:1;stroke:none;filter:url(#filter4408);font-family:Arial Black;-inkscape-font-specification:'Arial Black, Heavy Oblique'"/>
    <path d="m 762.48524,830.89199 -13.55375,51.44019 20.01045,-15.955 5.44284,-19.90373 -11.89954,-15.58146 z m -701.0593,0.10671 12.806685,16.48861 30.202435,0 4.26889,-16.48861 -47.27801,0 z m 109.17699,0 12.80669,16.48861 33.19065,0 18.94322,-16.48861 -64.94056,0 z m 105.01482,0 12.80668,16.48861 41.78181,0 18.88986,-16.48861 -73.47835,0 z m 107.7896,0 12.80668,16.48861 33.24403,0 18.88986,-16.48861 -64.94057,0 z m 109.28371,0 12.80669,16.48861 41.78181,0 18.88986,-16.48861 -73.47836,0 z m 109.177,0 12.80669,16.48861 41.7818,0 18.88986,-16.48861 -73.47835,0 z m 107.46944,0.16001 12.80667,16.48861 29.45538,0 4.90923,-16.48861 -47.17128,0 z m -592.68273,1.54747 -32.230158,120.38284 19.476838,-13.92727 24.65286,-90.8741 -11.89954,-15.58147 z m 121.93032,1.49412 c 0,0 -19.50732,17.09082 -20.11718,17.39574 l -20.59741,82.33632 11.57938,16.00835 29.13521,-115.74041 z m 212.80441,0.32016 c 0,0 -17.48722,16.14556 -18.24952,16.75541 l -12.96677,47.86499 20.86423,-17.23566 10.35206,-47.38474 z m -72.19768,0.42689 -14.14072,53.68136 19.47684,-13.92727 6.56342,-24.17262 -11.89954,-15.58147 z m -322.034775,0.16 L 26.527722,949.40702 46.004556,935.42639 69.05659,850.68881 57.157045,835.10735 z m 110.137495,0 -30.62933,114.29967 19.47684,-13.98063 23.05203,-84.73758 -11.89954,-15.58146 z m 103.68079,0 -14.19408,53.68135 19.53019,-13.92727 6.56343,-24.17262 -11.89954,-15.58146 z m 217.07331,0 -14.19407,53.68135 19.47683,-13.92727 6.56343,-24.17262 -11.84619,-15.58146 z m 109.12363,0 -14.14071,53.68135 19.47683,-13.92727 6.56343,-24.17262 -11.89955,-15.58146 z m 107.46944,0.16 -14.14072,53.68135 19.47684,-13.92727 6.56342,-24.17262 -11.89954,-15.58146 z m -434.36008,49.41246 -11.09913,8.21762 6.51007,8.37771 55.65572,0 9.3382,-9.60502 -6.29662,-6.99031 -54.10824,0 z m 106.93582,0 -11.09912,8.21762 6.56342,8.37771 39.75409,0 3.09495,-16.59533 -38.31334,0 z m 110.13749,0 -11.15248,8.21762 6.56343,8.37771 55.65571,0 9.28485,-9.60502 -6.24326,-6.99031 -54.10825,0 z m 109.177,0 -11.15249,8.21762 6.56343,8.37771 55.65572,0 9.28484,-9.60502 -6.24326,-6.99031 -54.10824,0 z m 107.46943,0.16 -11.15248,8.21762 6.56342,8.37771 41.83517,0 19.85037,-16.59533 -57.09648,0 z m 57.52336,5.65628 c 0,0 -19.50731,17.09083 -20.11716,17.39575 l -11.52602,46.10407 15.74155,-0.10672 15.90163,-63.39309 z m -506.13087,5.44285 -14.14072,53.68135 19.47684,-13.92727 6.56342,-24.22598 -11.89954,-15.5281 z m 326.25031,0 -14.19408,53.68135 19.53019,-13.92727 6.56343,-24.22598 -11.89954,-15.5281 z m -218.8876,0.58697 -15.15457,57.36327 15.79491,-0.16 11.2592,-41.62172 -11.89954,-15.58147 z m 109.01691,0 -15.10122,57.36327 15.74155,-0.16 11.25921,-41.62172 -11.89954,-15.58147 z m 216.64643,0.21344 -15.15459,57.30992 15.79492,-0.16 11.25921,-41.62173 -11.89954,-15.5281 z m -638.893515,40.66122 -20.757502,16.48861 47.918346,0 4.855869,-16.48861 -32.016713,0 z m 110.671105,0 -22.41169,16.48861 67.71534,0 -13.12686,-16.48861 -32.17679,0 z m 104.32113,0 -20.7575,16.48861 75.61279,0 -13.12685,-16.48861 -41.72844,0 z m 326.19694,0 -20.70414,16.48861 75.6128,0 -13.12685,-16.48861 -41.78181,0 z M 134.69085,985.5858 c -3.74932,0 -6.86547,0.44601 -9.33821,1.38738 -2.47276,0.94139 -4.50493,2.24989 -6.13653,3.89529 -1.63163,1.6454 -2.78684,3.37926 -3.41512,5.22939 -0.95781,2.81613 -0.67823,5.11964 0.80042,6.93694 1.46122,1.8174 4.40479,3.2787 8.91132,4.3757 2.75668,0.6548 4.44697,1.3976 5.01595,2.1343 0.5679,0.7369 0.69072,1.5215 0.37352,2.4547 -0.33362,0.9823 -1.07502,1.8697 -2.1878,2.6148 -1.11284,0.7448 -2.46733,1.1205 -4.05545,1.1205 -2.12844,0 -3.51138,-0.7307 -4.16217,-2.1878 -0.39815,-0.9005 -0.40846,-2.2297 -0.0533,-3.9486 l -10.83232,0.6936 c -0.92402,3.6347 -0.59589,6.607 0.96051,8.9646 1.5564,2.3577 5.40271,3.5218 11.52602,3.5218 3.4873,0 6.54366,-0.4871 9.17812,-1.494 2.6344,-1.007 4.94444,-2.4807 6.88359,-4.4289 1.93908,-1.9483 3.27056,-4.0949 4.05545,-6.4034 0.66713,-1.9647 0.79149,-3.6946 0.37353,-5.2828 -0.41805,-1.5881 -1.46215,-2.9297 -3.20166,-4.002 -1.73962,-1.0726 -4.8851,-2.15395 -9.39158,-3.20174 -1.82555,-0.40932 -2.89282,-0.85916 -3.25504,-1.33403 -0.3847,-0.45853 -0.51562,-0.97438 -0.32016,-1.54744 0.26707,-0.78599 0.81304,-1.42598 1.6542,-1.97445 0.8411,-0.54846 1.90823,-0.85377 3.20167,-0.85377 1.57173,0 2.71963,0.38386 3.36175,1.12066 0.64215,0.73664 0.80679,1.90085 0.53362,3.52185 l 10.72559,-0.58707 c 0.8104,-3.7329 0.28619,-6.45337 -1.54747,-8.16417 -1.83377,-1.71098 -5.05775,-2.56134 -9.65837,-2.56134 z m 324.00914,0 c -5.84499,0 -10.98074,1.63465 -15.36802,4.90923 -4.38732,3.27441 -7.55423,7.83619 -9.55166,13.71367 -1.42953,4.2079 -1.82256,7.7126 -1.12058,10.5123 0.70196,2.7995 2.15457,4.843 4.37562,6.1365 2.22102,1.2934 5.38454,1.9209 9.44493,1.9209 3.99485,0 7.59296,-0.7431 10.77896,-2.2411 3.18594,-1.498 5.93941,-3.55 8.27098,-6.2431 2.3315,-2.6934 4.2257,-6.1446 5.65629,-10.3521 1.96875,-5.79604 1.88152,-10.33658 -0.26681,-13.5538 -2.14842,-3.2172 -6.22743,-4.8025 -12.21971,-4.8025 z m 163.01843,0 c -4.12588,0 -7.62434,0.54505 -10.45879,1.70756 -3.63879,1.50623 -6.72988,3.71069 -9.33821,6.61679 -2.60835,2.90611 -4.58774,6.36915 -5.9231,10.29855 -1.26885,3.733 -1.67637,7.0437 -1.17394,9.9252 0.50243,2.8815 1.85745,5.053 4.05545,6.5102 2.19799,1.4572 5.43851,2.1343 9.71173,2.1343 3.47095,0 6.58675,-0.3635 9.39158,-1.1739 2.80476,-0.8104 6.24548,-2.346 10.2987,-4.5891 l 5.2294,-15.368 -17.1823,0 -2.56134,7.5241 7.41721,0 -1.12059,3.3617 c -1.75188,0.8677 -3.28375,1.5073 -4.5357,1.8677 -1.25201,0.36 -2.491,0.5336 -3.73528,0.5336 -2.61961,0 -4.38486,-0.8382 -5.28276,-2.5081 -0.89795,-1.67 -0.68381,-4.481 0.64034,-8.3776 1.24632,-3.6675 2.88464,-6.30979 4.90923,-8.00421 2.02453,-1.69458 4.28398,-2.56134 6.7235,-2.56134 1.63721,0 2.87042,0.34681 3.68193,1.06723 0.81141,0.72041 1.19341,1.78935 1.17395,3.14823 l 11.36593,-1.92101 c 0.13507,-2.32484 -0.17367,-4.24858 -0.96051,-5.76301 -0.78694,-1.51443 -2.06037,-2.64125 -3.78864,-3.36167 -1.72835,-0.72042 -4.55931,-1.06722 -8.53779,-1.06722 z m -591.455414,0.58688 -12.273073,36.01892 9.124763,0 9.338208,-27.48112 -2.294531,27.48112 8.217622,0 16.381885,-27.48112 -9.338208,27.48112 9.071402,0 12.273074,-36.01892 -14.620966,0 -13.073491,21.93152 1.814281,-21.93152 -14.620966,0 z m 47.59818,0 -7.310483,21.50462 c -0.600684,1.7682 -0.922849,3.791 -1.013863,6.0832 -0.05943,1.4242 0.208749,2.7663 0.907141,4.1088 0.698374,1.3425 1.630752,2.4197 2.774782,3.1483 1.144013,0.7285 2.70805,1.1952 4.695784,1.4407 1.987684,0.2456 3.851055,0.3736 5.602925,0.3736 3.028883,0 5.784233,-0.4252 8.217623,-1.2274 1.749769,-0.573 3.59849,-1.5719 5.496203,-2.9882 1.897626,-1.4163 3.496772,-3.0181 4.802502,-4.9092 1.30567,-1.891 2.3181,-3.9015 3.04159,-6.0298 l 7.25713,-21.50462 -11.09913,0 -7.47057,21.98482 c -0.679471,1.9975 -1.743024,3.5536 -3.201671,4.6425 -1.458699,1.0887 -3.153757,1.6541 -5.069313,1.6541 -1.931965,0 -3.235532,-0.6024 -3.948728,-1.7075 -0.713161,-1.1052 -0.721579,-2.6244 -0.05327,-4.5891 l 7.470566,-21.98482 -11.099127,0 z m 78.707754,0 -12.27308,36.01892 11.1525,0 12.27306,-36.01892 -11.15248,0 z m 19.15667,0 -12.27308,36.01892 11.15248,0 2.98824,-8.8047 7.79072,-6.0297 2.56134,14.8344 13.71383,0 -6.08318,-22.41173 17.71593,-13.60719 -14.78106,0 -16.27516,13.60719 4.58906,-13.60719 -11.09912,0 z m 41.83517,0 -12.21972,36.01892 30.36252,0 2.77478,-8.1644 -19.21003,0 2.40126,-7.0969 17.34238,0 2.45462,-7.31056 -17.28903,0 1.921,-5.76304 18.67642,0 2.6147,-7.68402 -29.8289,0 z m 36.39232,0 -12.2197,36.01892 28.49487,0 2.98823,-8.858 -17.34239,0 9.17813,-27.16092 -11.09914,0 z m 33.5642,0 -12.21971,36.01892 30.36251,0 2.77479,-8.1644 -19.21004,0 2.40126,-7.0969 17.28902,0 2.50798,-7.31056 -17.28903,0 1.921,-5.76304 18.67643,0 2.61468,-7.68402 -29.82889,0 z m 36.44569,0 -12.27308,36.01892 11.15249,0 2.98823,-8.8047 7.79073,-6.0297 2.56134,14.8344 13.71382,0 -6.08317,-22.41173 17.71592,-13.60719 -14.78106,0 -16.27516,13.60719 4.58907,-13.60719 -11.09913,0 z m 39.32719,0 -2.98822,8.91141 11.31257,0 -9.17813,27.10751 11.09913,0 9.23148,-27.10751 11.36594,0 2.98823,-8.91141 -33.831,0 z m 39.0604,0 -12.27308,36.01892 11.20585,0 4.96259,-14.621 0.9605,0 c 1.01505,0 1.84166,0.2971 2.45462,0.8538 0.44511,0.4256 0.79808,1.3503 1.06722,2.7747 l 2.18781,10.9925 12.59324,0 -1.81428,-10.4588 c -0.084,-0.524 -0.35123,-1.222 -0.80042,-2.188 -0.44925,-0.9658 -0.86392,-1.6262 -1.17394,-1.9209 -0.4554,-0.4421 -1.22556,-0.8921 -2.40126,-1.334 1.78149,-0.3766 3.23157,-0.8143 4.37562,-1.3873 1.79685,-0.9006 3.35219,-2.1263 4.69578,-3.5754 1.34352,-1.44884 2.36311,-3.12513 3.04159,-5.12261 0.77969,-2.29206 0.89111,-4.27333 0.32017,-5.86973 -0.57104,-1.59622 -1.69115,-2.66567 -3.3084,-3.25495 -1.61732,-0.58945 -4.13909,-0.90723 -7.57729,-0.90723 l -18.51632,0 z m 80.94892,0 -12.21972,36.01892 10.4588,0 6.72351,-19.7971 6.77686,19.7971 10.4588,0 12.21972,-36.01892 -10.4588,0 -6.77687,19.95712 -6.77688,-19.95712 -10.40542,0 z m 42.31542,0 -12.21972,36.01892 11.1525,0 12.21971,-36.01892 -11.15249,0 z m 19.15667,0 -12.21972,36.01892 11.09913,0 2.98823,-8.8047 7.79073,-6.0297 2.56134,14.8344 13.71382,0 -6.08317,-22.41173 17.71592,-13.60719 -14.78106,0 -16.27516,13.60719 4.64242,-13.60719 -11.15248,0 z m 100.53248,0 -12.21971,36.01892 9.07139,0 9.33822,-27.48112 -2.29454,27.48112 8.21762,0 16.38189,-27.48112 -9.33821,27.48112 9.0714,0 12.27308,-36.01892 -14.62097,0 -13.07349,21.93152 1.81429,-21.93152 -14.62097,0 z m 47.59817,0 -12.27307,36.01892 19.21003,0 c 0.8186,0 2.55949,-0.1537 5.17603,-0.4804 1.96569,-0.2455 3.52497,-0.6337 4.64243,-1.1739 1.80092,-0.8678 3.37485,-2.0852 4.74915,-3.5751 1.37422,-1.49 2.35479,-3.1496 2.98822,-5.0159 0.77967,-2.2923 0.81173,-4.1954 0.10672,-5.7098 -0.70508,-1.5144 -2.21305,-2.5795 -4.58907,-3.2017 1.90326,-0.5895 3.46678,-1.3862 4.69578,-2.4012 1.84391,-1.52253 3.1185,-3.36772 3.84201,-5.49623 0.86258,-2.5376 0.63412,-4.6309 -0.64034,-6.3499 -1.27453,-1.71917 -3.62611,-2.61479 -7.09703,-2.61479 l -20.81087,0 z m 39.11376,0 -12.21972,36.01892 11.09914,0 4.96259,-14.5677 12.16635,0 -4.9626,14.5677 11.15249,0 12.27308,-36.01892 -11.20586,0 -4.26889,12.59321 -12.16635,0 4.26889,-12.59321 -11.09912,0 z m -320.96755,7.31057 4.85586,0 c 2.03016,0 3.31652,0.285 3.84201,0.90706 0.52542,0.62223 0.60839,1.50572 0.21345,2.66809 -0.26712,0.78581 -0.71462,1.47531 -1.38739,2.08117 -0.67283,0.60563 -1.45431,0.97313 -2.24118,1.12043 -1.56769,0.3276 -2.58745,0.5336 -3.09495,0.5336 l -4.69578,0 2.50798,-7.31035 z m 290.60503,0 4.90923,0 c 1.68634,0 2.7756,0.31761 3.25503,0.90706 0.47938,0.58944 0.51617,1.40686 0.16,2.45466 -0.38375,1.12969 -1.03847,1.96361 -1.921,2.56134 -0.88262,0.59759 -2.15991,0.90719 -3.89537,0.90719 l -4.85586,0 2.34789,-6.83025 z m -245.835,0.53361 c 2.34122,0 3.9131,0.78429 4.74915,2.3479 0.83598,1.56342 0.67192,4.02814 -0.48026,7.41714 -1.36815,4.0276 -2.9637,6.8223 -4.8025,8.3778 -1.83885,1.5553 -3.95962,2.2944 -6.34998,2.2944 -2.32491,0 -3.88487,-0.7597 -4.69579,-2.3479 -0.81097,-1.588 -0.59477,-4.2095 0.64034,-7.844 1.24633,-3.6675 2.79707,-6.30943 4.69578,-7.89744 1.89866,-1.5882 4.0002,-2.3479 6.24326,-2.3479 z m 241.19258,13.12684 5.60292,0 c 1.9483,0 3.23092,0.3671 3.78864,1.0138 0.55767,0.6466 0.62799,1.4972 0.26681,2.5613 -0.3899,1.1461 -1.06448,2.0421 -2.08108,2.7215 -1.01667,0.6794 -2.51343,1.0138 -4.42898,1.0138 l -5.65629,0 2.50798,-7.3104 z" id="path3517" style="font-size:29.45501709px;font-style:oblique;font-variant:normal;font-weight:900;font-stretch:normal;text-align:start;line-height:125%;letter-spacing:0px;word-spacing:0px;writing-mode:lr-tb;text-anchor:start;fill:#000000;fill-opacity:1;stroke:none;font-family:Arial Black;-inkscape-font-specification:'Arial Black, Heavy Oblique'"/>
  </g>
</svg>