<svg xmlns="http://www.w3.org/2000/svg" id="Layer_1" data-name="Layer 1" viewBox="0 0 128 128"><defs><style>.cls-1,.cls-2{fill:none;stroke-miterlimit:10;stroke-width:2px;}.cls-1{stroke:#3cb4e5;}.cls-2{stroke:#fff;}</style></defs><title>analytics_rapid</title><line class="cls-1" x1="36.93931" y1="33.34567" x2="36.93931" y2="50.49167"></line><line class="cls-1" x1="36.93931" y1="79.63167" x2="36.93931" y2="96.77767"></line><line class="cls-1" x1="47.09831" y1="33.34567" x2="47.09831" y2="50.49167"></line><line class="cls-1" x1="84.05031" y1="56.64367" x2="84.05031" y2="73.78967"></line><line class="cls-1" x1="56.11331" y1="56.64367" x2="56.11331" y2="73.78967"></line><line class="cls-1" x1="94.20931" y1="56.64367" x2="94.20931" y2="73.78967"></line><line class="cls-1" x1="94.33781" y1="33.34567" x2="94.33781" y2="50.49167"></line><rect class="cls-1" x="56.11431" y="34.4558" width="10.159" height="15.56043" rx="5.0795"></rect><rect class="cls-1" x="74.46039" y="34.4558" width="10.159" height="15.56043" rx="5.0795"></rect><rect class="cls-1" x="36.93931" y="57.4403" width="10.159" height="15.56043" rx="5.0795"></rect><rect class="cls-1" x="65.0053" y="57.4403" width="10.159" height="15.56043" rx="5.0795"></rect><rect class="cls-1" x="45.89281" y="80.4248" width="10.159" height="15.56043" rx="5.0795"></rect><rect class="cls-1" x="65.0053" y="80.4248" width="10.159" height="15.56043" rx="5.0795"></rect><rect class="cls-1" x="84.05031" y="80.4248" width="10.159" height="15.56043" rx="5.0795"></rect><polyline class="cls-2" points="10.475 1 1 1 1 10.466"></polyline><polyline class="cls-2" points="117.525 1 127 1 127 10.466"></polyline><polyline class="cls-2" points="117.525 127 127 127 127 117.534"></polyline><polyline class="cls-2" points="10.475 127 1 127 1 117.534"></polyline></svg>