<?xml version="1.0" ?><svg id="Line" style="enable-background:new 0 0 128 128;" version="1.1" viewBox="0 0 128 128" xml:space="preserve" xmlns="http://www.w3.org/2000/svg" xmlns:xlink="http://www.w3.org/1999/xlink"><g><path d="M127,30v-2c0-1.103-0.897-2-2-2h-8l-58-0.006c-2.199,0-3.993,1.796-4,4.006v3h-2v-4c0-1.654-1.346-3-3-3H38   c-1.654,0-3,1.346-3,3v4h-2v-2c0-1.302-0.839-2.402-2-2.816V27c0-1.654-1.346-3-3-3h-6c-1.654,0-3,1.346-3,3v1.184   c-1.161,0.414-2,1.514-2,2.816v2h-2v-1c0-1.654-1.346-3-3-3H8c-1.654,0-3,1.346-3,3v1.101C2.721,33.566,1,35.586,1,38v64   c0,2.757,2.243,5,5,5h116c2.757,0,5-2.243,5-5V49V37c0-1.302-0.839-2.402-2-2.816V32C126.103,32,127,31.103,127,30z M125,30h-7v-2   h7V30z M124,36c0.552,0,1,0.448,1,1v11h-7V36H124z M3,50h38.772C38.156,54.717,36,60.61,36,67c0,15.439,12.561,28,28,28   c13.732,0,25.179-9.939,27.544-23H94c2.757,0,5-2.243,5-5s-2.243-5-5-5h-2.456c-0.807-4.454-2.666-8.543-5.316-12H117h8v48H3V50z    M90,67c0,14.337-11.663,26-26,26S38,81.337,38,67s11.663-26,26-26S90,52.663,90,67z M91.837,64H94c1.654,0,3,1.346,3,3   s-1.346,3-3,3h-2.163C91.943,69.014,92,68.014,92,67S91.943,64.986,91.837,64z M51,29v4h-2v-5h1C50.552,28,51,28.448,51,29z M45,33   v-5h2v5H45z M41,33v-5h2v5H41z M37,29c0-0.552,0.448-1,1-1h1v5h-2V29z M22,26h6c0.552,0,1,0.448,1,1v1h-8v-1   C21,26.448,21.448,26,22,26z M19,31c0-0.552,0.448-1,1-1h10c0.552,0,1,0.448,1,1v2H19V31z M8,31h4c0.552,0,1,0.448,1,1v1H7v-1   C7,31.448,7.448,31,8,31z M6,35h50c0.553,0,1-0.447,1-1v-3.997c0.003-1.107,0.9-2.009,2-2.009L116,28v20H84.543   C79.425,42.47,72.111,39,64,39s-15.425,3.47-20.543,9H3V38C3,36.346,4.346,35,6,35z M122,105H6c-1.654,0-3-1.346-3-3v-2h122v2   C125,103.654,123.654,105,122,105z M123,34h-5v-2h5V34z"/><path d="M94,46h16c1.654,0,3-1.346,3-3V33c0-1.654-1.346-3-3-3H94c-1.654,0-3,1.346-3,3v10C91,44.654,92.346,46,94,46z M93,33   c0-0.552,0.448-1,1-1h16c0.552,0,1,0.448,1,1v10c0,0.552-0.448,1-1,1H94c-0.552,0-1-0.448-1-1V33z"/><path d="M97,42h10c1.103,0,2-0.897,2-2v-4c0-1.103-0.897-2-2-2H97c-1.103,0-2,0.897-2,2v4C95,41.103,95.897,42,97,42z M97,36h10   l-0.003,4H97V36z"/><path d="M10,46h6c1.654,0,3-1.346,3-3v-3c0-1.654-1.346-3-3-3h-6c-1.654,0-3,1.346-3,3v3C7,44.654,8.346,46,10,46z M9,40   c0-0.552,0.448-1,1-1h6c0.552,0,1,0.448,1,1v3c0,0.552-0.448,1-1,1h-6c-0.552,0-1-0.448-1-1V40z"/><path d="M115,76c-4.411,0-8,3.589-8,8s3.589,8,8,8s8-3.589,8-8S119.411,76,115,76z M115,90c-3.309,0-6-2.691-6-6s2.691-6,6-6   s6,2.691,6,6S118.309,90,115,90z"/><path d="M115,80c-2.206,0-4,1.794-4,4s1.794,4,4,4s4-1.794,4-4S117.206,80,115,80z M115,86c-1.103,0-2-0.897-2-2s0.897-2,2-2   s2,0.897,2,2S116.103,86,115,86z"/><path d="M12.5,52C10.019,52,8,54.019,8,56.5v31c0,2.481,2.019,4.5,4.5,4.5s4.5-2.019,4.5-4.5v-31C17,54.019,14.981,52,12.5,52z    M15,87.5c0,1.379-1.121,2.5-2.5,2.5S10,88.879,10,87.5v-31c0-1.379,1.121-2.5,2.5-2.5s2.5,1.121,2.5,2.5V87.5z"/><path d="M64,43c-13.233,0-24,10.767-24,24s10.767,24,24,24s24-10.767,24-24S77.233,43,64,43z M64,89c-12.131,0-22-9.869-22-22   s9.869-22,22-22s22,9.869,22,22S76.131,89,64,89z"/><path d="M64,50c-9.374,0-17,7.626-17,17s7.626,17,17,17s17-7.626,17-17S73.374,50,64,50z M64,82c-8.271,0-15-6.729-15-15   s6.729-15,15-15s15,6.729,15,15S72.271,82,64,82z"/><path d="M64,57c-5.514,0-10,4.486-10,10s4.486,10,10,10s10-4.486,10-10S69.514,57,64,57z M64,75c-4.411,0-8-3.589-8-8s3.589-8,8-8   s8,3.589,8,8S68.411,75,64,75z"/></g></svg>