<?xml version="1.0" encoding="utf-8"?>
<!-- Generator: Adobe Illustrator 19.2.1, SVG Export Plug-In . SVG Version: 6.00 Build 0)  -->
<svg version="1.1" id="layer" xmlns="http://www.w3.org/2000/svg" xmlns:xlink="http://www.w3.org/1999/xlink" x="0px" y="0px"
	 viewBox="0 0 652 652" style="enable-background:new 0 0 652 652;" xml:space="preserve">
<style type="text/css">
	.st0{fill:#0081AA;}
</style>
<g id="Layer_2">
	<g id="Artwork">
		<path class="st0" d="M53.9,296.5v123.6h-9.8V296.5H26V287h18.1v-9.3c0-29.5,16.8-48.3,45.5-45.8v8.8
			c-25.1-1.6-35.7,13.8-35.7,37.7v8.5h35.7v9.6H53.9z"/>
		<path class="st0" d="M116,264.5h-9.6v-23.8h9.6V264.5z M116,420.1h-9.6V287h9.6V420.1z"/>
		<path class="st0" d="M256.1,420.1h-9.6v-80.4c0-29.2-15.8-46.8-45-46.8c-26.8,0-47.8,19.9-47.8,46.8v80.4h-9.6V287h9.6v22.5
			c9.6-15.8,26.8-25.8,48.2-25.8c34.1,0,54.3,21.4,54.3,56.3L256.1,420.1z"/>
		<path class="st0" d="M383.9,420.1c-2.6-6.1-3.9-12.7-3.6-19.4v-2.7c-10.7,15-31,24.3-57.4,24.3c-23.3,0-48.3-11.7-48.3-37.2
			c0-30.3,28.2-37.2,56.6-39.8c29.5-2.8,49.1-5.9,49.1-22.2c0-24.6-23.3-30.3-42.9-30.3c-24.3,0-40.3,10.1-46,28.2h-9.9
			c5.9-23.8,25.8-37.5,55.8-37.5c33.3,0,52.5,14.5,52.5,39.6v75.3c0.1,7.4,1.5,14.7,3.9,21.7H383.9z M380.3,341.3
			c-10.3,9.6-29.7,11.4-48.2,12.9c-34.1,3.4-47.3,12.4-47.3,30.8c0,22,24.8,27.9,38,27.9c28.7,0,57.4-12.9,57.4-41.1L380.3,341.3z"
			/>
		<path class="st0" d="M427.8,420.1h-9.6V227.7h9.6V420.1z"/>
		<path class="st0" d="M458,353.4c0.2,34.7,26.1,60.3,58.4,60.3c31.3,0,45.5-17.3,52-34.8h10.1c-9.3,28.6-30.8,44.4-62.1,44.4
			c-38,0-68-30.5-68-69.3s29.7-70.3,66.5-70.3c39.8,0,67,36.2,66.5,69.8L458,353.4z M571,343.8c-4.7-28.7-28.2-50.4-56.1-50.4
			c-27.9,0-51.5,21.7-55.8,50.4H571z"/>
		<path class="st0" d="M611,423.1c-8.3,0-15-6.7-15-15c0-8.3,6.7-15,15-15c8.3,0,15,6.7,15,15v0l0,0
			C626,416.3,619.3,423.1,611,423.1z M611,395.9c-6.7-0.1-12.3,5.2-12.4,11.9c-0.1,6.7,5.2,12.3,11.9,12.4s12.3-5.2,12.4-11.9
			c0,0,0,0,0,0c0-0.1,0-0.2,0-0.2c0.1-6.6-5.2-12.1-11.8-12.2c0,0,0,0,0,0L611,395.9z M614.2,416.1l-3.3-6.4h-2.1v6.4h-3v-16.1h6.1
			c2.8-0.1,5.1,2.1,5.2,4.8v0.1c0,2-1.3,3.8-3.2,4.4l3.6,6.8L614.2,416.1z M611.5,402.5h-2.7v4.9h2.7c1.3,0,2.4-1.1,2.4-2.4
			C613.9,403.6,612.8,402.5,611.5,402.5C611.5,402.5,611.5,402.5,611.5,402.5z"/>
	</g>
</g>
</svg>
