<?xml version="1.0" encoding="iso-8859-1"?>
<!-- Uploaded to: SVG Repo, www.svgrepo.com, Generator: SVG Repo Mixer Tools -->
<svg fill="#000000" height="800px" width="800px" version="1.1" id="Capa_1" xmlns="http://www.w3.org/2000/svg" xmlns:xlink="http://www.w3.org/1999/xlink" 
	 viewBox="0 0 490 490" xml:space="preserve">
<g>
	<g>
		<g>
			<path d="M0.75,1.2V490h168V1.2H0.75z M84.75,440.2c-22.9,0-41.6-18.7-41.6-41.6s18.6-41.6,41.6-41.6s41.6,18.7,41.6,41.6
				S107.65,440.2,84.75,440.2z M130.65,210.4h-92.2V46.7h92.2V210.4z"/>
			<path d="M349.15,0l-151.6,48.2l140,441.8l151.7-48.2L349.15,0z M291.65,226.7l-47.1-147.8l83.2-26.4l47.1,147.8L291.65,226.7z
				 M398.95,420.8c-20.6,6.6-42.8-5.1-49.4-25.7s5.1-42.8,25.7-49.4s42.8,5.1,49.4,25.7C431.25,392.4,419.95,414.6,398.95,420.8z"/>
		</g>
	</g>
</g>
</svg>