<?xml version="1.0" encoding="UTF-8" standalone="no"?>
<svg
   width="755.89978"
   height="853.95184"
   viewBox="0 0 755.8998 853.95185"
   fill="none"
   version="1.1"
   id="svg26"
   xmlns="http://www.w3.org/2000/svg"
   xmlns:svg="http://www.w3.org/2000/svg">
  <defs
     id="defs26" />
  <path
     d="M 0,0 V 755.90166 H 755.8998 V 0 Z M 58.04054,689.96266 V 57.69695 c 349.27256,0 632.26516,282.98904 632.26516,632.26571 z M 690.6461,218.76665 H 529.5774 V 57.69695 h 161.0687 z"
     fill="#b49759"
     id="path14"
     style="stroke-width:45.3908" />
  <path
     fill-rule="evenodd"
     clip-rule="evenodd"
     d="m 116.78525,831.96856 23.57812,0.028 0.0285,-22.6703 z m 44.60288,19.3788 -21.64913,-0.028 c -2.6385,-4.2843 -10.61138,-8.2852 -18.24375,-8.0013 -8.3985,0 -16.797,4.71 -21.36525,7.9728 l -27.09638,-0.029 66.30826,-59.3284 22.10287,0.028 -0.0566,56.7182 z"
     fill="#F6F6F6"
     id="path15"
     style="fill:#84898b;fill-opacity:1;stroke-width:3.75" />
  <path
     d="m 189.90163,820.84376 v 1.1351 c 0,7.6324 4.99387,16.5698 19.09537,16.5698 15.86062,0 17.7615,-8.5118 17.96025,-10.2428 l 0.0566,-0.4822 18.35775,0.028 v 0.7942 c 0,12.087 -9.108,24.9968 -34.6155,24.9687 h -3.77362 c -12.62625,0 -22.188,-3.6034 -28.42988,-10.6969 -6.35587,-7.1783 -7.29225,-15.7189 -7.29225,-20.1735 v -2.4401 c 0,-4.4828 0.96488,-13.0515 7.32038,-20.0882 6.21375,-6.8947 15.804,-10.3846 28.43025,-10.3846 h 3.77362 c 11.83162,0 20.91113,2.6671 26.95463,7.8594 4.90838,4.2276 7.63238,10.1859 7.63238,16.7686 v 0.7095 l -18.35776,-0.028 -0.0566,-0.4541 c -0.14175,-1.0211 -1.87275,-9.8453 -18.01688,-9.8738 -5.703,0.057 -19.01024,1.5889 -19.03874,16.0309 z"
     fill="#F6F6F6"
     id="path16"
     style="fill:#84898b;fill-opacity:1;stroke-width:3.75" />
  <path
     d="m 324.58887,800.07546 c -6.43875,-6.7528 -16.3125,-10.186 -29.33625,-10.2144 h -3.60375 c -13.02375,0 -22.8975,3.4048 -29.36625,10.186 -4.995,5.2492 -7.77375,12.4841 -7.77375,20.3722 v 2.4398 c 0,14.9527 9.73125,30.8985 37.08375,30.927 h 3.60375 c 27.37875,0.029 37.14,-15.9173 37.14,-30.87 v -2.4402 c 0,-7.9162 -2.7525,-15.1515 -7.7475,-20.4004 z m -31.18125,38.6446 c -18.35625,-0.028 -20.31375,-11.5482 -20.31375,-16.5135 v -1.1348 c 0,-14.13 12.73875,-16.2296 20.34001,-16.2011 16.79999,0.028 20.31749,8.8522 20.31749,16.2577 v 1.1352 c -0.03,6.1567 -2.66625,16.4846 -20.34375,16.4565 z"
     fill="#F6F6F6"
     id="path17"
     style="fill:#84898b;fill-opacity:1;stroke-width:3.75" />
  <path
     d="m 410.44885,791.38996 -0.03,31.4661 c 0,14.0163 -5.73,30.7567 -32.88378,30.7282 h -2.32875 c -12.99375,0 -22.30125,-3.6885 -27.63375,-10.8952 -3.66,-4.9373 -5.41875,-11.463 -5.41875,-19.8897 l 0.0263,-31.4661 17.535,0.029 -0.0262,31.0687 c 0,10.8102 5.38874,16.0594 16.48499,16.0875 h 0.3975 c 7.005,0 16.3425,-1.6455 16.36875,-16.059 l 0.03,-31.0689 z"
     fill="#F6F6F6"
     id="path18"
     style="fill:#84898b;fill-opacity:1;stroke-width:3.75" />
  <path
     d="m 488.1339,832.08066 v 0.993 c 0,14.0164 -10.44375,20.826 -31.89375,20.7975 h -2.38125 c -26.75625,-0.028 -32.37375,-10.2428 -32.3475,-19.7194 v -1.4467 l 19.38,0.028 0.0562,0.4822 c 0.1725,2.043 0.73875,8.0299 13.7625,8.0299 h 0.56625 c 12.1425,0 13.7887,-4.2277 13.7887,-7.5472 0,-3.2629 -1.9837,-5.3625 -11.9137,-5.76 l -8.08875,-0.2554 c -22.21505,-0.7376 -26.86875,-10.3845 -26.86875,-18.3289 v -0.738 c 0,-7.9727 3.20625,-18.5559 30.83995,-18.5275 h 2.7825 c 21.2513,0.028 32.4863,5.0788 32.4863,17.5915 v 1.4468 l -19.095,-0.028 -0.0562,-0.4541 c -0.285,-1.8728 -2.2988,-6.0435 -14.4713,-6.0435 h -0.8212 c -10.6125,0 -12.79875,2.5252 -12.79875,5.4476 0,2.355 1.335,4.8517 11.26495,5.2773 l 8.4263,0.3405 c 19.18125,0.8232 27.3825,6.3274 27.3825,18.4144 z"
     fill="#F6F6F6"
     id="path19"
     style="fill:#84898b;fill-opacity:1;stroke-width:3.75" />
  <path
     d="m 755.6064,832.16126 v 0.993 c 0,14.0164 -10.44,20.826 -31.89,20.7975 h -2.385 c -26.7525,-0.028 -32.3737,-10.2427 -32.3438,-19.7194 v -1.4471 l 19.3801,0.029 0.056,0.4823 c 0.1687,2.043 0.7387,8.0298 13.7587,8.0298 h 0.5701 c 12.1425,0 13.7887,-4.2277 13.7887,-7.5472 0,-3.2633 -1.9875,-5.3629 -11.9175,-5.76 l -8.085,-0.2554 c -22.2188,-0.7376 -26.8687,-10.3845 -26.8687,-18.3289 v -0.738 c 0,-7.9727 3.2062,-18.556 30.84,-18.5276 h 2.7825 c 21.2512,0.028 32.4862,5.0788 32.4862,17.5913 v 1.4471 l -19.095,-0.028 -0.056,-0.4542 c -0.285,-1.8727 -2.2988,-6.0435 -14.4713,-6.0435 h -0.825 c -10.6087,0 -12.795,2.5253 -12.795,5.4477 0,2.355 1.335,4.8517 11.265,5.2773 l 8.4262,0.3405 c 19.1813,0.8228 27.3788,6.3274 27.3788,18.4144 z"
     fill="#F6F6F6"
     id="path20"
     style="fill:#84898b;fill-opacity:1;stroke-width:3.75" />
  <path
     d="m 562.4139,792.07116 -0.0265,14.4705 -23.55,-0.028 -0.0562,46.6174 -17.85,-0.029 0.03,-46.6174 h -23.55 v -14.4703 z"
     fill="#F6F6F6"
     id="path21"
     style="fill:#84898b;fill-opacity:1;stroke-width:3.75" />
  <path
     d="m 592.94635,792.10226 h -17.9325 v 61.0594 h 17.9325 z"
     fill="#F6F6F6"
     id="path22"
     style="fill:#84898b;fill-opacity:1;stroke-width:3.75" />
  <path
     d="m 623.6439,820.90226 v 1.1351 c 0,7.6324 4.9949,16.5698 19.095,16.5698 15.8625,0 17.76,-8.5118 17.9588,-10.2428 l 0.06,-0.4822 18.3563,0.029 v 0.7942 c 0,12.087 -9.1087,24.9972 -34.6163,24.9687 h -3.7725 c -12.6262,0 -22.1887,-3.6034 -28.4287,-10.6969 -6.35625,-7.1783 -7.29375,-15.7185 -7.29375,-20.1731 v -2.4402 c 0,-4.4831 0.96375,-13.0518 7.32,-20.0883 6.21375,-6.8948 15.80245,-10.3847 28.42875,-10.3847 h 3.7762 c 11.8313,0 20.9101,2.6671 26.9551,7.8594 4.9087,4.2276 7.6312,10.1861 7.6312,16.7685 v 0.7095 l -18.3563,-0.029 -0.06,-0.4537 c -0.1388,-1.0215 -1.8713,-9.8457 -18.015,-9.8742 -5.73,0.057 -19.0089,1.6174 -19.0388,16.0309 z"
     fill="#F6F6F6"
     id="path23"
     style="fill:#84898b;fill-opacity:1;stroke-width:3.75" />
  <path
     d="m 82.05537,823.82386 -44.88675,-0.028 v -14.8106 l 62.90363,0.057 z"
     fill="#F6F6F6"
     id="path24"
     style="fill:#84898b;fill-opacity:1;stroke-width:3.75" />
  <path
     fill-rule="evenodd"
     clip-rule="evenodd"
     d="m 56.60487,836.67966 -0.51074,15.123 -56.09401,-0.029 0.0285,-59.3569 21.67725,0.029 -0.0285,44.1489"
     fill="#F6F6F6"
     id="path26"
     style="fill:#84898b;fill-opacity:1;stroke-width:3.75" />
</svg>
