<svg width='24' height='24' viewBox='0 0 24 24' xmlns='http://www.w3.org/2000/svg' xmlns:xlink='http://www.w3.org/1999/xlink'><rect width='24' height='24' stroke='none' fill='#000000' opacity='0'/>


<g transform="matrix(0.4 0 0 0.4 12 12)" >
<path style="stroke: none; stroke-width: 1; stroke-dasharray: none; stroke-linecap: butt; stroke-dashoffset: 0; stroke-linejoin: miter; stroke-miterlimit: 4; fill: rgb(0,0,0); fill-rule: nonzero; opacity: 1;" transform=" translate(-25, -25)" d="M 1.1230469 5.0078125 C 0.83704687 4.9738125 0.55289063 5.061 0.33789062 5.25 C 0.12289063 5.44 -3.7007434e-17 5.713 0 6 L 0 15.992188 C 0 16.515187 0.40182812 16.948281 0.92382812 16.988281 L 13.923828 17.984375 C 14.503828 18.029375 15 17.571281 15 16.988281 L 15 8.8164062 C 15 8.3124062 14.623047 7.8872187 14.123047 7.8242188 L 1.1230469 5.0078125 z M 48.876953 5.0078125 L 35.876953 7.8242188 C 35.376953 7.8872187 35 8.3124063 35 8.8164062 L 35 16.986328 C 35 17.568328 35.496172 18.026422 36.076172 17.982422 L 49.076172 16.988281 C 49.597172 16.949281 50 16.515187 50 15.992188 L 50 6 C 50 5.713 49.877109 5.44 49.662109 5.25 C 49.448109 5.061 49.162953 4.9738125 48.876953 5.0078125 z M 18 8 C 17.448 8 17 8.4460469 17 8.9980469 L 17 16.998047 C 17 17.550047 17.448 17.998047 18 17.998047 L 32 18 C 32.552 18 33 17.553953 33 17.001953 L 33 8.9980469 C 33 8.4460469 32.552 8 32 8 L 18 8 z M 1.0625 19.005859 C 0.4875 18.969859 0 19.426906 0 20.003906 L 0 29.996094 C 0 30.573094 0.4875 31.030141 1.0625 30.994141 L 14.0625 29.998047 C 14.5895 29.965047 15 29.528 15 29 L 15 21 C 15 20.472 14.5895 20.034953 14.0625 20.001953 L 1.0625 19.005859 z M 48.9375 19.005859 L 35.9375 20 C 35.4105 20.033 35 20.470047 35 20.998047 L 35 29 C 35 29.528 35.4105 29.965047 35.9375 29.998047 L 48.9375 30.994141 C 49.5125 31.030141 50 30.573094 50 29.996094 L 50 20.003906 C 50 19.426906 49.5125 18.969859 48.9375 19.005859 z M 32 20 L 18 20.001953 C 17.448 20.001953 17 20.449953 17 21.001953 L 17 29 C 17 29.552 17.448 30 18 30 L 32 29.998047 C 32.552 29.998047 33 29.550047 33 28.998047 L 33 21 C 33 20.448 32.552 20 32 20 z M 32 32 L 18 32.001953 C 17.448 32.001953 17 32.449953 17 33.001953 L 17 41.001953 C 17 41.553953 17.448 42 18 42 L 32 42 C 32.552 42 33 41.553953 33 41.001953 L 33 32.998047 C 33 32.446047 32.552 32 32 32 z M 13.923828 32.013672 L 0.92382812 33.011719 C 0.40182812 33.051719 7.4014868e-17 33.484813 0 34.007812 L 0 44.001953 C 0 44.288953 0.12289063 44.561953 0.33789062 44.751953 C 0.55289062 44.940953 0.83704687 45.028141 1.1230469 44.994141 L 14.123047 42.177734 C 14.623047 42.114734 15 41.690547 15 41.185547 L 15 33.011719 C 15 32.429719 14.503828 31.968672 13.923828 32.013672 z M 36.076172 32.015625 C 35.496172 31.970625 35 32.428719 35 33.011719 L 35 41.185547 C 35 41.689547 35.376953 42.115734 35.876953 42.177734 L 48.876953 44.994141 C 49.162953 45.028141 49.447109 44.940953 49.662109 44.751953 C 49.877109 44.561953 50 44.288953 50 44.001953 L 50 34.007812 C 50 33.484812 49.598172 33.051719 49.076172 33.011719 L 36.076172 32.015625 z" stroke-linecap="round" />
</g>
</svg>