<?xml version="1.0" standalone="no"?>
<!DOCTYPE svg PUBLIC "-//W3C//DTD SVG 20010904//EN"
 "http://www.w3.org/TR/2001/REC-SVG-20010904/DTD/svg10.dtd">
<svg version="1.0" xmlns="http://www.w3.org/2000/svg"
 width="1024.000000pt" height="1536.000000pt" viewBox="0 0 1024.000000 1536.000000"
 preserveAspectRatio="xMidYMid meet">

<g transform="translate(0.000000,1536.000000) scale(0.100000,-0.100000)"
fill="#000000" stroke="none">
<path d="M1772 12358 c-296 -37 -572 -171 -782 -380 -192 -190 -316 -421 -382
-706 l-23 -97 -3 -3425 c-3 -3131 -1 -3434 14 -3525 56 -347 244 -663 511
-864 172 -129 372 -221 583 -267 82 -18 205 -19 3420 -19 l3335 0 105 23 c622
137 1037 600 1100 1224 8 82 10 1030 8 3488 -4 3164 -5 3380 -21 3460 -56 268
-182 506 -372 696 -191 191 -409 309 -700 377 l-90 22 -3315 1 c-1971 1 -3345
-2 -3388 -8z m6630 -259 c458 -50 831 -369 957 -819 l26 -95 3 -3410 c2 -2422
0 -3435 -8 -3495 -6 -47 -27 -132 -46 -190 -110 -331 -355 -580 -677 -690
-173 -59 68 -55 -3532 -55 -3199 0 -3323 1 -3405 19 -415 90 -715 372 -837
786 l-28 95 -3 3443 c-2 3342 -2 3446 17 3535 77 378 364 704 721 820 73 24
224 54 305 60 22 2 1472 4 3222 5 2278 2 3211 -1 3285 -9z"/>
<path d="M7149 11617 c-20 -8 -49 -23 -65 -34 -16 -12 -295 -288 -620 -615
-625 -627 -634 -638 -634 -729 0 -85 28 -122 304 -400 l259 -262 -459 -456
c-252 -250 -812 -807 -1244 -1237 l-785 -782 -59 -17 c-77 -23 -152 -15 -214
21 -28 16 -206 186 -434 412 -344 343 -389 391 -404 434 -18 55 -13 109 15
154 10 16 137 151 282 299 326 334 1740 1793 1943 2005 164 170 206 227 237
315 79 226 -20 465 -238 568 l-68 32 -1510 0 -1510 0 -57 -27 c-99 -46 -189
-144 -222 -241 -15 -44 -16 -298 -16 -3009 0 -1629 1 -2963 3 -2964 9 -9 123
-16 171 -10 l56 7 0 2932 c0 2824 1 2933 19 2972 10 22 28 48 39 58 53 47 9
46 1527 46 1366 1 1432 0 1470 -18 82 -38 128 -107 128 -197 0 -79 -29 -125
-180 -284 -119 -126 -1289 -1339 -2000 -2074 -211 -218 -248 -261 -280 -325
-37 -73 -38 -78 -38 -186 0 -106 1 -113 34 -180 30 -59 65 -101 235 -274 111
-112 298 -297 416 -410 184 -176 227 -213 296 -248 50 -26 104 -46 144 -52
113 -18 247 13 349 81 25 17 600 584 1277 1259 677 676 1235 1229 1240 1229 5
0 124 -115 264 -256 163 -163 269 -263 295 -275 54 -25 137 -24 195 2 34 15
187 162 638 612 639 638 642 642 642 742 0 104 -4 109 -639 748 -322 324 -604
600 -627 613 -51 30 -126 39 -175 21z m1171 -1382 c0 -5 -249 -259 -552 -562
l-553 -553 -557 557 -558 558 557 557 558 558 552 -552 c304 -304 553 -557
553 -563z"/>
<path d="M7970 8514 c-30 -8 -84 -28 -120 -45 -61 -28 -148 -114 -1298 -1267
-678 -680 -1253 -1263 -1277 -1295 -68 -90 -89 -153 -89 -272 0 -80 5 -111 23
-158 42 -108 169 -218 301 -263 53 -18 108 -19 1391 -17 1331 2 1336 2 1392
23 66 25 147 94 183 156 56 95 54 44 54 1429 0 848 -4 1302 -11 1345 -42 260
-299 430 -549 364z m155 -225 c61 -15 129 -77 152 -137 17 -45 18 -112 18
-1327 0 -1262 0 -1280 -20 -1314 -11 -19 -33 -43 -48 -55 l-28 -21 -1297 -3
c-958 -2 -1308 0 -1339 9 -51 14 -115 66 -137 113 -23 48 -20 121 6 175 16 35
313 339 1247 1274 674 676 1241 1238 1259 1249 33 20 104 46 130 47 7 1 33 -4
57 -10z"/>
<path d="M3463 6175 c-77 -21 -124 -48 -170 -97 -50 -55 -68 -104 -67 -188 1
-77 24 -131 80 -179 53 -47 103 -66 271 -101 176 -38 219 -57 240 -108 34 -81
-9 -168 -97 -197 -69 -23 -229 -18 -283 9 -46 23 -85 77 -93 129 l-7 37 -70 0
-70 0 6 -55 c10 -99 77 -182 187 -234 51 -24 65 -26 200 -26 139 0 148 1 208
29 111 51 182 155 182 265 0 156 -82 222 -350 281 -228 50 -260 72 -260 179 0
67 32 105 108 127 146 43 307 -21 328 -131 l6 -35 69 0 c67 0 69 1 69 25 0 47
-40 131 -82 174 -93 95 -262 134 -405 96z"/>
<path d="M2475 6167 c-126 -32 -235 -120 -289 -231 -81 -169 -69 -414 29 -576
44 -72 86 -111 160 -149 77 -38 131 -50 225 -51 227 0 387 129 446 360 23 90
15 270 -15 357 -44 123 -145 230 -258 273 -71 28 -223 36 -298 17z m260 -147
c138 -60 211 -253 174 -455 -21 -112 -79 -199 -163 -243 -45 -24 -62 -27 -146
-27 -87 0 -100 3 -148 30 -121 66 -181 205 -169 388 12 187 101 301 254 327
64 10 149 2 198 -20z"/>
<path d="M4449 6166 c-113 -33 -221 -121 -274 -226 -35 -69 -55 -166 -55 -270
0 -313 176 -510 455 -510 184 1 329 89 384 233 34 93 33 97 -47 97 l-67 0 -18
-49 c-42 -119 -195 -180 -343 -136 -138 41 -223 202 -211 400 9 160 71 268
179 315 67 30 172 33 239 7 56 -21 116 -81 134 -133 l13 -39 67 -3 68 -3 -6
50 c-8 68 -36 118 -96 174 -82 77 -145 101 -271 104 -65 1 -123 -3 -151 -11z"/>
<path d="M1755 4749 c-65 -16 -129 -70 -161 -136 -25 -50 -29 -69 -29 -143 1
-72 5 -93 28 -136 53 -104 141 -151 262 -142 112 9 187 71 221 184 43 143 -21
312 -136 358 -52 21 -135 27 -185 15z m150 -78 c74 -34 107 -95 106 -202 0
-166 -137 -263 -273 -193 -131 68 -130 323 1 391 53 28 112 29 166 4z"/>
<path d="M5690 4648 l0 -111 -24 22 c-43 41 -123 47 -187 15 -90 -45 -125
-184 -73 -290 46 -93 176 -123 254 -58 l30 26 0 -26 c0 -23 4 -26 35 -26 l35
0 0 280 0 280 -35 0 -35 0 0 -112z m-44 -139 c36 -33 49 -92 35 -155 -15 -65
-46 -95 -105 -101 -42 -5 -48 -3 -80 29 -92 92 -31 269 87 254 22 -2 50 -15
63 -27z"/>
<path d="M3687 4729 c-73 -39 -100 -136 -57 -206 25 -41 54 -56 170 -82 106
-24 130 -40 130 -85 0 -122 -198 -144 -249 -28 -12 27 -20 32 -48 32 -39 0
-42 -13 -14 -68 35 -69 94 -101 186 -101 123 0 197 64 197 169 0 88 -35 116
-184 150 -78 17 -102 27 -118 47 -26 34 -25 66 3 99 19 22 34 28 78 31 64 5
115 -21 132 -67 10 -25 17 -30 45 -30 34 0 34 1 28 33 -8 44 -35 78 -82 104
-53 30 -162 31 -217 2z"/>
<path d="M6220 4734 c-90 -39 -141 -122 -148 -240 -6 -110 15 -172 78 -235 52
-52 95 -69 175 -69 117 0 189 49 219 148 7 20 4 22 -31 22 -33 0 -40 -5 -53
-33 -22 -46 -96 -81 -153 -73 -88 13 -137 65 -158 166 -15 70 0 148 37 197 30
39 93 72 139 73 48 0 118 -40 135 -77 13 -28 20 -33 53 -33 35 0 38 2 31 23
-20 65 -57 107 -116 132 -48 19 -162 19 -208 -1z"/>
<path d="M8550 4475 l0 -275 30 0 30 0 0 275 0 275 -30 0 -30 0 0 -275z"/>
<path d="M7570 4650 l0 -70 -40 0 c-36 0 -40 -2 -40 -25 0 -22 4 -25 40 -25
l40 0 0 -145 c0 -142 1 -147 25 -170 20 -21 34 -25 80 -25 54 0 55 0 55 29 0
28 -3 30 -42 33 l-43 3 -5 138 -5 137 51 0 c46 0 51 2 50 23 -1 19 -8 23 -50
27 l-50 5 3 68 2 67 -35 0 -36 0 0 -70z"/>
<path d="M2322 4590 c-18 -4 -44 -18 -58 -31 l-24 -22 0 21 c0 18 -6 22 -35
22 l-35 0 0 -275 0 -275 35 0 35 0 0 110 0 110 20 -20 c84 -84 234 -33 276 93
52 155 -66 302 -214 267z m88 -65 c108 -56 72 -275 -45 -275 -56 0 -91 23
-110 75 -51 131 47 256 155 200z"/>
<path d="M4245 4595 c-5 -2 -22 -6 -37 -9 -41 -9 -95 -61 -114 -111 -39 -104
1 -221 91 -265 121 -59 255 19 271 157 11 87 -29 174 -95 207 -27 14 -98 27
-116 21z m71 -70 c39 -16 74 -77 74 -130 0 -108 -110 -182 -184 -124 -78 61
-74 200 6 249 39 24 57 25 104 5z"/>
<path d="M5117 4586 c-21 -8 -47 -22 -58 -32 -18 -16 -19 -16 -19 4 0 18 -6
22 -33 22 l-32 0 0 -190 0 -190 33 0 32 0 0 115 c0 128 11 169 55 203 37 29
80 28 110 -3 24 -23 25 -28 25 -170 l0 -145 35 0 35 0 0 145 c0 103 -4 156
-14 180 -24 56 -103 84 -169 61z"/>
<path d="M6805 4595 c-5 -2 -22 -6 -37 -9 -93 -21 -154 -159 -116 -267 35
-102 146 -156 245 -118 149 56 165 302 23 374 -26 13 -98 25 -115 20z m74 -69
c37 -20 60 -57 67 -110 13 -89 -41 -166 -115 -166 -129 0 -168 212 -50 272 41
22 62 22 98 4z"/>
<path d="M7252 4590 c-18 -4 -44 -18 -58 -31 l-24 -22 0 21 c0 18 -6 22 -35
22 l-35 0 0 -190 0 -190 34 0 34 0 4 134 c3 118 6 138 24 163 24 32 71 49 109
39 43 -11 55 -57 55 -206 l0 -130 36 0 36 0 -3 153 c-3 125 -7 158 -22 180
-32 50 -91 71 -155 57z"/>
<path d="M7970 4590 c-19 -5 -45 -20 -57 -35 l-23 -26 0 25 c0 23 -4 26 -35
26 l-35 0 0 -190 0 -190 35 0 35 0 0 114 c0 63 5 127 11 143 18 49 48 73 91
73 38 0 39 1 36 32 -3 36 -10 39 -58 28z"/>
<path d="M8223 4590 c-44 -10 -76 -33 -109 -75 -39 -52 -46 -154 -14 -220 52
-108 198 -140 287 -62 107 94 93 281 -27 342 -34 17 -98 24 -137 15z m92 -64
c76 -32 97 -157 40 -232 -38 -50 -111 -57 -159 -15 -68 60 -59 195 16 241 39
24 57 25 103 6z"/>
<path d="M2689 4567 c-73 -49 -102 -134 -79 -234 21 -97 101 -152 204 -139 57
6 90 27 124 76 30 45 28 60 -8 60 -23 0 -33 -6 -42 -26 -23 -50 -100 -69 -157
-39 -28 14 -36 25 -51 77 l-8 27 146 3 147 3 3 38 c5 57 -30 122 -82 152 -58
34 -148 35 -197 2z m159 -47 c30 -18 52 -54 52 -83 0 -9 -30 -11 -110 -9 -64
2 -110 7 -110 13 0 23 32 70 58 83 37 21 71 19 110 -4z"/>
<path d="M3153 4564 c-32 -25 -33 -25 -33 -5 0 17 -6 21 -35 21 l-35 0 0 -190
0 -190 34 0 34 0 4 133 c3 107 7 137 21 159 21 31 77 53 112 44 44 -11 55 -51
55 -201 l0 -135 35 0 35 0 0 140 c0 155 -9 192 -55 228 -41 33 -129 31 -172
-4z"/>
<path d="M4542 4428 c2 -130 6 -157 22 -181 48 -71 144 -77 214 -14 l22 20 0
-26 c0 -24 4 -27 35 -27 l35 0 0 190 0 190 -35 0 -35 0 0 -107 c0 -60 -5 -125
-10 -145 -20 -70 -99 -101 -151 -59 -23 18 -24 26 -27 165 l-3 146 -36 0 -35
0 4 -152z"/>
<path d="M3450 4240 l0 -40 40 0 40 0 0 40 0 40 -40 0 -40 0 0 -40z"/>
<path d="M5880 4240 l0 -40 40 0 40 0 0 40 0 40 -40 0 -40 0 0 -40z"/>
</g>
</svg>
