<?xml version="1.0" encoding="UTF-8"?>
<svg xmlns="http://www.w3.org/2000/svg" xmlns:xlink="http://www.w3.org/1999/xlink" width="2100" height="2100" viewBox="0 0 2100 2100">
<path fill-rule="evenodd" fill="rgb(0%, 0%, 0%)" fill-opacity="1" d="M 917.164062 555.148438 C 905.988281 550.898438 807.480469 513.859375 805.925781 511.359375 C 795.503906 494.609375 816.042969 435.089844 838.929688 431.25 C 859.117188 435.710938 932.058594 460.121094 947.382812 465.328125 C 947.382812 465.328125 912.128906 492.359375 917.164062 555.148438 "/>
<path fill-rule="nonzero" fill="rgb(0%, 0%, 0%)" fill-opacity="1" d="M 915.644531 558.550781 L 910.886719 556.75 C 887.5625 547.929688 804.839844 516.671875 802.765625 513.328125 C 801.390625 511.121094 800.464844 508.390625 799.941406 505.28125 C 798.183594 494.789062 801.042969 479.089844 806.644531 464.660156 C 812.289062 450.128906 820.8125 436.648438 830.34375 430.71875 C 832.910156 429.121094 835.582031 428.039062 838.316406 427.578125 C 838.890625 427.488281 839.453125 427.519531 839.972656 427.679688 C 847.6875 429.410156 862.304688 433.761719 878.46875 438.839844 C 906.273438 447.578125 938.894531 458.519531 948.578125 461.808594 C 950.523438 462.46875 951.566406 464.578125 950.90625 466.53125 C 950.664062 467.238281 950.222656 467.839844 949.664062 468.269531 L 949.667969 468.269531 C 949.574219 468.351562 916.007812 494.078125 920.878906 554.851562 C 921.039062 556.898438 919.507812 558.699219 917.457031 558.859375 C 916.8125 558.910156 916.195312 558.789062 915.644531 558.550781 Z M 809.085938 509.398438 C 809.832031 510.589844 889.75 540.808594 913.089844 549.628906 C 911.070312 503.121094 930.886719 476.710938 940.296875 466.871094 C 926.773438 462.320312 899.828125 453.359375 876.253906 445.949219 C 860.535156 441.011719 846.390625 436.78125 838.890625 435.050781 C 837.363281 435.398438 835.816406 436.078125 834.277344 437.039062 C 826.183594 442.078125 818.703125 454.148438 813.578125 467.339844 C 808.417969 480.640625 805.742188 494.851562 807.285156 504.058594 C 807.644531 506.21875 808.242188 508.039062 809.085938 509.398438 "/>
<path fill-rule="evenodd" fill="rgb(0%, 0%, 0%)" fill-opacity="1" d="M 917.164062 555.148438 C 917.164062 555.148438 925.070312 558.488281 942.148438 562.148438 C 918.074219 549.449219 941.3125 464.53125 971.394531 473.058594 L 947.382812 465.328125 C 947.382812 465.328125 912.128906 492.359375 917.164062 555.148438 "/>
<path fill="none" stroke-width="15.0009" stroke-linecap="round" stroke-linejoin="round" stroke="rgb(0%, 0%, 0%)" stroke-opacity="1" stroke-miterlimit="2.61313" d="M 9171.640625 15448.515625 C 9171.640625 15448.515625 9250.703125 15415.117188 9421.484375 15378.515625 C 9180.742188 15505.507812 9413.125 16354.6875 9713.945312 16269.414062 L 9473.828125 16346.71875 C 9473.828125 16346.71875 9121.289062 16076.40625 9171.640625 15448.515625 Z M 9171.640625 15448.515625 " transform="matrix(0.1, 0, 0, -0.1, 0, 2100)"/>
<path fill-rule="nonzero" fill="rgb(0%, 0%, 0%)" fill-opacity="1" d="M 1073.019531 515.589844 L 970.269531 476.609375 C 964.109375 474.929688 958.058594 478.519531 952.820312 484.921875 C 948.480469 490.21875 944.734375 497.359375 941.871094 505.179688 C 938.976562 513.101562 936.996094 521.648438 936.230469 529.648438 C 934.9375 543.121094 936.917969 554.890625 943.605469 558.710938 L 1046.199219 592.488281 C 1044.640625 576.800781 1043.449219 534.441406 1073.019531 515.589844 Z M 972.707031 469.578125 L 1083.171875 511.480469 C 1084.160156 511.800781 1085.011719 512.53125 1085.460938 513.558594 C 1086.269531 515.449219 1085.390625 517.640625 1083.5 518.449219 C 1044.671875 535.128906 1053.648438 593.289062 1054.28125 597.070312 C 1054.421875 597.710938 1054.398438 598.378906 1054.179688 599.039062 C 1053.539062 601 1051.429688 602.058594 1049.480469 601.421875 L 940.980469 565.691406 L 940.984375 565.691406 C 940.789062 565.621094 940.601562 565.539062 940.414062 565.441406 C 930.445312 560.179688 927.246094 545.429688 928.828125 528.949219 C 929.660156 520.28125 931.78125 511.078125 934.878906 502.609375 C 938.015625 494.050781 942.175781 486.148438 947.050781 480.199219 C 954.175781 471.488281 962.882812 466.769531 972.402344 469.46875 L 972.398438 469.480469 C 972.503906 469.5 972.605469 469.539062 972.707031 469.578125 "/>
<path fill-rule="nonzero" fill="rgb(0%, 0%, 0%)" fill-opacity="1" d="M 1085.238281 513.128906 L 1105.238281 542.210938 C 1106.410156 543.898438 1105.988281 546.21875 1104.300781 547.390625 C 1103.429688 547.988281 1102.390625 548.171875 1101.429688 547.96875 C 1098.238281 547.300781 1094.550781 549.550781 1091.390625 553.179688 C 1089.210938 555.691406 1087.339844 558.828125 1086.070312 562.171875 C 1084.808594 565.449219 1084.148438 568.898438 1084.328125 572.089844 C 1084.570312 576.378906 1086.441406 580.25 1090.671875 582.511719 C 1092.480469 583.480469 1093.171875 585.730469 1092.199219 587.539062 C 1091.730469 588.429688 1090.941406 589.050781 1090.039062 589.339844 L 1090.050781 589.351562 L 1051.761719 601.429688 C 1049.800781 602.050781 1047.710938 600.960938 1047.089844 599 C 1047.011719 598.769531 1046.960938 598.53125 1046.941406 598.289062 C 1046.28125 594.359375 1036.378906 530.578125 1080.558594 511.609375 C 1082.300781 510.859375 1084.300781 511.539062 1085.238281 513.128906 Z M 1095.550781 541.238281 L 1080.769531 519.75 C 1049.898438 535.488281 1052.171875 579.148438 1053.730469 593 L 1081.261719 584.300781 C 1078.488281 580.949219 1077.140625 576.851562 1076.898438 572.5 C 1076.648438 568.21875 1077.5 563.71875 1079.101562 559.511719 C 1080.691406 555.359375 1083.019531 551.441406 1085.769531 548.28125 C 1088.640625 544.988281 1092.011719 542.46875 1095.550781 541.238281 "/>
<path fill-rule="nonzero" fill="rgb(0%, 0%, 0%)" fill-opacity="1" d="M 1105.421875 542.5 L 1109.179688 548.378906 C 1110.179688 549.949219 1109.859375 551.980469 1108.5 553.171875 C 1108.460938 553.210938 1093.859375 566.140625 1095.980469 584.53125 C 1096.199219 586.46875 1094.898438 588.230469 1093.019531 588.601562 L 1089.808594 589.410156 C 1088.808594 589.648438 1087.800781 589.460938 1086.980469 588.960938 C 1080.25 585.269531 1077.28125 579.191406 1076.898438 572.5 C 1076.648438 568.21875 1077.5 563.71875 1079.101562 559.511719 C 1080.691406 555.359375 1083.019531 551.441406 1085.769531 548.28125 C 1090.601562 542.730469 1096.828125 539.410156 1102.941406 540.691406 C 1104.03125 540.910156 1104.921875 541.601562 1105.421875 542.5 Z M 1101.320312 549.878906 L 1100.039062 547.859375 C 1097.199219 547.980469 1094.101562 550.070312 1091.390625 553.179688 C 1089.210938 555.691406 1087.339844 558.828125 1086.070312 562.171875 C 1084.808594 565.449219 1084.148438 568.898438 1084.328125 572.089844 C 1084.519531 575.488281 1085.730469 578.621094 1088.328125 580.898438 C 1088.339844 565.898438 1097.070312 554.53125 1101.320312 549.878906 "/>
<path fill-rule="nonzero" fill="rgb(0%, 0%, 0%)" fill-opacity="1" d="M 1095.789062 581.878906 L 1176.308594 598.328125 L 1179.839844 589.808594 L 1106.808594 554.851562 C 1103.261719 558.671875 1095.371094 568.679688 1095.789062 581.878906 Z M 1177.828125 606.230469 L 1091.769531 588.640625 C 1090.121094 588.410156 1088.78125 587.101562 1088.578125 585.378906 C 1086.011719 563.148438 1103.550781 547.621094 1103.601562 547.570312 L 1103.609375 547.578125 C 1104.691406 546.628906 1106.269531 546.359375 1107.648438 547.019531 L 1186.089844 584.570312 C 1187.949219 585.371094 1188.828125 587.511719 1188.058594 589.390625 L 1182.011719 604 C 1181.351562 605.621094 1179.609375 606.589844 1177.828125 606.230469 "/>
<path fill-rule="nonzero" fill="rgb(0%, 0%, 0%)" fill-opacity="1" d="M 991.390625 619.171875 C 996.800781 619.171875 1001.699219 621.359375 1005.25 624.910156 C 1008.789062 628.449219 1010.988281 633.351562 1010.988281 638.761719 C 1010.988281 644.171875 1008.789062 649.070312 1005.25 652.621094 C 1001.699219 656.160156 996.800781 658.359375 991.390625 658.359375 C 985.980469 658.359375 981.082031 656.160156 977.535156 652.621094 C 973.992188 649.070312 971.796875 644.171875 971.796875 638.761719 C 971.796875 633.351562 973.992188 628.449219 977.535156 624.910156 C 981.082031 621.359375 985.980469 619.171875 991.390625 619.171875 Z M 999.972656 630.179688 C 997.777344 627.988281 994.742188 626.628906 991.390625 626.628906 C 988.039062 626.628906 985.003906 627.988281 982.8125 630.179688 C 980.617188 632.378906 979.257812 635.410156 979.257812 638.761719 C 979.257812 642.109375 980.617188 645.148438 982.8125 647.339844 C 985.003906 649.539062 988.039062 650.898438 991.390625 650.898438 C 994.742188 650.898438 997.777344 649.539062 999.972656 647.339844 C 1002.171875 645.148438 1003.53125 642.109375 1003.53125 638.761719 C 1003.53125 635.410156 1002.171875 632.378906 999.972656 630.179688 "/>
<path fill-rule="nonzero" fill="rgb(0%, 0%, 0%)" fill-opacity="1" d="M 991.390625 619.171875 L 1038.660156 619.171875 C 1043.851562 619.171875 1048.859375 621.070312 1052.5 624.378906 C 1056 627.558594 1058.25 632.011719 1058.25 637.308594 C 1058.25 656.601562 1046.511719 657.03125 1036.371094 657.398438 C 1035.660156 657.429688 1034.960938 657.460938 1034.070312 657.5 C 1033.949219 657.511719 1033.851562 657.511719 1033.738281 657.511719 L 994.746094 658 C 992.695312 658.019531 991.011719 656.378906 990.988281 654.328125 L 990.988281 654.28125 L 990.972656 654.28125 C 990.972656 652.421875 992.34375 650.871094 994.128906 650.589844 C 996.804688 649.980469 999.152344 648.46875 1000.828125 646.390625 L 1000.980469 646.21875 C 1002.578125 644.160156 1003.53125 641.578125 1003.53125 638.761719 C 1003.53125 635.410156 1002.171875 632.378906 999.972656 630.179688 C 997.777344 627.988281 994.742188 626.628906 991.390625 626.628906 Z M 1038.660156 626.628906 L 1006.78125 626.628906 C 1009.410156 629.96875 1010.988281 634.179688 1010.988281 638.761719 C 1010.988281 643.121094 1009.550781 647.148438 1007.140625 650.410156 L 1033.648438 650.078125 L 1033.691406 650.070312 C 1034.328125 650.039062 1035.210938 650.011719 1036.101562 649.96875 C 1042.910156 649.71875 1050.789062 649.429688 1050.789062 637.308594 C 1050.789062 634.269531 1049.5 631.710938 1047.488281 629.878906 C 1045.210938 627.820312 1042.019531 626.628906 1038.660156 626.628906 Z M 994.128906 650.589844 C 994.316406 650.570312 994.507812 650.550781 994.703125 650.550781 L 994.128906 650.589844 "/>
<path fill-rule="nonzero" fill="rgb(0%, 0%, 0%)" fill-opacity="1" d="M 1024.429688 653.949219 L 1024.429688 1049.648438 C 1024.429688 1051.710938 1022.761719 1053.378906 1020.699219 1053.378906 L 1006.601562 1053.378906 C 1004.539062 1053.378906 1002.871094 1051.710938 1002.871094 1049.648438 L 1002.871094 654.128906 C 1002.871094 652.070312 1004.539062 650.398438 1006.601562 650.398438 L 1006.871094 650.410156 L 1020.660156 650.238281 C 1022.710938 650.21875 1024.390625 651.859375 1024.421875 653.910156 L 1024.421875 653.949219 Z M 1016.96875 1045.921875 L 1016.96875 657.71875 L 1010.328125 657.800781 L 1010.328125 1045.921875 L 1016.96875 1045.921875 "/>
<path fill-rule="nonzero" fill="rgb(0%, 0%, 0%)" fill-opacity="1" d="M 1002.488281 1045.921875 L 1027.671875 1045.921875 C 1029.730469 1045.921875 1031.398438 1047.589844 1031.398438 1049.648438 L 1031.398438 1140.640625 C 1031.398438 1142.699219 1029.730469 1144.371094 1027.671875 1144.371094 L 1002.488281 1144.371094 C 1000.429688 1144.371094 998.757812 1142.699219 998.757812 1140.640625 L 998.757812 1049.648438 C 998.757812 1047.589844 1000.429688 1045.921875 1002.488281 1045.921875 Z M 1023.941406 1053.378906 L 1006.21875 1053.378906 L 1006.21875 1136.910156 L 1023.941406 1136.910156 L 1023.941406 1053.378906 "/>
<path fill-rule="nonzero" fill="rgb(0%, 0%, 0%)" fill-opacity="1" d="M 1005.761719 1136.910156 L 1024.730469 1136.910156 C 1026.789062 1136.910156 1028.460938 1138.582031 1028.460938 1140.640625 L 1028.460938 1597.769531 C 1028.460938 1599.828125 1026.789062 1601.496094 1024.730469 1601.496094 L 1005.761719 1601.496094 C 1003.699219 1601.496094 1002.03125 1599.828125 1002.03125 1597.769531 L 1002.03125 1140.640625 C 1002.03125 1138.582031 1003.699219 1136.910156 1005.761719 1136.910156 Z M 1021 1144.371094 L 1009.488281 1144.371094 L 1009.488281 1594.039062 L 1021 1594.039062 L 1021 1144.371094 "/>
<path fill-rule="nonzero" fill="rgb(0%, 0%, 0%)" fill-opacity="1" d="M 1025.171875 1584.710938 C 1040.5 1585.285156 1053.960938 1586.90625 1063.570312 1589.1875 C 1074.671875 1591.820312 1081.351562 1595.878906 1081.351562 1600.957031 C 1081.351562 1606.519531 1072.941406 1610.960938 1059.359375 1613.636719 C 1047.398438 1615.988281 1030.941406 1617.445312 1012.820312 1617.445312 C 994.699219 1617.445312 978.238281 1615.988281 966.285156 1613.636719 C 952.695312 1610.960938 944.289062 1606.519531 944.289062 1600.957031 C 944.289062 1595.679688 951.652344 1591.464844 963.761719 1588.804688 C 974.335938 1586.484375 989.089844 1584.910156 1005.691406 1584.558594 C 1007.738281 1584.519531 1009.441406 1586.148438 1009.480469 1588.199219 L 1009.480469 1588.273438 L 1009.488281 1588.273438 L 1009.488281 1594.039062 L 1021 1594.039062 L 1021 1588.414062 C 1021 1586.355469 1022.671875 1584.6875 1024.730469 1584.6875 C 1024.878906 1584.6875 1025.03125 1584.695312 1025.171875 1584.710938 Z M 1061.851562 1596.441406 C 1053.371094 1594.433594 1041.75 1592.953125 1028.460938 1592.296875 L 1028.460938 1597.769531 C 1028.460938 1599.828125 1026.789062 1601.496094 1024.730469 1601.496094 L 1005.761719 1601.496094 C 1003.699219 1601.496094 1002.03125 1599.828125 1002.03125 1597.769531 L 1002.03125 1592.09375 C 987.546875 1592.578125 974.726562 1594.027344 965.335938 1596.085938 C 956.886719 1597.941406 951.746094 1599.695312 951.746094 1600.957031 C 951.746094 1602.4375 957.847656 1604.382812 967.710938 1606.324219 C 979.207031 1608.585938 995.152344 1609.984375 1012.820312 1609.984375 C 1030.488281 1609.984375 1046.429688 1608.585938 1057.929688 1606.324219 C 1067.789062 1604.382812 1073.890625 1602.4375 1073.890625 1600.957031 C 1073.890625 1599.84375 1069.371094 1598.222656 1061.851562 1596.441406 "/>
<path fill-rule="evenodd" fill="rgb(0%, 0%, 0%)" fill-opacity="1" d="M 950.910156 1604.738281 L 950.910156 1616.570312 C 970.902344 1629.175781 1057.070312 1629.425781 1076.25 1615.925781 L 1076.078125 1603.742188 L 1076.070312 1603.742188 C 1069.621094 1609.449219 1043.75 1613.714844 1012.820312 1613.714844 C 983.71875 1613.714844 959.097656 1609.9375 950.910156 1604.738281 "/>
<path fill-rule="nonzero" fill="rgb(0%, 0%, 0%)" fill-opacity="1" d="M 1025.089844 1579.195312 C 1070.351562 1579.683594 1111 1583.960938 1140.339844 1590.597656 C 1171.179688 1597.570312 1190.109375 1607.695312 1190.109375 1619.460938 C 1190.109375 1631.570312 1169.960938 1641.964844 1137.390625 1648.980469 C 1106.398438 1655.660156 1063.648438 1659.789062 1016.488281 1659.789062 C 969.328125 1659.789062 926.574219 1655.660156 895.578125 1648.980469 C 863.011719 1641.964844 842.863281 1631.570312 842.863281 1619.460938 C 842.863281 1607.792969 861.4375 1597.75 891.761719 1590.792969 C 920.691406 1584.15625 960.875 1579.824219 1005.71875 1579.222656 C 1007.769531 1579.199219 1009.449219 1580.84375 1009.480469 1582.894531 L 1009.480469 1582.9375 L 1009.488281 1582.9375 L 1009.488281 1594.039062 L 1021 1594.039062 L 1021 1582.910156 C 1021 1580.847656 1022.671875 1579.179688 1024.730469 1579.179688 C 1024.859375 1579.179688 1024.96875 1579.1875 1025.089844 1579.195312 Z M 1138.699219 1597.851562 C 1110.570312 1591.488281 1071.78125 1587.320312 1028.460938 1586.671875 L 1028.460938 1597.769531 C 1028.460938 1599.828125 1026.789062 1601.496094 1024.730469 1601.496094 L 1005.761719 1601.496094 C 1003.699219 1601.496094 1002.03125 1599.828125 1002.03125 1597.769531 L 1002.03125 1586.714844 C 959.285156 1587.492188 921.097656 1591.699219 893.421875 1598.046875 C 866.691406 1604.183594 850.320312 1611.757812 850.320312 1619.460938 C 850.320312 1627.5625 868.207031 1635.46875 897.125 1641.699219 C 927.617188 1648.265625 969.816406 1652.328125 1016.488281 1652.328125 C 1063.160156 1652.328125 1105.359375 1648.265625 1135.851562 1641.699219 C 1164.761719 1635.46875 1182.648438 1627.5625 1182.648438 1619.460938 C 1182.648438 1611.664062 1165.929688 1604.011719 1138.699219 1597.851562 "/>
<path fill-rule="nonzero" fill="rgb(0%, 0%, 0%)" fill-opacity="1" d="M 834.957031 1628.886719 C 834.957031 1626 835.90625 1623.21875 837.726562 1620.5625 C 839.402344 1618.113281 841.835938 1615.78125 844.949219 1613.570312 C 846.621094 1612.382812 848.949219 1612.773438 850.136719 1614.445312 C 850.898438 1615.511719 851.011719 1616.84375 850.558594 1617.980469 C 850.480469 1618.214844 850.421875 1618.449219 850.378906 1618.671875 L 850.390625 1618.675781 C 850.347656 1618.933594 850.320312 1619.199219 850.320312 1619.460938 C 850.320312 1627.550781 868.160156 1635.445312 897.015625 1641.671875 C 927.480469 1648.246094 969.59375 1652.324219 1016.128906 1652.34375 L 1016.488281 1652.34375 L 1016.488281 1652.328125 L 1016.621094 1652.328125 C 1016.730469 1652.328125 1016.828125 1652.335938 1016.929688 1652.34375 L 1016.980469 1652.34375 C 1063.511719 1652.324219 1105.628906 1648.246094 1136.101562 1641.671875 C 1164.949219 1635.445312 1182.789062 1627.550781 1182.789062 1619.460938 C 1182.789062 1619.199219 1182.761719 1618.933594 1182.71875 1618.675781 L 1182.691406 1618.46875 C 1182.640625 1618.265625 1182.578125 1618.0625 1182.511719 1617.855469 C 1181.820312 1615.921875 1182.820312 1613.796875 1184.75 1613.105469 C 1185.941406 1612.679688 1187.199219 1612.894531 1188.160156 1613.574219 L 1188.160156 1613.570312 C 1191.269531 1615.78125 1193.710938 1618.113281 1195.378906 1620.5625 C 1197.199219 1623.21875 1198.148438 1626 1198.148438 1628.886719 C 1198.148438 1650.402344 1150.558594 1663.789062 1089.640625 1669.320312 C 1066.480469 1671.421875 1041.460938 1672.472656 1016.550781 1672.472656 C 991.648438 1672.472656 966.632812 1671.421875 943.46875 1669.320312 C 882.550781 1663.789062 834.957031 1650.402344 834.957031 1628.886719 Z M 843.875 1624.753906 C 842.917969 1626.152344 842.414062 1627.539062 842.414062 1628.886719 C 842.414062 1645.632812 887.035156 1656.738281 944.136719 1661.921875 C 966.867188 1663.984375 991.660156 1665.015625 1016.550781 1665.015625 C 1041.449219 1665.015625 1066.238281 1663.984375 1088.96875 1661.921875 C 1146.078125 1656.738281 1190.691406 1645.632812 1190.691406 1628.886719 C 1190.691406 1627.539062 1190.191406 1626.152344 1189.230469 1624.753906 L 1189.058594 1624.503906 C 1184.300781 1634.4375 1165.550781 1642.9375 1137.671875 1648.953125 C 1106.789062 1655.621094 1064.121094 1659.75 1016.988281 1659.773438 L 1016.960938 1659.773438 C 1016.851562 1659.785156 1016.738281 1659.789062 1016.621094 1659.789062 L 1016.488281 1659.789062 L 1016.488281 1659.773438 L 1016.121094 1659.773438 C 968.992188 1659.75 926.324219 1655.621094 895.441406 1648.953125 C 867.558594 1642.9375 848.8125 1634.4375 844.054688 1624.503906 Z M 1016.988281 1659.773438 L 1016.980469 1659.773438 L 1016.988281 1659.773438 "/>
<path fill-rule="nonzero" fill="rgb(0%, 0%, 0%)" fill-opacity="1" d="M 1180.359375 598.789062 C 1178.421875 598.109375 1177.398438 595.980469 1178.089844 594.039062 C 1178.769531 592.101562 1180.898438 591.089844 1182.839844 591.769531 C 1183.230469 591.910156 1320.261719 639.441406 1298.160156 754.070312 C 1282.308594 836.328125 1226.289062 860.519531 1155.429688 891.109375 C 1128.378906 902.789062 1099.128906 915.421875 1069.378906 932.53125 C 1016.78125 962.78125 993.773438 1001.179688 985.902344 1044.800781 C 977.960938 1088.820312 985.304688 1138.566406 993.320312 1190.648438 C 1009.488281 1295.6875 1009.488281 1378.316406 1009.488281 1378.558594 C 1009.488281 1380.617188 1007.820312 1382.285156 1005.761719 1382.285156 C 1003.699219 1382.285156 1002.03125 1380.617188 1002.03125 1378.558594 C 1002.03125 1378.316406 1002.03125 1296.226562 985.949219 1191.757812 C 977.847656 1139.089844 970.421875 1088.769531 978.589844 1043.488281 C 986.835938 997.800781 1010.851562 957.621094 1065.679688 926.089844 C 1096 908.660156 1125.351562 895.988281 1152.488281 884.269531 C 1221.320312 854.539062 1275.738281 831.039062 1290.851562 752.671875 C 1311.730469 644.371094 1180.730469 598.921875 1180.359375 598.789062 "/>
<path fill-rule="nonzero" fill="rgb(0%, 0%, 0%)" fill-opacity="1" d="M 936.5625 519.320312 L 1048.820312 557.03125 C 1050.089844 550.609375 1052.078125 544.078125 1055.089844 537.949219 C 1057.46875 533.121094 1060.488281 528.53125 1064.300781 524.46875 L 951.078125 485.121094 C 947.839844 489.300781 944.945312 494.480469 942.523438 500.160156 C 939.953125 506.191406 937.921875 512.769531 936.5625 519.320312 Z M 1049.960938 562.640625 L 932.925781 523.328125 L 930.882812 522.640625 L 931.277344 520.53125 C 932.6875 512.921875 934.980469 505.210938 937.960938 498.21875 C 940.828125 491.488281 944.347656 485.378906 948.335938 480.609375 L 949.429688 479.300781 L 951.054688 479.871094 L 1069.691406 521.089844 L 1073.640625 522.46875 L 1070.539062 525.269531 C 1065.820312 529.539062 1062.238281 534.648438 1059.539062 540.128906 C 1056.320312 546.679688 1054.351562 553.78125 1053.199219 560.691406 L 1052.71875 563.558594 L 1049.960938 562.640625 "/>
<path fill-rule="nonzero" fill="rgb(0%, 0%, 0%)" fill-opacity="1" d="M 993.851562 623.660156 C 993.773438 623.53125 967.5625 577.878906 964.46875 572.390625 L 968.753906 567 C 988.175781 572.691406 1013.710938 581.800781 1013.78125 581.828125 L 1015.75 583.488281 L 1037.230469 621.089844 L 1040.511719 626.839844 L 1033.890625 626.640625 L 996.96875 625.53125 L 994.886719 625.460938 Z M 975.578125 576.839844 C 982.773438 589.441406 995.550781 611.710938 999.253906 618.160156 L 1027.46875 619.011719 L 1009.96875 588.371094 C 1005.519531 586.800781 990.152344 581.410156 975.578125 576.839844 "/>
</svg>
