<svg xmlns="http://www.w3.org/2000/svg" width="95.449" height="17.295" viewBox="0 0 95.449 17.295"><defs><style>.a{fill:#c89211;}.b{fill:none;}</style></defs><path class="a" d="M494.332,319.387h11.5a4.667,4.667,0,0,0,3.561-1.643H490.77a4.663,4.663,0,0,0,3.562,1.643" transform="translate(-415.221 -302.118)"/><rect class="a" width="2.599" height="3.327" transform="translate(24.887 2.534)"/><rect class="a" width="2.599" height="2.938" transform="translate(24.887 0.015)"/><rect class="a" width="2.599" height="5.798" transform="translate(24.887 5.836)"/><rect class="a" width="2.599" height="4.539" transform="translate(24.887 11.535)"/><rect class="a" width="2.599" height="1.661" transform="translate(24.887 15.626)"/><path class="a" d="M509.01,292.317v-2.709H491.964a1.723,1.723,0,0,1-1.079-.193c-.032-.081-.146-.151-.2-.229a1.042,1.042,0,0,1-.185-.392,2.7,2.7,0,0,1-.025-.588,1.05,1.05,0,0,1,.769-1.139,2.89,2.89,0,0,1,.652-.027H508.96a6,6,0,0,0-1.222-3.291h.013a4.624,4.624,0,0,0-3.483-1.669c-.313-.005-.626,0-.939,0l-4.6,0H495.6c-1.05,0-2.112-.052-3.161,0a4.653,4.653,0,0,0-3.345,1.665h0a5.616,5.616,0,0,0-1.192,3.181c-.057.618-.081,1.235-.081,1.856,0,1,.006,2.006.011,3.009h16.813a1.576,1.576,0,0,1,1.021.2c.733.614.565,2.369-.6,2.369-.16.006-.321,0-.481,0H487.881a6.8,6.8,0,0,0,.681,2.477h0a4.466,4.466,0,0,0,3.4,2.431,8.385,8.385,0,0,0,1.279.06H497.2l4.866,0a18.391,18.391,0,0,0,2.847-.064,4.611,4.611,0,0,0,3.339-2.373,9.307,9.307,0,0,0,.757-4.575Z" transform="translate(-413.563 -282.057)"/><path class="a" d="M437.313,289.792" transform="translate(-385.168 -286.404)"/><g transform="translate(54.373 4.972)"><path class="b" d="M476.309,293.589a1.01,1.01,0,0,0-.556-.172,1.028,1.028,0,0,1,.556.186Z" transform="translate(-461.152 -293.414)"/><path class="b" d="M442.423,294.981v-.51a1.036,1.036,0,0,1,.821-1.01,1,1,0,0,0-.626.36.078.078,0,0,0-.01.012,1.051,1.051,0,0,0-.081.123.973.973,0,0,0-.049.1l-.006.016a1.013,1.013,0,0,0-.07.372v.532a1.031,1.031,0,0,0,.455.854v.013a.994.994,0,0,0,.548.164h.037A1.033,1.033,0,0,1,442.423,294.981Z" transform="translate(-442.403 -293.439)"/><path class="b" d="M477.878,297.627c-.01.03-.016.06-.028.087C477.859,297.685,477.871,297.658,477.878,297.627Z" transform="translate(-462.331 -295.781)"/><path class="b" d="M475.7,298.478h.02a1,1,0,0,0,.874-.506.984.984,0,0,0,.042-.121A1.032,1.032,0,0,1,475.7,298.478Z" transform="translate(-461.124 -295.906)"/><path class="b" d="M444.548,293.417a.95.95,0,0,0-.114.014,1.13,1.13,0,0,1,.129-.014Z" transform="translate(-443.545 -293.414)"/><path class="a" d="M444.79,299.285h0Z" transform="translate(-443.738 -296.712)"/><path class="a" d="M477.846,297.827a.041.041,0,0,1,0,.01A.06.06,0,0,0,477.846,297.827Z" transform="translate(-462.327 -295.893)"/><path class="a" d="M458.312,293.413c-.011,0-.023,0-.035,0H444.762c-.011,0-.022,0-.033,0h13.583Z" transform="translate(-443.711 -293.41)"/><path class="a" d="M444.325,293.454l.048-.006C444.357,293.451,444.34,293.45,444.325,293.454Z" transform="translate(-443.484 -293.431)"/></g><path class="a" d="M350.271,302.176" transform="translate(-336.235 -293.366)"/><path class="a" d="M341.407,287.9a8.785,8.785,0,0,0-.282-2.171h0a4.644,4.644,0,0,0-4.559-3.65H324.957c-.672,0-1.345-.013-2.017,0a4.639,4.639,0,0,0-3.29,1.467,5.758,5.758,0,0,0-1.376,3.373c-.035.308-.054.618-.06.928h0v11.5h2.608v-5.339h.008v-6.087a1.032,1.032,0,0,1,1.008-.875h4.918c.5,0,1.1-.091,1.487.314.362.384.264.928.264,1.41v8.916h0v1.661h2.621v-1.214h0l0-4.537h0v-5.539a1.025,1.025,0,0,1,1.1-1.012h5.31c.091,0,.182,0,.273,0a1.025,1.025,0,0,1,1,.875v6.087h.009v3.678h0v1.661h2.6v-1.213h0V287.9Z" transform="translate(-318.211 -282.067)"/><path class="a" d="M457.254,288.29a10.411,10.411,0,0,0-.3-2.572h.005a5.33,5.33,0,0,0-.978-1.973h.008a4.615,4.615,0,0,0-3.17-1.658c-.266-.025-.535-.017-.8-.017h-8.731c-.763,0-1.539-.043-2.3.007a4.584,4.584,0,0,0-3.306,1.669h0a6.119,6.119,0,0,0-.541.841,6.73,6.73,0,0,0-.623,2.122h0a7.018,7.018,0,0,0-.085,1.128h0v.078h0c-.052,1.607,0,3.223,0,4.832h0v.842h0v5.752h2.6v-1.661h0l0-4.091h-.005a5.047,5.047,0,0,1,.017-.842h0c.172-1.107,1.64-.854,2.437-.854h12.092a1.05,1.05,0,0,1,.9.447,2.085,2.085,0,0,1,.179,1.249h0v4.618h0v1.135h2.6v-5.752h0v-.842h0v-3.288h0s.013-.559,0-1.167C457.252,288.165,457.262,288.9,457.254,288.29Zm-2.622.277a1.051,1.051,0,0,1-1.175,1.031h-13.27a1.226,1.226,0,0,1-.7-.165,1.465,1.465,0,0,1-.431-.646,2.739,2.739,0,0,1-.024-.584,1.053,1.053,0,0,1,.695-1.12,2.708,2.708,0,0,1,.8-.057H452.98a2.156,2.156,0,0,1,1.211.175,3.22,3.22,0,0,1,.3.343,1.027,1.027,0,0,1,.139.514c.006.169,0,.34,0,.51Z" transform="translate(-384.661 -282.053)"/><path class="a" d="M405.74,287.875a9.346,9.346,0,0,0-.173-1.669h.01a5.164,5.164,0,0,0-2.024-3.308,4.756,4.756,0,0,0-2.654-.807H384.829v2.517h0v3.327h0v7.216h0v2.86h0v1.343l6.3-.006,8.857-.01h.914a4.645,4.645,0,0,0,3.561-1.637h-.006a6.412,6.412,0,0,0,1.288-4.075h0v-5.751Zm-2.553,5.735c-.18,1.087-1.587.844-2.379.844H388.321a1.016,1.016,0,0,1-.631-.221,1,1,0,0,1-.254-.3c-.053-.1-.074-.246-.126-.319v-5.674a1.472,1.472,0,0,1,.369-.644,1.014,1.014,0,0,1,.643-.23h13.7c.511,0,1.165.265,1.164.879q0,.68,0,1.361,0,2.1,0,4.21c0,.033,0,.066,0,.1Z" transform="translate(-355.662 -282.075)"/></svg>