<?xml version="1.0" encoding="iso-8859-1"?>
<!-- Uploaded to: SVG Repo, www.svgrepo.com, Generator: SVG Repo Mixer Tools -->
<svg fill="#000000" height="800px" width="800px" version="1.1" id="Layer_1" xmlns="http://www.w3.org/2000/svg" xmlns:xlink="http://www.w3.org/1999/xlink" 
	 viewBox="0 0 512 512" xml:space="preserve">
<g>
	<g>
		<path d="M283.372,18.332L255.874,0l-26.177,18.477l6.82,36.564l-6.033,20.115V180.28h15.623v-34.37h20.83v34.37h15.623V75.156
			l-6.034-20.115L283.372,18.332z M266.936,130.287h-20.83V104.25h20.83V130.287z M266.936,88.626h-20.83V77.45l6.464-21.547
			l-5.677-30.44l9.234-6.519l9.996,6.665l-5.65,30.293l6.464,21.547V88.626z"/>
	</g>
</g>
<g>
	<g>
		<path d="M313.283,372.683V234.959h-20.309v-41.66h-73.947v41.66h-20.309v137.724h-13.019v41.66h14.481l5.807,29.732
			c1.573,8.027,6.455,14.716,13.04,18.808v30.891c0,10.049,8.177,18.226,18.226,18.226h37.494c10.049,0,18.226-8.177,18.226-18.226
			v-30.891c6.585-4.093,11.468-10.783,13.041-18.813l5.806-29.727h14.481v-41.66H313.283z M234.649,208.921h42.702v26.038h-42.702
			V208.921z M214.34,250.582h83.321v122.101H214.34V250.582z M277.351,493.774c0,1.435-1.168,2.604-2.604,2.604h-37.494
			c-1.435,0-2.604-1.169-2.604-2.604v-26.558h42.702V493.774z M290.682,441.071c-1.194,6.097-6.569,10.521-12.779,10.521h-43.806
			c-6.211,0-11.585-4.425-12.779-10.517l-5.221-26.732h79.806L290.682,441.071z M310.679,398.72H201.321v-10.415h109.358V398.72z"/>
	</g>
</g>
</svg>