<svg xmlns="http://www.w3.org/2000/svg" xmlns:v="https://svgstorm.com"
viewBox = "0 0 1280 1280"
width="1280"
height="1280">
<g fill="None" fill-opacity="0.0" stroke="#000000" stroke-opacity="0.00" stroke-width="0.3"><path d="
M 0.00 1280.00 
L 1280.00 1280.00
L 1280.00 0.00
L 0.00 0.00
L 0.00 1280.00
M 613.00 320.00 
C 623.69 320.06 634.88 319.15 646.00 319.00 C 657.12 318.85 669.26 320.31 680.00 320.00
C 687.00 319.80 695.15 320.00 703.00 320.00
C 705.90 319.39 710.93 317.60 716.00 318.00
C 757.75 321.31 797.76 312.31 835.89 309.89 C 874.03 307.47 911.84 300.31 945.70 294.69 C 979.55 289.07 1007.02 283.78 1041.03 275.98 C 1075.03 268.18 1103.66 257.47 1136.00 248.00
C 1140.15 262.08 1143.82 273.15 1148.57 286.77 C 1153.33 300.38 1155.02 314.51 1159.12 327.90 C 1163.21 341.29 1164.38 355.46 1167.07 368.08 C 1169.75 380.70 1173.16 394.64 1175.19 409.25 C 1177.22 423.87 1180.22 436.87 1181.40 453.75 C 1182.57 470.64 1185.78 481.10 1186.93 500.08 C 1188.09 519.07 1189.56 535.56 1190.67 554.67 C 1191.78 573.79 1190.28 598.39 1191.00 620.00 C 1191.72 641.61 1191.27 667.39 1190.07 687.08 C 1188.87 706.76 1189.78 723.74 1187.60 741.75 C 1185.43 759.76 1184.68 779.86 1182.99 796.01 C 1181.31 812.16 1179.08 825.20 1176.29 841.30 C 1173.50 857.39 1174.04 871.60 1170.98 887.03 C 1167.91 902.46 1165.33 912.21 1163.80 925.25 C 1162.27 938.29 1157.63 950.92 1156.21 962.57 C 1154.79 974.22 1149.86 989.22 1148.21 999.57 C 1146.56 1009.92 1141.72 1022.40 1140.00 1035.00
C 1107.88 1021.92 1076.72 1011.95 1039.25 1002.74 C 1001.77 993.52 973.04 987.55 937.25 982.41 C 901.46 977.27 850.97 972.29 810.00 972.00
C 811.16 967.54 800.31 971.29 794.31 970.35 C 788.30 969.41 781.75 970.05 777.61 969.25 C 773.47 968.44 761.40 971.25 755.93 969.93 C 750.46 968.61 740.64 967.36 733.00 968.00 C 725.36 968.64 716.03 967.66 708.00 968.00 C 699.97 968.34 692.37 967.76 684.00 968.00 C 675.63 968.24 667.79 967.69 659.00 968.00 C 650.21 968.31 643.52 967.42 634.00 968.00 C 624.48 968.58 623.61 971.35 611.00 970.00 C 598.39 968.65 585.63 971.29 574.98 971.02 C 564.32 970.76 547.45 972.03 537.99 973.99 C 528.52 975.95 527.43 971.89 520.78 974.22 C 514.13 976.55 508.81 974.18 502.97 975.02 C 497.14 975.86 494.42 976.59 488.75 977.19 C 483.07 977.79 476.82 977.82 470.98 978.02 C 465.13 978.22 460.99 980.67 455.78 980.22 C 450.56 979.77 444.89 982.48 439.71 982.71 C 434.52 982.94 428.24 983.19 423.00 985.00
C 424.65 982.20 414.63 986.62 409.08 986.13 C 403.54 985.65 397.25 988.50 391.71 988.71 C 386.16 988.91 381.14 989.30 375.71 990.71 C 370.27 992.12 364.25 990.84 358.75 992.20 C 353.26 993.56 346.77 994.59 340.75 995.76 C 334.74 996.92 332.31 995.92 325.75 997.20 C 319.20 998.48 317.48 999.07 312.61 999.24 C 307.74 999.42 306.85 1002.22 299.32 1002.66 C 291.79 1003.10 281.04 1005.90 273.43 1006.79 C 265.82 1007.68 265.06 1010.26 256.99 1010.99 C 248.92 1011.72 240.84 1013.88 232.77 1015.22 C 224.71 1016.56 225.82 1017.11 218.43 1018.79 C 211.04 1020.47 200.94 1022.91 194.61 1025.76 C 188.28 1028.60 185.92 1026.79 181.96 1028.97 C 178.00 1031.16 172.14 1030.84 169.43 1031.79 C 166.72 1032.73 159.68 1038.33 157.25 1029.75 C 154.83 1021.16 150.69 1013.40 147.79 1005.76 C 144.89 998.13 140.83 991.78 138.74 984.81 C 136.65 977.84 133.46 970.13 131.81 961.75 C 130.15 953.38 128.50 956.71 127.08 950.87 C 125.66 945.03 126.35 942.06 123.74 936.25 C 121.13 930.45 123.70 930.12 120.65 922.30 C 117.60 914.49 115.62 904.06 113.81 894.75 C 112.00 885.45 111.15 887.93 110.20 880.75 C 109.24 873.58 109.13 872.95 107.24 867.61 C 105.35 862.27 108.71 856.90 105.98 850.97 C 103.24 845.05 101.71 832.19 100.94 820.92 C 100.16 809.65 99.09 811.84 98.20 803.75 C 97.31 795.66 97.49 792.53 97.00 785.00 C 96.51 777.46 95.09 773.88 94.60 767.26 C 94.11 760.63 92.41 756.09 92.78 748.78 C 93.15 741.47 91.14 737.95 91.98 729.98 C 92.81 722.00 88.70 719.22 89.67 709.33 C 90.64 699.44 88.69 681.35 88.33 669.33 C 87.97 657.31 89.38 653.59 88.00 643.00 C 86.62 632.41 89.60 625.99 88.67 616.33 C 87.74 606.67 88.16 601.91 89.92 594.87 C 91.68 587.83 88.07 579.76 89.67 571.33 C 91.27 562.90 91.27 542.23 92.21 532.43 C 93.16 522.63 93.34 509.85 95.13 501.08 C 96.93 492.32 96.20 488.44 97.71 481.70 C 99.23 474.96 96.60 470.06 98.40 464.26 C 100.20 458.45 100.76 451.78 101.97 445.97 C 103.18 440.15 102.41 436.48 103.07 429.92 C 103.72 423.36 106.82 421.00 106.80 413.75 C 106.78 406.51 109.17 408.80 109.66 399.32 C 110.15 389.84 114.48 377.57 116.13 369.08 C 117.78 360.60 118.69 360.75 120.13 353.08 C 121.57 345.42 123.15 346.74 124.91 337.90 C 126.66 329.06 130.39 318.45 133.58 310.23 C 136.76 302.01 134.99 305.33 138.58 297.23 C 142.16 289.13 146.31 278.59 150.13 272.08 C 153.95 265.57 155.35 264.19 158.75 258.75 C 162.15 253.31 162.82 251.53 167.00 245.00
C 176.15 250.10 182.28 251.69 190.57 254.79 C 198.86 257.89 206.77 261.64 213.13 263.92 C 219.49 266.20 229.17 267.63 236.24 270.21 C 243.30 272.80 257.56 276.79 266.25 278.80 C 274.94 280.81 286.09 284.20 295.25 285.20 C 304.40 286.20 311.79 290.18 321.13 291.92 C 330.47 293.66 337.90 293.94 347.91 296.12 C 357.91 298.30 369.79 299.55 381.75 301.40 C 393.71 303.24 404.79 305.80 415.74 306.40 C 426.69 307.00 436.48 309.63 448.29 310.71 C 460.11 311.79 474.01 312.18 485.68 313.66 C 497.34 315.15 508.39 315.20 523.22 316.22 C 538.05 317.25 553.18 318.24 567.07 318.93 C 580.97 319.61 598.62 317.85 613.00 320.00 Z"/>
</g>
<g fill="None" fill-opacity="0.0" stroke="#000000" stroke-opacity="1.00" stroke-width="0.3"><path d="
M 716.00 318.00 
C 715.66 318.04 713.47 320.80 711.00 320.00 C 708.53 319.20 705.52 320.00 703.00 320.00
C 695.15 320.00 687.00 319.80 680.00 320.00
C 679.47 320.19 674.80 321.54 667.00 321.00 C 659.20 320.46 658.25 321.30 648.00 321.00 C 637.75 320.70 620.47 321.83 613.00 320.00
C 598.62 317.85 580.97 319.61 567.07 318.93 C 553.18 318.24 538.05 317.25 523.22 316.22 C 508.39 315.20 497.34 315.15 485.68 313.66 C 474.01 312.18 460.11 311.79 448.29 310.71 C 436.48 309.63 426.69 307.00 415.74 306.40 C 404.79 305.80 393.71 303.24 381.75 301.40 C 369.79 299.55 357.91 298.30 347.91 296.12 C 337.90 293.94 330.47 293.66 321.13 291.92 C 311.79 290.18 304.40 286.20 295.25 285.20 C 286.09 284.20 274.94 280.81 266.25 278.80 C 257.56 276.79 243.30 272.80 236.24 270.21 C 229.17 267.63 219.49 266.20 213.13 263.92 C 206.77 261.64 198.86 257.89 190.57 254.79 C 182.28 251.69 176.15 250.10 167.00 245.00
C 162.82 251.53 162.15 253.31 158.75 258.75 C 155.35 264.19 153.95 265.57 150.13 272.08 C 146.31 278.59 142.16 289.13 138.58 297.23 C 134.99 305.33 136.76 302.01 133.58 310.23 C 130.39 318.45 126.66 329.06 124.91 337.90 C 123.15 346.74 121.57 345.42 120.13 353.08 C 118.69 360.75 117.78 360.60 116.13 369.08 C 114.48 377.57 110.15 389.84 109.66 399.32 C 109.17 408.80 106.78 406.51 106.80 413.75 C 106.82 421.00 103.72 423.36 103.07 429.92 C 102.41 436.48 103.18 440.15 101.97 445.97 C 100.76 451.78 100.20 458.45 98.40 464.26 C 96.60 470.06 99.23 474.96 97.71 481.70 C 96.20 488.44 96.93 492.32 95.13 501.08 C 93.34 509.85 93.16 522.63 92.21 532.43 C 91.27 542.23 91.27 562.90 89.67 571.33 C 88.07 579.76 91.68 587.83 89.92 594.87 C 88.16 601.91 87.74 606.67 88.67 616.33 C 89.60 625.99 86.62 632.41 88.00 643.00 C 89.38 653.59 87.97 657.31 88.33 669.33 C 88.69 681.35 90.64 699.44 89.67 709.33 C 88.70 719.22 92.81 722.00 91.98 729.98 C 91.14 737.95 93.15 741.47 92.78 748.78 C 92.41 756.09 94.11 760.63 94.60 767.26 C 95.09 773.88 96.51 777.46 97.00 785.00 C 97.49 792.53 97.31 795.66 98.20 803.75 C 99.09 811.84 100.16 809.65 100.94 820.92 C 101.71 832.19 103.24 845.05 105.98 850.97 C 108.71 856.90 105.35 862.27 107.24 867.61 C 109.13 872.95 109.24 873.58 110.20 880.75 C 111.15 887.93 112.00 885.45 113.81 894.75 C 115.62 904.06 117.60 914.49 120.65 922.30 C 123.70 930.12 121.13 930.45 123.74 936.25 C 126.35 942.06 125.66 945.03 127.08 950.87 C 128.50 956.71 130.15 953.38 131.81 961.75 C 133.46 970.13 136.65 977.84 138.74 984.81 C 140.83 991.78 144.89 998.13 147.79 1005.76 C 150.69 1013.40 154.83 1021.16 157.25 1029.75 C 159.68 1038.33 166.72 1032.73 169.43 1031.79 C 172.14 1030.84 178.00 1031.16 181.96 1028.97 C 185.92 1026.79 188.28 1028.60 194.61 1025.76 C 200.94 1022.91 211.04 1020.47 218.43 1018.79 C 225.82 1017.11 224.71 1016.56 232.77 1015.22 C 240.84 1013.88 248.92 1011.72 256.99 1010.99 C 265.06 1010.26 265.82 1007.68 273.43 1006.79 C 281.04 1005.90 291.79 1003.10 299.32 1002.66 C 306.85 1002.22 307.74 999.42 312.61 999.24 C 317.48 999.07 319.20 998.48 325.75 997.20 C 332.31 995.92 334.74 996.92 340.75 995.76 C 346.77 994.59 353.26 993.56 358.75 992.20 C 364.25 990.84 370.27 992.12 375.71 990.71 C 381.14 989.30 386.16 988.91 391.71 988.71 C 397.25 988.50 403.54 985.65 409.08 986.13 C 414.63 986.62 424.65 982.20 423.00 985.00
C 428.24 983.19 434.52 982.94 439.71 982.71 C 444.89 982.48 450.56 979.77 455.78 980.22 C 460.99 980.67 465.13 978.22 470.98 978.02 C 476.82 977.82 483.07 977.79 488.75 977.19 C 494.42 976.59 497.14 975.86 502.97 975.02 C 508.81 974.18 514.13 976.55 520.78 974.22 C 527.43 971.89 528.52 975.95 537.99 973.99 C 547.45 972.03 564.32 970.76 574.98 971.02 C 585.63 971.29 598.39 968.65 611.00 970.00 C 623.61 971.35 624.48 968.58 634.00 968.00 C 643.52 967.42 650.21 968.31 659.00 968.00 C 667.79 967.69 675.63 968.24 684.00 968.00 C 692.37 967.76 699.97 968.34 708.00 968.00 C 716.03 967.66 725.36 968.64 733.00 968.00 C 740.64 967.36 750.46 968.61 755.93 969.93 C 761.40 971.25 773.47 968.44 777.61 969.25 C 781.75 970.05 788.30 969.41 794.31 970.35 C 800.31 971.29 811.16 967.54 810.00 972.00
C 850.97 972.29 901.46 977.27 937.25 982.41 C 973.04 987.55 1001.77 993.52 1039.25 1002.74 C 1076.72 1011.95 1107.88 1021.92 1140.00 1035.00
C 1141.72 1022.40 1146.56 1009.92 1148.21 999.57 C 1149.86 989.22 1154.79 974.22 1156.21 962.57 C 1157.63 950.92 1162.27 938.29 1163.80 925.25 C 1165.33 912.21 1167.91 902.46 1170.98 887.03 C 1174.04 871.60 1173.50 857.39 1176.29 841.30 C 1179.08 825.20 1181.31 812.16 1182.99 796.01 C 1184.68 779.86 1185.43 759.76 1187.60 741.75 C 1189.78 723.74 1188.87 706.76 1190.07 687.08 C 1191.27 667.39 1191.72 641.61 1191.00 620.00 C 1190.28 598.39 1191.78 573.79 1190.67 554.67 C 1189.56 535.56 1188.09 519.07 1186.93 500.08 C 1185.78 481.10 1182.57 470.64 1181.40 453.75 C 1180.22 436.87 1177.22 423.87 1175.19 409.25 C 1173.16 394.64 1169.75 380.70 1167.07 368.08 C 1164.38 355.46 1163.21 341.29 1159.12 327.90 C 1155.02 314.51 1153.33 300.38 1148.57 286.77 C 1143.82 273.15 1140.15 262.08 1136.00 248.00
C 1103.66 257.47 1075.03 268.18 1041.03 275.98 C 1007.02 283.78 979.55 289.07 945.70 294.69 C 911.84 300.31 874.03 307.47 835.89 309.89 C 797.76 312.31 757.75 321.31 716.00 318.00
M 490.00 391.00 
C 493.75 391.00 497.99 391.71 501.00 392.00
C 505.00 392.00 509.00 392.00 513.00 392.00
C 516.75 392.00 520.99 392.71 524.00 393.00
C 530.33 393.00 536.67 393.00 543.00 393.00
C 547.74 393.00 553.01 393.61 557.00 394.00
C 594.08 394.00 631.17 396.34 668.00 394.00
C 668.00 561.67 668.00 729.33 668.00 897.00
C 659.00 897.00 650.00 897.00 641.00 897.00
C 634.32 897.65 626.37 898.00 619.00 898.00
C 549.40 898.00 473.24 905.61 406.00 913.00 C 338.75 920.38 279.07 929.69 217.00 953.00
C 187.74 868.31 171.65 779.57 168.00 688.00
C 167.67 684.60 167.00 680.08 167.00 676.00
C 167.00 669.33 167.00 662.67 167.00 656.00
C 165.75 643.12 165.76 627.81 167.00 615.00
C 167.00 608.00 167.00 601.00 167.00 594.00
C 167.00 589.59 167.65 584.66 168.00 581.00
C 168.00 501.06 184.81 422.98 201.00 347.00
C 292.87 378.07 391.43 385.31 490.00 391.00
M 926.00 466.00 
C 926.00 592.00 926.00 718.00 926.00 844.00
C 898.33 844.00 870.67 844.00 843.00 844.00
C 843.00 718.00 843.00 592.00 843.00 466.00
C 870.67 466.00 898.33 466.00 926.00 466.00 Z"/>
</g>
<g fill="None" fill-opacity="0.0" stroke="#000000" stroke-opacity="0.51" stroke-width="0.3"><path d="
M 703.00 320.00 
C 705.52 320.00 708.53 319.20 711.00 320.00 C 713.47 320.80 715.66 318.04 716.00 318.00
C 710.93 317.60 705.90 319.39 703.00 320.00 Z"/>
</g>
<g fill="None" fill-opacity="0.0" stroke="#000000" stroke-opacity="0.53" stroke-width="0.3"><path d="
M 613.00 320.00 
C 620.47 321.83 637.75 320.70 648.00 321.00 C 658.25 321.30 659.20 320.46 667.00 321.00 C 674.80 321.54 679.47 320.19 680.00 320.00
C 669.26 320.31 657.12 318.85 646.00 319.00 C 634.88 319.15 623.69 320.06 613.00 320.00 Z"/>
</g>
<g fill="None" fill-opacity="0.0" stroke="#FEFEFE" stroke-opacity="1.00" stroke-width="0.3"><path d="
M 168.00 581.00 
C 168.00 585.41 167.35 590.34 167.00 594.00
C 167.00 601.00 167.00 608.00 167.00 615.00
C 167.00 628.66 167.00 642.33 167.00 656.00
C 167.00 662.67 167.00 669.33 167.00 676.00
C 167.33 679.40 168.00 683.92 168.00 688.00
C 171.65 779.57 187.74 868.31 217.00 953.00
C 279.07 929.69 338.75 920.38 406.00 913.00 C 473.24 905.61 549.40 898.00 619.00 898.00
C 625.68 897.35 633.63 897.00 641.00 897.00
C 650.00 897.00 659.00 897.00 668.00 897.00
C 668.00 729.33 668.00 561.67 668.00 394.00
C 631.17 396.34 594.08 394.00 557.00 394.00
C 552.26 394.00 546.99 393.39 543.00 393.00
C 536.67 393.00 530.33 393.00 524.00 393.00
C 520.25 393.00 516.01 392.29 513.00 392.00
C 509.00 392.00 505.00 392.00 501.00 392.00
C 497.25 392.00 493.01 391.29 490.00 391.00
C 391.43 385.31 292.87 378.07 201.00 347.00
C 184.81 422.98 168.00 501.06 168.00 581.00
M 378.00 466.00 
C 384.15 473.13 383.14 485.67 387.98 494.02 C 392.82 502.38 394.69 513.28 398.78 522.22 C 402.86 531.17 405.52 541.49 409.32 550.68 C 413.12 559.87 416.45 569.73 419.93 579.07 C 423.40 588.42 426.98 597.24 430.32 606.68 C 433.66 616.12 437.66 625.54 440.93 635.07 C 444.19 644.60 448.50 653.67 451.78 663.22 C 455.05 672.78 459.07 682.31 462.00 692.00
C 460.05 668.95 457.40 646.24 458.00 621.00 C 458.60 595.76 457.69 568.60 458.00 543.00 C 458.31 517.40 457.77 490.70 458.00 465.00
C 460.64 461.22 474.95 464.58 480.00 464.00 C 485.05 463.42 497.91 463.24 503.00 464.00 C 508.09 464.76 523.27 461.10 526.00 465.00
C 529.29 469.70 524.51 480.04 526.00 486.00 C 527.49 491.96 525.33 500.47 526.00 507.00 C 526.67 513.53 525.70 521.21 526.00 528.00 C 526.30 534.79 525.86 542.10 526.00 549.00 C 526.14 555.90 525.94 563.04 526.00 570.00 C 526.06 576.96 525.97 584.02 526.00 591.00 C 526.03 597.98 525.99 605.01 526.00 612.00 C 526.01 618.99 525.99 626.00 526.00 633.00 C 526.01 640.00 526.00 647.00 526.00 654.00 C 526.00 661.00 526.00 668.00 526.00 675.00 C 526.00 682.00 526.00 689.00 526.00 696.00 C 526.00 703.00 526.00 710.00 526.00 717.00 C 526.00 724.00 526.00 731.00 526.00 738.00 C 526.00 745.00 526.00 752.00 526.00 759.00 C 526.00 766.00 526.00 773.00 526.00 780.00 C 526.00 787.00 526.00 794.00 526.00 801.00 C 526.00 808.00 526.00 815.00 526.00 822.00 C 526.00 829.00 526.00 836.00 526.00 843.00
C 508.52 844.30 490.42 841.27 473.00 843.00 C 455.58 844.73 456.08 824.34 450.22 811.78 C 444.36 799.22 441.22 785.82 436.02 772.98 C 430.83 760.13 426.11 746.76 421.22 733.78 C 416.34 720.79 411.88 707.98 407.07 694.93 C 402.27 681.88 397.09 668.87 392.22 655.78 C 387.35 642.69 382.80 629.14 378.00 616.00
C 376.40 626.92 378.18 638.35 379.00 650.00 C 379.82 661.66 380.28 673.75 380.00 686.00 C 379.72 698.25 380.17 711.63 380.00 724.00 C 379.83 736.37 380.16 748.59 380.00 761.00 C 379.84 773.41 380.26 785.50 380.00 798.00 C 379.74 810.50 380.51 823.41 380.00 836.00 C 379.49 848.59 360.70 841.67 350.00 843.00 C 339.30 844.33 323.19 842.00 312.00 843.00
C 307.67 839.97 312.28 827.73 311.00 822.00 C 309.72 816.27 311.55 806.74 311.00 800.00 C 310.45 793.26 311.26 784.15 311.00 777.00 C 310.74 769.85 311.11 762.35 311.00 755.00 C 310.89 747.65 311.05 739.44 311.00 732.00 C 310.95 724.56 311.02 717.48 311.00 710.00 C 310.98 702.52 311.01 694.49 311.00 687.00 C 310.99 679.51 311.00 672.49 311.00 665.00 C 311.00 657.51 311.00 649.47 311.00 642.00 C 311.00 634.53 310.99 627.43 311.00 620.00 C 311.01 612.57 310.97 605.45 311.00 598.00 C 311.03 590.55 310.95 582.43 311.00 575.00 C 311.05 567.57 310.87 560.35 311.00 553.00 C 311.13 545.65 310.73 537.18 311.00 530.00 C 311.27 522.82 310.38 514.74 311.00 508.00 C 311.62 501.26 309.69 490.88 311.00 485.00 C 312.31 479.12 307.36 467.42 312.26 464.26 C 317.16 461.09 329.06 465.03 335.00 464.00 C 340.94 462.97 351.00 463.76 357.00 464.00 C 363.00 464.24 374.17 461.57 378.00 466.00 Z"/>
</g>
<g fill="None" fill-opacity="0.0" stroke="#797979" stroke-opacity="1.00" stroke-width="0.3"><path d="
M 501.00 392.00 
C 497.99 391.71 493.75 391.00 490.00 391.00
C 493.01 391.29 497.25 392.00 501.00 392.00 Z"/>
</g>
<g fill="None" fill-opacity="0.0" stroke="#737373" stroke-opacity="1.00" stroke-width="0.3"><path d="
M 524.00 393.00 
C 520.99 392.71 516.75 392.00 513.00 392.00
C 516.01 392.29 520.25 393.00 524.00 393.00 Z"/>
</g>
<g fill="None" fill-opacity="0.0" stroke="#656565" stroke-opacity="1.00" stroke-width="0.3"><path d="
M 557.00 394.00 
C 553.01 393.61 547.74 393.00 543.00 393.00
C 546.99 393.39 552.26 394.00 557.00 394.00 Z"/>
</g>
<g fill="None" fill-opacity="0.0" stroke="#777777" stroke-opacity="1.00" stroke-width="0.3"><path d="
M 312.00 843.00 
C 312.00 717.00 312.00 591.00 312.00 465.00
C 333.91 465.66 356.53 463.67 378.00 466.00
C 374.17 461.57 363.00 464.24 357.00 464.00 C 351.00 463.76 340.94 462.97 335.00 464.00 C 329.06 465.03 317.16 461.09 312.26 464.26 C 307.36 467.42 312.31 479.12 311.00 485.00 C 309.69 490.88 311.62 501.26 311.00 508.00 C 310.38 514.74 311.27 522.82 311.00 530.00 C 310.73 537.18 311.13 545.65 311.00 553.00 C 310.87 560.35 311.05 567.57 311.00 575.00 C 310.95 582.43 311.03 590.55 311.00 598.00 C 310.97 605.45 311.01 612.57 311.00 620.00 C 310.99 627.43 311.00 634.53 311.00 642.00 C 311.00 649.47 311.00 657.51 311.00 665.00 C 311.00 672.49 310.99 679.51 311.00 687.00 C 311.01 694.49 310.98 702.52 311.00 710.00 C 311.02 717.48 310.95 724.56 311.00 732.00 C 311.05 739.44 310.89 747.65 311.00 755.00 C 311.11 762.35 310.74 769.85 311.00 777.00 C 311.26 784.15 310.45 793.26 311.00 800.00 C 311.55 806.74 309.72 816.27 311.00 822.00 C 312.28 827.73 307.67 839.97 312.00 843.00 Z"/>
</g>
<g fill="None" fill-opacity="0.0" stroke="#737373" stroke-opacity="1.00" stroke-width="0.3"><path d="
M 458.00 465.00 
C 480.67 465.00 503.33 465.00 526.00 465.00
C 523.27 461.10 508.09 464.76 503.00 464.00 C 497.91 463.24 485.05 463.42 480.00 464.00 C 474.95 464.58 460.64 461.22 458.00 465.00 Z"/>
</g>
<g fill="None" fill-opacity="0.0" stroke="#000000" stroke-opacity="1.00" stroke-width="0.3"><path d="
M 312.00 843.00 
C 323.19 842.00 339.30 844.33 350.00 843.00 C 360.70 841.67 379.49 848.59 380.00 836.00 C 380.51 823.41 379.74 810.50 380.00 798.00 C 380.26 785.50 379.84 773.41 380.00 761.00 C 380.16 748.59 379.83 736.37 380.00 724.00 C 380.17 711.63 379.72 698.25 380.00 686.00 C 380.28 673.75 379.82 661.66 379.00 650.00 C 378.18 638.35 376.40 626.92 378.00 616.00
C 382.80 629.14 387.35 642.69 392.22 655.78 C 397.09 668.87 402.27 681.88 407.07 694.93 C 411.88 707.98 416.34 720.79 421.22 733.78 C 426.11 746.76 430.83 760.13 436.02 772.98 C 441.22 785.82 444.36 799.22 450.22 811.78 C 456.08 824.34 455.58 844.73 473.00 843.00 C 490.42 841.27 508.52 844.30 526.00 843.00
C 526.00 836.00 526.00 829.00 526.00 822.00 C 526.00 815.00 526.00 808.00 526.00 801.00 C 526.00 794.00 526.00 787.00 526.00 780.00 C 526.00 773.00 526.00 766.00 526.00 759.00 C 526.00 752.00 526.00 745.00 526.00 738.00 C 526.00 731.00 526.00 724.00 526.00 717.00 C 526.00 710.00 526.00 703.00 526.00 696.00 C 526.00 689.00 526.00 682.00 526.00 675.00 C 526.00 668.00 526.00 661.00 526.00 654.00 C 526.00 647.00 526.01 640.00 526.00 633.00 C 525.99 626.00 526.01 618.99 526.00 612.00 C 525.99 605.01 526.03 597.98 526.00 591.00 C 525.97 584.02 526.06 576.96 526.00 570.00 C 525.94 563.04 526.14 555.90 526.00 549.00 C 525.86 542.10 526.30 534.79 526.00 528.00 C 525.70 521.21 526.67 513.53 526.00 507.00 C 525.33 500.47 527.49 491.96 526.00 486.00 C 524.51 480.04 529.29 469.70 526.00 465.00
C 503.33 465.00 480.67 465.00 458.00 465.00
C 457.77 490.70 458.31 517.40 458.00 543.00 C 457.69 568.60 458.60 595.76 458.00 621.00 C 457.40 646.24 460.05 668.95 462.00 692.00
C 459.07 682.31 455.05 672.78 451.78 663.22 C 448.50 653.67 444.19 644.60 440.93 635.07 C 437.66 625.54 433.66 616.12 430.32 606.68 C 426.98 597.24 423.40 588.42 419.93 579.07 C 416.45 569.73 413.12 559.87 409.32 550.68 C 405.52 541.49 402.86 531.17 398.78 522.22 C 394.69 513.28 392.82 502.38 387.98 494.02 C 383.14 485.67 384.15 473.13 378.00 466.00
C 356.53 463.67 333.91 465.66 312.00 465.00
C 312.00 591.00 312.00 717.00 312.00 843.00 Z"/>
</g>
<g fill="None" fill-opacity="0.0" stroke="#FDFDFD" stroke-opacity="1.00" stroke-width="0.3"><path d="
M 926.00 466.00 
C 898.33 466.00 870.67 466.00 843.00 466.00
C 843.00 592.00 843.00 718.00 843.00 844.00
C 870.67 844.00 898.33 844.00 926.00 844.00
C 926.00 718.00 926.00 592.00 926.00 466.00 Z"/>
</g>
<g fill="None" fill-opacity="0.0" stroke="#7E7E7E" stroke-opacity="1.00" stroke-width="0.3"><path d="
M 167.00 594.00 
C 167.35 590.34 168.00 585.41 168.00 581.00
C 167.65 584.66 167.00 589.59 167.00 594.00 Z"/>
</g>
<g fill="None" fill-opacity="0.0" stroke="#787878" stroke-opacity="1.00" stroke-width="0.3"><path d="
M 167.00 656.00 
C 167.00 642.33 167.00 628.66 167.00 615.00
C 165.76 627.81 165.75 643.12 167.00 656.00 Z"/>
</g>
<g fill="None" fill-opacity="0.0" stroke="#7D7D7D" stroke-opacity="1.00" stroke-width="0.3"><path d="
M 168.00 688.00 
C 168.00 683.92 167.33 679.40 167.00 676.00
C 167.00 680.08 167.67 684.60 168.00 688.00 Z"/>
</g>
<g fill="None" fill-opacity="0.0" stroke="#898989" stroke-opacity="1.00" stroke-width="0.3"><path d="
M 619.00 898.00 
C 626.37 898.00 634.32 897.65 641.00 897.00
C 633.63 897.00 625.68 897.35 619.00 898.00 Z"/>
</g>
<g fill="#000000" fill-opacity="0.00" stroke="None">
<path d="
M 0.00 1280.00 
L 1280.00 1280.00
L 1280.00 0.00
L 0.00 0.00
L 0.00 1280.00
M 613.00 320.00 
C 623.69 320.06 634.88 319.15 646.00 319.00 C 657.12 318.85 669.26 320.31 680.00 320.00
C 687.00 319.80 695.15 320.00 703.00 320.00
C 705.90 319.39 710.93 317.60 716.00 318.00
C 757.75 321.31 797.76 312.31 835.89 309.89 C 874.03 307.47 911.84 300.31 945.70 294.69 C 979.55 289.07 1007.02 283.78 1041.03 275.98 C 1075.03 268.18 1103.66 257.47 1136.00 248.00
C 1140.15 262.08 1143.82 273.15 1148.57 286.77 C 1153.33 300.38 1155.02 314.51 1159.12 327.90 C 1163.21 341.29 1164.38 355.46 1167.07 368.08 C 1169.75 380.70 1173.16 394.64 1175.19 409.25 C 1177.22 423.87 1180.22 436.87 1181.40 453.75 C 1182.57 470.64 1185.78 481.10 1186.93 500.08 C 1188.09 519.07 1189.56 535.56 1190.67 554.67 C 1191.78 573.79 1190.28 598.39 1191.00 620.00 C 1191.72 641.61 1191.27 667.39 1190.07 687.08 C 1188.87 706.76 1189.78 723.74 1187.60 741.75 C 1185.43 759.76 1184.68 779.86 1182.99 796.01 C 1181.31 812.16 1179.08 825.20 1176.29 841.30 C 1173.50 857.39 1174.04 871.60 1170.98 887.03 C 1167.91 902.46 1165.33 912.21 1163.80 925.25 C 1162.27 938.29 1157.63 950.92 1156.21 962.57 C 1154.79 974.22 1149.86 989.22 1148.21 999.57 C 1146.56 1009.92 1141.72 1022.40 1140.00 1035.00
C 1107.88 1021.92 1076.72 1011.95 1039.25 1002.74 C 1001.77 993.52 973.04 987.55 937.25 982.41 C 901.46 977.27 850.97 972.29 810.00 972.00
C 811.16 967.54 800.31 971.29 794.31 970.35 C 788.30 969.41 781.75 970.05 777.61 969.25 C 773.47 968.44 761.40 971.25 755.93 969.93 C 750.46 968.61 740.64 967.36 733.00 968.00 C 725.36 968.64 716.03 967.66 708.00 968.00 C 699.97 968.34 692.37 967.76 684.00 968.00 C 675.63 968.24 667.79 967.69 659.00 968.00 C 650.21 968.31 643.52 967.42 634.00 968.00 C 624.48 968.58 623.61 971.35 611.00 970.00 C 598.39 968.65 585.63 971.29 574.98 971.02 C 564.32 970.76 547.45 972.03 537.99 973.99 C 528.52 975.95 527.43 971.89 520.78 974.22 C 514.13 976.55 508.81 974.18 502.97 975.02 C 497.14 975.86 494.42 976.59 488.75 977.19 C 483.07 977.79 476.82 977.82 470.98 978.02 C 465.13 978.22 460.99 980.67 455.78 980.22 C 450.56 979.77 444.89 982.48 439.71 982.71 C 434.52 982.94 428.24 983.19 423.00 985.00
C 424.65 982.20 414.63 986.62 409.08 986.13 C 403.54 985.65 397.25 988.50 391.71 988.71 C 386.16 988.91 381.14 989.30 375.71 990.71 C 370.27 992.12 364.25 990.84 358.75 992.20 C 353.26 993.56 346.77 994.59 340.75 995.76 C 334.74 996.92 332.31 995.92 325.75 997.20 C 319.20 998.48 317.48 999.07 312.61 999.24 C 307.74 999.42 306.85 1002.22 299.32 1002.66 C 291.79 1003.10 281.04 1005.90 273.43 1006.79 C 265.82 1007.68 265.06 1010.26 256.99 1010.99 C 248.92 1011.72 240.84 1013.88 232.77 1015.22 C 224.71 1016.56 225.82 1017.11 218.43 1018.79 C 211.04 1020.47 200.94 1022.91 194.61 1025.76 C 188.28 1028.60 185.92 1026.79 181.96 1028.97 C 178.00 1031.16 172.14 1030.84 169.43 1031.79 C 166.72 1032.73 159.68 1038.33 157.25 1029.75 C 154.83 1021.16 150.69 1013.40 147.79 1005.76 C 144.89 998.13 140.83 991.78 138.74 984.81 C 136.65 977.84 133.46 970.13 131.81 961.75 C 130.15 953.38 128.50 956.71 127.08 950.87 C 125.66 945.03 126.35 942.06 123.74 936.25 C 121.13 930.45 123.70 930.12 120.65 922.30 C 117.60 914.49 115.62 904.06 113.81 894.75 C 112.00 885.45 111.15 887.93 110.20 880.75 C 109.24 873.58 109.13 872.95 107.24 867.61 C 105.35 862.27 108.71 856.90 105.98 850.97 C 103.24 845.05 101.71 832.19 100.94 820.92 C 100.16 809.65 99.09 811.84 98.20 803.75 C 97.31 795.66 97.49 792.53 97.00 785.00 C 96.51 777.46 95.09 773.88 94.60 767.26 C 94.11 760.63 92.41 756.09 92.78 748.78 C 93.15 741.47 91.14 737.95 91.98 729.98 C 92.81 722.00 88.70 719.22 89.67 709.33 C 90.64 699.44 88.69 681.35 88.33 669.33 C 87.97 657.31 89.38 653.59 88.00 643.00 C 86.62 632.41 89.60 625.99 88.67 616.33 C 87.74 606.67 88.16 601.91 89.92 594.87 C 91.68 587.83 88.07 579.76 89.67 571.33 C 91.27 562.90 91.27 542.23 92.21 532.43 C 93.16 522.63 93.34 509.85 95.13 501.08 C 96.93 492.32 96.20 488.44 97.71 481.70 C 99.23 474.96 96.60 470.06 98.40 464.26 C 100.20 458.45 100.76 451.78 101.97 445.97 C 103.18 440.15 102.41 436.48 103.07 429.92 C 103.72 423.36 106.82 421.00 106.80 413.75 C 106.78 406.51 109.17 408.80 109.66 399.32 C 110.15 389.84 114.48 377.57 116.13 369.08 C 117.78 360.60 118.69 360.75 120.13 353.08 C 121.57 345.42 123.15 346.74 124.91 337.90 C 126.66 329.06 130.39 318.45 133.58 310.23 C 136.76 302.01 134.99 305.33 138.58 297.23 C 142.16 289.13 146.31 278.59 150.13 272.08 C 153.95 265.57 155.35 264.19 158.75 258.75 C 162.15 253.31 162.82 251.53 167.00 245.00
C 176.15 250.10 182.28 251.69 190.57 254.79 C 198.86 257.89 206.77 261.64 213.13 263.92 C 219.49 266.20 229.17 267.63 236.24 270.21 C 243.30 272.80 257.56 276.79 266.25 278.80 C 274.94 280.81 286.09 284.20 295.25 285.20 C 304.40 286.20 311.79 290.18 321.13 291.92 C 330.47 293.66 337.90 293.94 347.91 296.12 C 357.91 298.30 369.79 299.55 381.75 301.40 C 393.71 303.24 404.79 305.80 415.74 306.40 C 426.69 307.00 436.48 309.63 448.29 310.71 C 460.11 311.79 474.01 312.18 485.68 313.66 C 497.34 315.15 508.39 315.20 523.22 316.22 C 538.05 317.25 553.18 318.24 567.07 318.93 C 580.97 319.61 598.62 317.85 613.00 320.00 Z"/>
</g>
<g fill="#000000" fill-opacity="1.00" stroke="None">
<path d="
M 716.00 318.00 
C 715.66 318.04 713.47 320.80 711.00 320.00 C 708.53 319.20 705.52 320.00 703.00 320.00
C 695.15 320.00 687.00 319.80 680.00 320.00
C 679.47 320.19 674.80 321.54 667.00 321.00 C 659.20 320.46 658.25 321.30 648.00 321.00 C 637.75 320.70 620.47 321.83 613.00 320.00
C 598.62 317.85 580.97 319.61 567.07 318.93 C 553.18 318.24 538.05 317.25 523.22 316.22 C 508.39 315.20 497.34 315.15 485.68 313.66 C 474.01 312.18 460.11 311.79 448.29 310.71 C 436.48 309.63 426.69 307.00 415.74 306.40 C 404.79 305.80 393.71 303.24 381.75 301.40 C 369.79 299.55 357.91 298.30 347.91 296.12 C 337.90 293.94 330.47 293.66 321.13 291.92 C 311.79 290.18 304.40 286.20 295.25 285.20 C 286.09 284.20 274.94 280.81 266.25 278.80 C 257.56 276.79 243.30 272.80 236.24 270.21 C 229.17 267.63 219.49 266.20 213.13 263.92 C 206.77 261.64 198.86 257.89 190.57 254.79 C 182.28 251.69 176.15 250.10 167.00 245.00
C 162.82 251.53 162.15 253.31 158.75 258.75 C 155.35 264.19 153.95 265.57 150.13 272.08 C 146.31 278.59 142.16 289.13 138.58 297.23 C 134.99 305.33 136.76 302.01 133.58 310.23 C 130.39 318.45 126.66 329.06 124.91 337.90 C 123.15 346.74 121.57 345.42 120.13 353.08 C 118.69 360.75 117.78 360.60 116.13 369.08 C 114.48 377.57 110.15 389.84 109.66 399.32 C 109.17 408.80 106.78 406.51 106.80 413.75 C 106.82 421.00 103.72 423.36 103.07 429.92 C 102.41 436.48 103.18 440.15 101.97 445.97 C 100.76 451.78 100.20 458.45 98.40 464.26 C 96.60 470.06 99.23 474.96 97.71 481.70 C 96.20 488.44 96.93 492.32 95.13 501.08 C 93.34 509.85 93.16 522.63 92.21 532.43 C 91.27 542.23 91.27 562.90 89.67 571.33 C 88.07 579.76 91.68 587.83 89.92 594.87 C 88.16 601.91 87.74 606.67 88.67 616.33 C 89.60 625.99 86.62 632.41 88.00 643.00 C 89.38 653.59 87.97 657.31 88.33 669.33 C 88.69 681.35 90.64 699.44 89.67 709.33 C 88.70 719.22 92.81 722.00 91.98 729.98 C 91.14 737.95 93.15 741.47 92.78 748.78 C 92.41 756.09 94.11 760.63 94.60 767.26 C 95.09 773.88 96.51 777.46 97.00 785.00 C 97.49 792.53 97.31 795.66 98.20 803.75 C 99.09 811.84 100.16 809.65 100.94 820.92 C 101.71 832.19 103.24 845.05 105.98 850.97 C 108.71 856.90 105.35 862.27 107.24 867.61 C 109.13 872.95 109.24 873.58 110.20 880.75 C 111.15 887.93 112.00 885.45 113.81 894.75 C 115.62 904.06 117.60 914.49 120.65 922.30 C 123.70 930.12 121.13 930.45 123.74 936.25 C 126.35 942.06 125.66 945.03 127.08 950.87 C 128.50 956.71 130.15 953.38 131.81 961.75 C 133.46 970.13 136.65 977.84 138.74 984.81 C 140.83 991.78 144.89 998.13 147.79 1005.76 C 150.69 1013.40 154.83 1021.16 157.25 1029.75 C 159.68 1038.33 166.72 1032.73 169.43 1031.79 C 172.14 1030.84 178.00 1031.16 181.96 1028.97 C 185.92 1026.79 188.28 1028.60 194.61 1025.76 C 200.94 1022.91 211.04 1020.47 218.43 1018.79 C 225.82 1017.11 224.71 1016.56 232.77 1015.22 C 240.84 1013.88 248.92 1011.72 256.99 1010.99 C 265.06 1010.26 265.82 1007.68 273.43 1006.79 C 281.04 1005.90 291.79 1003.10 299.32 1002.66 C 306.85 1002.22 307.74 999.42 312.61 999.24 C 317.48 999.07 319.20 998.48 325.75 997.20 C 332.31 995.92 334.74 996.92 340.75 995.76 C 346.77 994.59 353.26 993.56 358.75 992.20 C 364.25 990.84 370.27 992.12 375.71 990.71 C 381.14 989.30 386.16 988.91 391.71 988.71 C 397.25 988.50 403.54 985.65 409.08 986.13 C 414.63 986.62 424.65 982.20 423.00 985.00
C 428.24 983.19 434.52 982.94 439.71 982.71 C 444.89 982.48 450.56 979.77 455.78 980.22 C 460.99 980.67 465.13 978.22 470.98 978.02 C 476.82 977.82 483.07 977.79 488.75 977.19 C 494.42 976.59 497.14 975.86 502.97 975.02 C 508.81 974.18 514.13 976.55 520.78 974.22 C 527.43 971.89 528.52 975.95 537.99 973.99 C 547.45 972.03 564.32 970.76 574.98 971.02 C 585.63 971.29 598.39 968.65 611.00 970.00 C 623.61 971.35 624.48 968.58 634.00 968.00 C 643.52 967.42 650.21 968.31 659.00 968.00 C 667.79 967.69 675.63 968.24 684.00 968.00 C 692.37 967.76 699.97 968.34 708.00 968.00 C 716.03 967.66 725.36 968.64 733.00 968.00 C 740.64 967.36 750.46 968.61 755.93 969.93 C 761.40 971.25 773.47 968.44 777.61 969.25 C 781.75 970.05 788.30 969.41 794.31 970.35 C 800.31 971.29 811.16 967.54 810.00 972.00
C 850.97 972.29 901.46 977.27 937.25 982.41 C 973.04 987.55 1001.77 993.52 1039.25 1002.74 C 1076.72 1011.95 1107.88 1021.92 1140.00 1035.00
C 1141.72 1022.40 1146.56 1009.92 1148.21 999.57 C 1149.86 989.22 1154.79 974.22 1156.21 962.57 C 1157.63 950.92 1162.27 938.29 1163.80 925.25 C 1165.33 912.21 1167.91 902.46 1170.98 887.03 C 1174.04 871.60 1173.50 857.39 1176.29 841.30 C 1179.08 825.20 1181.31 812.16 1182.99 796.01 C 1184.68 779.86 1185.43 759.76 1187.60 741.75 C 1189.78 723.74 1188.87 706.76 1190.07 687.08 C 1191.27 667.39 1191.72 641.61 1191.00 620.00 C 1190.28 598.39 1191.78 573.79 1190.67 554.67 C 1189.56 535.56 1188.09 519.07 1186.93 500.08 C 1185.78 481.10 1182.57 470.64 1181.40 453.75 C 1180.22 436.87 1177.22 423.87 1175.19 409.25 C 1173.16 394.64 1169.75 380.70 1167.07 368.08 C 1164.38 355.46 1163.21 341.29 1159.12 327.90 C 1155.02 314.51 1153.33 300.38 1148.57 286.77 C 1143.82 273.15 1140.15 262.08 1136.00 248.00
C 1103.66 257.47 1075.03 268.18 1041.03 275.98 C 1007.02 283.78 979.55 289.07 945.70 294.69 C 911.84 300.31 874.03 307.47 835.89 309.89 C 797.76 312.31 757.75 321.31 716.00 318.00
M 490.00 391.00 
C 493.75 391.00 497.99 391.71 501.00 392.00
C 505.00 392.00 509.00 392.00 513.00 392.00
C 516.75 392.00 520.99 392.71 524.00 393.00
C 530.33 393.00 536.67 393.00 543.00 393.00
C 547.74 393.00 553.01 393.61 557.00 394.00
C 594.08 394.00 631.17 396.34 668.00 394.00
C 668.00 561.67 668.00 729.33 668.00 897.00
C 659.00 897.00 650.00 897.00 641.00 897.00
C 634.32 897.65 626.37 898.00 619.00 898.00
C 549.40 898.00 473.24 905.61 406.00 913.00 C 338.75 920.38 279.07 929.69 217.00 953.00
C 187.74 868.31 171.65 779.57 168.00 688.00
C 167.67 684.60 167.00 680.08 167.00 676.00
C 167.00 669.33 167.00 662.67 167.00 656.00
C 165.75 643.12 165.76 627.81 167.00 615.00
C 167.00 608.00 167.00 601.00 167.00 594.00
C 167.00 589.59 167.65 584.66 168.00 581.00
C 168.00 501.06 184.81 422.98 201.00 347.00
C 292.87 378.07 391.43 385.31 490.00 391.00
M 926.00 466.00 
C 926.00 592.00 926.00 718.00 926.00 844.00
C 898.33 844.00 870.67 844.00 843.00 844.00
C 843.00 718.00 843.00 592.00 843.00 466.00
C 870.67 466.00 898.33 466.00 926.00 466.00 Z"/>
</g>
<g fill="#000000" fill-opacity="0.51" stroke="None">
<path d="
M 703.00 320.00 
C 705.52 320.00 708.53 319.20 711.00 320.00 C 713.47 320.80 715.66 318.04 716.00 318.00
C 710.93 317.60 705.90 319.39 703.00 320.00 Z"/>
</g>
<g fill="#000000" fill-opacity="0.53" stroke="None">
<path d="
M 613.00 320.00 
C 620.47 321.83 637.75 320.70 648.00 321.00 C 658.25 321.30 659.20 320.46 667.00 321.00 C 674.80 321.54 679.47 320.19 680.00 320.00
C 669.26 320.31 657.12 318.85 646.00 319.00 C 634.88 319.15 623.69 320.06 613.00 320.00 Z"/>
</g>
<g fill="#FEFEFE" fill-opacity="1.00" stroke="None">
<path d="
M 168.00 581.00 
C 168.00 585.41 167.35 590.34 167.00 594.00
C 167.00 601.00 167.00 608.00 167.00 615.00
C 167.00 628.66 167.00 642.33 167.00 656.00
C 167.00 662.67 167.00 669.33 167.00 676.00
C 167.33 679.40 168.00 683.92 168.00 688.00
C 171.65 779.57 187.74 868.31 217.00 953.00
C 279.07 929.69 338.75 920.38 406.00 913.00 C 473.24 905.61 549.40 898.00 619.00 898.00
C 625.68 897.35 633.63 897.00 641.00 897.00
C 650.00 897.00 659.00 897.00 668.00 897.00
C 668.00 729.33 668.00 561.67 668.00 394.00
C 631.17 396.34 594.08 394.00 557.00 394.00
C 552.26 394.00 546.99 393.39 543.00 393.00
C 536.67 393.00 530.33 393.00 524.00 393.00
C 520.25 393.00 516.01 392.29 513.00 392.00
C 509.00 392.00 505.00 392.00 501.00 392.00
C 497.25 392.00 493.01 391.29 490.00 391.00
C 391.43 385.31 292.87 378.07 201.00 347.00
C 184.81 422.98 168.00 501.06 168.00 581.00
M 378.00 466.00 
C 384.15 473.13 383.14 485.67 387.98 494.02 C 392.82 502.38 394.69 513.28 398.78 522.22 C 402.86 531.17 405.52 541.49 409.32 550.68 C 413.12 559.87 416.45 569.73 419.93 579.07 C 423.40 588.42 426.98 597.24 430.32 606.68 C 433.66 616.12 437.66 625.54 440.93 635.07 C 444.19 644.60 448.50 653.67 451.78 663.22 C 455.05 672.78 459.07 682.31 462.00 692.00
C 460.05 668.95 457.40 646.24 458.00 621.00 C 458.60 595.76 457.69 568.60 458.00 543.00 C 458.31 517.40 457.77 490.70 458.00 465.00
C 460.64 461.22 474.95 464.58 480.00 464.00 C 485.05 463.42 497.91 463.24 503.00 464.00 C 508.09 464.76 523.27 461.10 526.00 465.00
C 529.29 469.70 524.51 480.04 526.00 486.00 C 527.49 491.96 525.33 500.47 526.00 507.00 C 526.67 513.53 525.70 521.21 526.00 528.00 C 526.30 534.79 525.86 542.10 526.00 549.00 C 526.14 555.90 525.94 563.04 526.00 570.00 C 526.06 576.96 525.97 584.02 526.00 591.00 C 526.03 597.98 525.99 605.01 526.00 612.00 C 526.01 618.99 525.99 626.00 526.00 633.00 C 526.01 640.00 526.00 647.00 526.00 654.00 C 526.00 661.00 526.00 668.00 526.00 675.00 C 526.00 682.00 526.00 689.00 526.00 696.00 C 526.00 703.00 526.00 710.00 526.00 717.00 C 526.00 724.00 526.00 731.00 526.00 738.00 C 526.00 745.00 526.00 752.00 526.00 759.00 C 526.00 766.00 526.00 773.00 526.00 780.00 C 526.00 787.00 526.00 794.00 526.00 801.00 C 526.00 808.00 526.00 815.00 526.00 822.00 C 526.00 829.00 526.00 836.00 526.00 843.00
C 508.52 844.30 490.42 841.27 473.00 843.00 C 455.58 844.73 456.08 824.34 450.22 811.78 C 444.36 799.22 441.22 785.82 436.02 772.98 C 430.83 760.13 426.11 746.76 421.22 733.78 C 416.34 720.79 411.88 707.98 407.07 694.93 C 402.27 681.88 397.09 668.87 392.22 655.78 C 387.35 642.69 382.80 629.14 378.00 616.00
C 376.40 626.92 378.18 638.35 379.00 650.00 C 379.82 661.66 380.28 673.75 380.00 686.00 C 379.72 698.25 380.17 711.63 380.00 724.00 C 379.83 736.37 380.16 748.59 380.00 761.00 C 379.84 773.41 380.26 785.50 380.00 798.00 C 379.74 810.50 380.51 823.41 380.00 836.00 C 379.49 848.59 360.70 841.67 350.00 843.00 C 339.30 844.33 323.19 842.00 312.00 843.00
C 307.67 839.97 312.28 827.73 311.00 822.00 C 309.72 816.27 311.55 806.74 311.00 800.00 C 310.45 793.26 311.26 784.15 311.00 777.00 C 310.74 769.85 311.11 762.35 311.00 755.00 C 310.89 747.65 311.05 739.44 311.00 732.00 C 310.95 724.56 311.02 717.48 311.00 710.00 C 310.98 702.52 311.01 694.49 311.00 687.00 C 310.99 679.51 311.00 672.49 311.00 665.00 C 311.00 657.51 311.00 649.47 311.00 642.00 C 311.00 634.53 310.99 627.43 311.00 620.00 C 311.01 612.57 310.97 605.45 311.00 598.00 C 311.03 590.55 310.95 582.43 311.00 575.00 C 311.05 567.57 310.87 560.35 311.00 553.00 C 311.13 545.65 310.73 537.18 311.00 530.00 C 311.27 522.82 310.38 514.74 311.00 508.00 C 311.62 501.26 309.69 490.88 311.00 485.00 C 312.31 479.12 307.36 467.42 312.26 464.26 C 317.16 461.09 329.06 465.03 335.00 464.00 C 340.94 462.97 351.00 463.76 357.00 464.00 C 363.00 464.24 374.17 461.57 378.00 466.00 Z"/>
</g>
<g fill="#797979" fill-opacity="1.00" stroke="None">
<path d="
M 501.00 392.00 
C 497.99 391.71 493.75 391.00 490.00 391.00
C 493.01 391.29 497.25 392.00 501.00 392.00 Z"/>
</g>
<g fill="#737373" fill-opacity="1.00" stroke="None">
<path d="
M 524.00 393.00 
C 520.99 392.71 516.75 392.00 513.00 392.00
C 516.01 392.29 520.25 393.00 524.00 393.00 Z"/>
</g>
<g fill="#656565" fill-opacity="1.00" stroke="None">
<path d="
M 557.00 394.00 
C 553.01 393.61 547.74 393.00 543.00 393.00
C 546.99 393.39 552.26 394.00 557.00 394.00 Z"/>
</g>
<g fill="#777777" fill-opacity="1.00" stroke="None">
<path d="
M 312.00 843.00 
C 312.00 717.00 312.00 591.00 312.00 465.00
C 333.91 465.66 356.53 463.67 378.00 466.00
C 374.17 461.57 363.00 464.24 357.00 464.00 C 351.00 463.76 340.94 462.97 335.00 464.00 C 329.06 465.03 317.16 461.09 312.26 464.26 C 307.36 467.42 312.31 479.12 311.00 485.00 C 309.69 490.88 311.62 501.26 311.00 508.00 C 310.38 514.74 311.27 522.82 311.00 530.00 C 310.73 537.18 311.13 545.65 311.00 553.00 C 310.87 560.35 311.05 567.57 311.00 575.00 C 310.95 582.43 311.03 590.55 311.00 598.00 C 310.97 605.45 311.01 612.57 311.00 620.00 C 310.99 627.43 311.00 634.53 311.00 642.00 C 311.00 649.47 311.00 657.51 311.00 665.00 C 311.00 672.49 310.99 679.51 311.00 687.00 C 311.01 694.49 310.98 702.52 311.00 710.00 C 311.02 717.48 310.95 724.56 311.00 732.00 C 311.05 739.44 310.89 747.65 311.00 755.00 C 311.11 762.35 310.74 769.85 311.00 777.00 C 311.26 784.15 310.45 793.26 311.00 800.00 C 311.55 806.74 309.72 816.27 311.00 822.00 C 312.28 827.73 307.67 839.97 312.00 843.00 Z"/>
</g>
<g fill="#737373" fill-opacity="1.00" stroke="None">
<path d="
M 458.00 465.00 
C 480.67 465.00 503.33 465.00 526.00 465.00
C 523.27 461.10 508.09 464.76 503.00 464.00 C 497.91 463.24 485.05 463.42 480.00 464.00 C 474.95 464.58 460.64 461.22 458.00 465.00 Z"/>
</g>
<g fill="#000000" fill-opacity="1.00" stroke="None">
<path d="
M 312.00 843.00 
C 323.19 842.00 339.30 844.33 350.00 843.00 C 360.70 841.67 379.49 848.59 380.00 836.00 C 380.51 823.41 379.74 810.50 380.00 798.00 C 380.26 785.50 379.84 773.41 380.00 761.00 C 380.16 748.59 379.83 736.37 380.00 724.00 C 380.17 711.63 379.72 698.25 380.00 686.00 C 380.28 673.75 379.82 661.66 379.00 650.00 C 378.18 638.35 376.40 626.92 378.00 616.00
C 382.80 629.14 387.35 642.69 392.22 655.78 C 397.09 668.87 402.27 681.88 407.07 694.93 C 411.88 707.98 416.34 720.79 421.22 733.78 C 426.11 746.76 430.83 760.13 436.02 772.98 C 441.22 785.82 444.36 799.22 450.22 811.78 C 456.08 824.34 455.58 844.73 473.00 843.00 C 490.42 841.27 508.52 844.30 526.00 843.00
C 526.00 836.00 526.00 829.00 526.00 822.00 C 526.00 815.00 526.00 808.00 526.00 801.00 C 526.00 794.00 526.00 787.00 526.00 780.00 C 526.00 773.00 526.00 766.00 526.00 759.00 C 526.00 752.00 526.00 745.00 526.00 738.00 C 526.00 731.00 526.00 724.00 526.00 717.00 C 526.00 710.00 526.00 703.00 526.00 696.00 C 526.00 689.00 526.00 682.00 526.00 675.00 C 526.00 668.00 526.00 661.00 526.00 654.00 C 526.00 647.00 526.01 640.00 526.00 633.00 C 525.99 626.00 526.01 618.99 526.00 612.00 C 525.99 605.01 526.03 597.98 526.00 591.00 C 525.97 584.02 526.06 576.96 526.00 570.00 C 525.94 563.04 526.14 555.90 526.00 549.00 C 525.86 542.10 526.30 534.79 526.00 528.00 C 525.70 521.21 526.67 513.53 526.00 507.00 C 525.33 500.47 527.49 491.96 526.00 486.00 C 524.51 480.04 529.29 469.70 526.00 465.00
C 503.33 465.00 480.67 465.00 458.00 465.00
C 457.77 490.70 458.31 517.40 458.00 543.00 C 457.69 568.60 458.60 595.76 458.00 621.00 C 457.40 646.24 460.05 668.95 462.00 692.00
C 459.07 682.31 455.05 672.78 451.78 663.22 C 448.50 653.67 444.19 644.60 440.93 635.07 C 437.66 625.54 433.66 616.12 430.32 606.68 C 426.98 597.24 423.40 588.42 419.93 579.07 C 416.45 569.73 413.12 559.87 409.32 550.68 C 405.52 541.49 402.86 531.17 398.78 522.22 C 394.69 513.28 392.82 502.38 387.98 494.02 C 383.14 485.67 384.15 473.13 378.00 466.00
C 356.53 463.67 333.91 465.66 312.00 465.00
C 312.00 591.00 312.00 717.00 312.00 843.00 Z"/>
</g>
<g fill="#FDFDFD" fill-opacity="1.00" stroke="None">
<path d="
M 926.00 466.00 
C 898.33 466.00 870.67 466.00 843.00 466.00
C 843.00 592.00 843.00 718.00 843.00 844.00
C 870.67 844.00 898.33 844.00 926.00 844.00
C 926.00 718.00 926.00 592.00 926.00 466.00 Z"/>
</g>
<g fill="#7E7E7E" fill-opacity="1.00" stroke="None">
<path d="
M 167.00 594.00 
C 167.35 590.34 168.00 585.41 168.00 581.00
C 167.65 584.66 167.00 589.59 167.00 594.00 Z"/>
</g>
<g fill="#787878" fill-opacity="1.00" stroke="None">
<path d="
M 167.00 656.00 
C 167.00 642.33 167.00 628.66 167.00 615.00
C 165.76 627.81 165.75 643.12 167.00 656.00 Z"/>
</g>
<g fill="#7D7D7D" fill-opacity="1.00" stroke="None">
<path d="
M 168.00 688.00 
C 168.00 683.92 167.33 679.40 167.00 676.00
C 167.00 680.08 167.67 684.60 168.00 688.00 Z"/>
</g>
<g fill="#898989" fill-opacity="1.00" stroke="None">
<path d="
M 619.00 898.00 
C 626.37 898.00 634.32 897.65 641.00 897.00
C 633.63 897.00 625.68 897.35 619.00 898.00 Z"/>
</g>
</svg>