<svg xmlns="http://www.w3.org/2000/svg" xmlns:v="https://svgstorm.com"
viewBox = "0 0 800 570"
width="800"
height="570">
<g fill="None" fill-opacity="0.0" stroke="#000000" stroke-opacity="0.01" stroke-width="0.3"><path d="
M 0.00 570.00 
L 800.00 570.00
L 800.00 0.00
L 0.00 0.00
L 0.00 570.00
M 768.00 8.00 
C 769.04 21.83 771.97 34.68 773.80 48.25 C 775.64 61.82 777.58 73.84 779.80 87.25 C 782.02 100.66 781.93 113.04 784.20 127.25 C 786.47 141.46 786.93 152.81 788.40 167.75 C 789.87 182.70 791.55 196.05 792.79 213.23 C 794.03 230.41 794.25 254.91 795.00 276.00 C 795.75 297.09 795.56 330.38 795.00 351.00 C 794.44 371.62 792.69 392.21 791.80 408.25 C 790.92 424.28 788.81 433.43 787.20 448.25 C 785.59 463.07 784.16 473.59 781.41 487.75 C 778.67 501.91 777.60 514.50 774.80 527.25 C 772.00 539.99 767.61 551.24 767.00 564.00
C 753.52 564.68 741.37 560.58 728.75 557.80 C 716.13 555.02 701.71 550.68 689.25 548.61 C 676.79 546.53 664.19 543.02 649.92 541.07 C 635.65 539.12 623.81 535.63 609.75 534.20 C 595.69 532.77 583.48 529.94 568.78 528.22 C 554.07 526.51 544.05 526.11 528.25 524.40 C 512.44 522.68 494.32 521.25 473.00 520.00 C 451.68 518.75 420.25 518.11 398.00 518.00 C 375.75 517.89 347.75 519.11 327.97 520.02 C 308.20 520.93 288.46 522.96 273.25 524.40 C 258.05 525.84 247.26 526.88 232.75 528.80 C 218.24 530.72 205.24 532.01 190.77 534.21 C 176.30 536.42 163.44 539.37 149.25 541.39 C 135.06 543.42 123.96 547.01 110.75 549.76 C 97.55 552.50 87.01 553.78 74.75 557.19 C 62.48 560.60 45.34 564.55 34.00 567.00
C 18.76 476.19 8.70 399.83 6.00 290.00 C 3.30 180.17 14.98 95.06 35.00 8.00
C 148.68 36.47 259.15 56.62 400.00 57.00 C 540.85 57.38 649.44 36.13 768.00 8.00 Z"/>
</g>
<g fill="None" fill-opacity="0.0" stroke="#000000" stroke-opacity="1.00" stroke-width="0.3"><path d="
M 768.00 8.00 
C 649.44 36.13 540.85 57.38 400.00 57.00 C 259.15 56.62 148.68 36.47 35.00 8.00
C 14.98 95.06 3.30 180.17 6.00 290.00 C 8.70 399.83 18.76 476.19 34.00 567.00
C 45.34 564.55 62.48 560.60 74.75 557.19 C 87.01 553.78 97.55 552.50 110.75 549.76 C 123.96 547.01 135.06 543.42 149.25 541.39 C 163.44 539.37 176.30 536.42 190.77 534.21 C 205.24 532.01 218.24 530.72 232.75 528.80 C 247.26 526.88 258.05 525.84 273.25 524.40 C 288.46 522.96 308.20 520.93 327.97 520.02 C 347.75 519.11 375.75 517.89 398.00 518.00 C 420.25 518.11 451.68 518.75 473.00 520.00 C 494.32 521.25 512.44 522.68 528.25 524.40 C 544.05 526.11 554.07 526.51 568.78 528.22 C 583.48 529.94 595.69 532.77 609.75 534.20 C 623.81 535.63 635.65 539.12 649.92 541.07 C 664.19 543.02 676.79 546.53 689.25 548.61 C 701.71 550.68 716.13 555.02 728.75 557.80 C 741.37 560.58 753.52 564.68 767.00 564.00
C 767.61 551.24 772.00 539.99 774.80 527.25 C 777.60 514.50 778.67 501.91 781.41 487.75 C 784.16 473.59 785.59 463.07 787.20 448.25 C 788.81 433.43 790.92 424.28 791.80 408.25 C 792.69 392.21 794.44 371.62 795.00 351.00 C 795.56 330.38 795.75 297.09 795.00 276.00 C 794.25 254.91 794.03 230.41 792.79 213.23 C 791.55 196.05 789.87 182.70 788.40 167.75 C 786.93 152.81 786.47 141.46 784.20 127.25 C 781.93 113.04 782.02 100.66 779.80 87.25 C 777.58 73.84 775.64 61.82 773.80 48.25 C 771.97 34.68 769.04 21.83 768.00 8.00
M 399.00 109.00 
C 399.50 109.00 400.00 109.00 400.00 109.00
C 407.00 109.00 414.00 109.00 421.00 109.00
C 524.91 109.00 625.40 94.19 724.00 73.00
C 744.09 212.37 753.65 363.11 725.00 502.00
C 627.19 480.19 527.10 466.97 424.00 466.00
C 416.00 466.00 408.00 466.00 400.00 466.00
C 399.50 466.00 399.00 466.00 399.00 466.00
C 288.44 466.00 181.64 478.70 77.00 502.00
C 56.15 362.68 48.40 212.28 75.00 73.00
C 180.47 94.85 287.78 109.83 399.00 109.00 Z"/>
</g>
<g fill="None" fill-opacity="0.0" stroke="#FEFEFE" stroke-opacity="1.00" stroke-width="0.3"><path d="
M 399.00 466.00 
C 404.46 455.25 398.26 440.28 400.00 428.00 C 401.74 415.72 399.23 400.85 400.00 388.00 C 400.77 375.15 399.68 361.10 400.00 348.00 C 400.32 334.90 399.92 321.20 400.00 308.00 C 400.08 294.80 400.10 281.20 400.00 268.00 C 399.90 254.80 400.34 241.12 400.00 228.00 C 399.66 214.88 400.81 200.89 400.00 188.00 C 399.19 175.11 401.82 160.37 400.00 148.00 C 398.18 135.63 404.52 119.88 399.00 109.00
C 287.78 109.83 180.47 94.85 75.00 73.00
C 48.40 212.28 56.15 362.68 77.00 502.00
C 181.64 478.70 288.44 466.00 399.00 466.00
M 209.00 160.00 
C 214.75 164.72 214.00 177.11 218.31 183.69 C 222.61 190.28 223.98 200.90 227.78 208.22 C 231.57 215.55 233.50 224.36 236.93 232.07 C 240.36 239.79 243.10 248.49 246.77 256.23 C 250.44 263.97 251.69 273.52 256.00 281.00
C 255.25 274.30 257.82 265.73 257.00 258.00 C 256.18 250.27 257.14 240.82 257.00 233.00 C 256.86 225.18 256.55 215.58 257.00 208.00 C 257.45 200.42 255.65 189.84 257.00 183.00 C 258.35 176.16 253.39 163.43 258.00 159.00
C 265.83 158.29 274.12 158.83 282.00 159.00 C 289.88 159.17 299.27 157.93 307.00 159.00 C 314.73 160.07 310.10 173.08 311.00 180.00 C 311.90 186.92 310.59 197.31 311.00 205.00 C 311.41 212.69 310.81 221.97 311.00 230.00 C 311.19 238.03 310.91 246.84 311.00 255.00 C 311.09 263.16 310.94 271.81 311.00 280.00 C 311.06 288.19 310.94 295.78 311.00 304.00 C 311.06 312.22 310.91 320.72 311.00 329.00 C 311.09 337.28 310.81 345.69 311.00 354.00 C 311.19 362.31 310.58 370.68 311.00 379.00 C 311.42 387.32 310.08 395.69 311.00 404.00 C 311.92 412.31 311.60 422.19 302.00 420.00 C 292.40 417.81 285.20 422.13 277.00 420.00 C 268.80 417.87 259.03 423.95 253.00 419.00
C 247.83 414.75 248.56 403.19 244.68 397.32 C 240.80 391.45 239.55 382.38 236.22 375.78 C 232.90 369.18 230.89 360.96 228.02 353.98 C 225.16 346.99 221.99 339.89 219.23 332.77 C 216.47 325.65 213.93 318.08 211.07 310.93 C 208.22 303.78 204.97 296.45 203.00 289.00
C 200.67 331.43 202.67 375.82 202.00 419.00
C 199.78 422.16 189.12 419.59 185.00 420.00 C 180.88 420.41 171.17 420.60 167.00 420.00 C 162.83 419.40 151.31 422.30 149.00 419.00
C 145.95 414.64 150.29 405.64 149.00 400.00 C 147.71 394.36 149.58 386.20 149.00 380.00 C 148.42 373.80 149.26 366.46 149.00 360.00 C 148.74 353.54 149.12 346.57 149.00 340.00 C 148.88 333.43 149.05 326.62 149.00 320.00 C 148.95 313.38 149.01 306.64 149.00 300.00 C 148.99 293.36 148.98 286.64 149.00 280.00 C 149.02 273.36 148.95 266.62 149.00 260.00 C 149.05 253.38 148.87 246.57 149.00 240.00 C 149.13 233.43 148.71 226.46 149.00 220.00 C 149.29 213.54 148.36 206.22 149.00 200.00 C 149.64 193.78 147.59 185.68 149.00 180.00 C 150.41 174.32 145.87 164.47 149.00 160.00
C 151.53 156.39 163.05 159.57 168.00 159.00 C 172.95 158.43 183.67 158.56 189.00 159.00 C 194.33 159.44 205.08 156.78 209.00 160.00 Z"/>
</g>
<g fill="None" fill-opacity="0.0" stroke="#6B8DA7" stroke-opacity="1.00" stroke-width="0.3"><path d="
M 421.00 109.00 
C 416.08 109.48 404.52 112.34 400.00 109.00
C 400.00 109.00 399.50 109.00 399.00 109.00
C 404.52 119.88 398.18 135.63 400.00 148.00 C 401.82 160.37 399.19 175.11 400.00 188.00 C 400.81 200.89 399.66 214.88 400.00 228.00 C 400.34 241.12 399.90 254.80 400.00 268.00 C 400.10 281.20 400.08 294.80 400.00 308.00 C 399.92 321.20 400.32 334.90 400.00 348.00 C 399.68 361.10 400.77 375.15 400.00 388.00 C 399.23 400.85 401.74 415.72 400.00 428.00 C 398.26 440.28 404.46 455.25 399.00 466.00
C 399.00 466.00 399.50 466.00 400.00 466.00
C 404.94 462.34 418.66 465.48 424.00 466.00
C 527.10 466.97 627.19 480.19 725.00 502.00
C 753.65 363.11 744.09 212.37 724.00 73.00
C 625.40 94.19 524.91 109.00 421.00 109.00
M 596.00 159.00 
C 596.00 246.00 596.00 333.00 596.00 420.00
C 580.17 422.15 572.66 417.13 556.00 420.00 C 539.34 422.87 542.64 405.50 543.00 392.00 C 543.36 378.50 542.84 364.54 543.00 351.00 C 543.16 337.46 542.93 323.51 543.00 310.00 C 543.07 296.49 542.97 283.48 543.00 270.00 C 543.03 256.52 542.99 242.43 543.00 229.00 C 543.01 215.57 543.01 201.22 543.00 188.00 C 542.99 174.78 538.64 156.67 555.00 159.00 C 571.36 161.33 580.32 157.25 596.00 159.00 Z"/>
</g>
<g fill="None" fill-opacity="0.0" stroke="#476073" stroke-opacity="1.00" stroke-width="0.3"><path d="
M 421.00 109.00 
C 414.00 109.00 407.00 109.00 400.00 109.00
C 404.52 112.34 416.08 109.48 421.00 109.00 Z"/>
</g>
<g fill="None" fill-opacity="0.0" stroke="#666666" stroke-opacity="1.00" stroke-width="0.3"><path d="
M 149.00 160.00 
C 155.37 160.52 162.73 159.30 169.00 160.00 C 175.27 160.70 183.09 158.66 189.00 160.00 C 194.91 161.34 203.96 157.13 209.00 160.00
C 205.08 156.78 194.33 159.44 189.00 159.00 C 183.67 158.56 172.95 158.43 168.00 159.00 C 163.05 159.57 151.53 156.39 149.00 160.00 Z"/>
</g>
<g fill="None" fill-opacity="0.0" stroke="#B8B8B8" stroke-opacity="1.00" stroke-width="0.3"><path d="
M 256.00 281.00 
C 256.61 282.07 256.79 283.54 258.00 284.00
C 258.00 242.67 258.00 201.33 258.00 160.00
C 258.00 159.50 258.00 159.00 258.00 159.00
C 253.39 163.43 258.35 176.16 257.00 183.00 C 255.65 189.84 257.45 200.42 257.00 208.00 C 256.55 215.58 256.86 225.18 257.00 233.00 C 257.14 240.82 256.18 250.27 257.00 258.00 C 257.82 265.73 255.25 274.30 256.00 281.00 Z"/>
</g>
<g fill="None" fill-opacity="0.0" stroke="#616161" stroke-opacity="1.00" stroke-width="0.3"><path d="
M 258.00 160.00 
C 275.19 161.55 292.77 158.83 310.00 160.00
C 310.00 246.33 310.00 332.67 310.00 419.00
C 291.00 419.00 272.00 419.00 253.00 419.00
C 259.03 423.95 268.80 417.87 277.00 420.00 C 285.20 422.13 292.40 417.81 302.00 420.00 C 311.60 422.19 311.92 412.31 311.00 404.00 C 310.08 395.69 311.42 387.32 311.00 379.00 C 310.58 370.68 311.19 362.31 311.00 354.00 C 310.81 345.69 311.09 337.28 311.00 329.00 C 310.91 320.72 311.06 312.22 311.00 304.00 C 310.94 295.78 311.06 288.19 311.00 280.00 C 310.94 271.81 311.09 263.16 311.00 255.00 C 310.91 246.84 311.19 238.03 311.00 230.00 C 310.81 221.97 311.41 212.69 311.00 205.00 C 310.59 197.31 311.90 186.92 311.00 180.00 C 310.10 173.08 314.73 160.07 307.00 159.00 C 299.27 157.93 289.88 159.17 282.00 159.00 C 274.12 158.83 265.83 158.29 258.00 159.00
C 258.00 159.00 258.00 159.50 258.00 160.00 Z"/>
</g>
<g fill="None" fill-opacity="0.0" stroke="#FDFDFE" stroke-opacity="1.00" stroke-width="0.3"><path d="
M 596.00 159.00 
C 580.32 157.25 571.36 161.33 555.00 159.00 C 538.64 156.67 542.99 174.78 543.00 188.00 C 543.01 201.22 543.01 215.57 543.00 229.00 C 542.99 242.43 543.03 256.52 543.00 270.00 C 542.97 283.48 543.07 296.49 543.00 310.00 C 542.93 323.51 543.16 337.46 543.00 351.00 C 542.84 364.54 543.36 378.50 543.00 392.00 C 542.64 405.50 539.34 422.87 556.00 420.00 C 572.66 417.13 580.17 422.15 596.00 420.00
C 596.00 333.00 596.00 246.00 596.00 159.00 Z"/>
</g>
<g fill="None" fill-opacity="0.0" stroke="#000000" stroke-opacity="1.00" stroke-width="0.3"><path d="
M 149.00 419.00 
C 166.67 419.00 184.33 419.00 202.00 419.00
C 202.67 375.82 200.67 331.43 203.00 289.00
C 204.97 296.45 208.22 303.78 211.07 310.93 C 213.93 318.08 216.47 325.65 219.23 332.77 C 221.99 339.89 225.16 346.99 228.02 353.98 C 230.89 360.96 232.90 369.18 236.22 375.78 C 239.55 382.38 240.80 391.45 244.68 397.32 C 248.56 403.19 247.83 414.75 253.00 419.00
C 272.00 419.00 291.00 419.00 310.00 419.00
C 310.00 332.67 310.00 246.33 310.00 160.00
C 292.77 158.83 275.19 161.55 258.00 160.00
C 258.00 201.33 258.00 242.67 258.00 284.00
C 256.79 283.54 256.61 282.07 256.00 281.00
C 251.69 273.52 250.44 263.97 246.77 256.23 C 243.10 248.49 240.36 239.79 236.93 232.07 C 233.50 224.36 231.57 215.55 227.78 208.22 C 223.98 200.90 222.61 190.28 218.31 183.69 C 214.00 177.11 214.75 164.72 209.00 160.00
C 203.96 157.13 194.91 161.34 189.00 160.00 C 183.09 158.66 175.27 160.70 169.00 160.00 C 162.73 159.30 155.37 160.52 149.00 160.00
C 145.87 164.47 150.41 174.32 149.00 180.00 C 147.59 185.68 149.64 193.78 149.00 200.00 C 148.36 206.22 149.29 213.54 149.00 220.00 C 148.71 226.46 149.13 233.43 149.00 240.00 C 148.87 246.57 149.05 253.38 149.00 260.00 C 148.95 266.62 149.02 273.36 149.00 280.00 C 148.98 286.64 148.99 293.36 149.00 300.00 C 149.01 306.64 148.95 313.38 149.00 320.00 C 149.05 326.62 148.88 333.43 149.00 340.00 C 149.12 346.57 148.74 353.54 149.00 360.00 C 149.26 366.46 148.42 373.80 149.00 380.00 C 149.58 386.20 147.71 394.36 149.00 400.00 C 150.29 405.64 145.95 414.64 149.00 419.00 Z"/>
</g>
<g fill="None" fill-opacity="0.0" stroke="#666666" stroke-opacity="1.00" stroke-width="0.3"><path d="
M 202.00 419.00 
C 184.33 419.00 166.67 419.00 149.00 419.00
C 151.31 422.30 162.83 419.40 167.00 420.00 C 171.17 420.60 180.88 420.41 185.00 420.00 C 189.12 419.59 199.78 422.16 202.00 419.00 Z"/>
</g>
<g fill="None" fill-opacity="0.0" stroke="#455D6F" stroke-opacity="1.00" stroke-width="0.3"><path d="
M 400.00 466.00 
C 408.00 466.00 416.00 466.00 424.00 466.00
C 418.66 465.48 404.94 462.34 400.00 466.00 Z"/>
</g>
<g fill="#000000" fill-opacity="0.01" stroke="None">
<path d="
M 0.00 570.00 
L 800.00 570.00
L 800.00 0.00
L 0.00 0.00
L 0.00 570.00
M 768.00 8.00 
C 769.04 21.83 771.97 34.68 773.80 48.25 C 775.64 61.82 777.58 73.84 779.80 87.25 C 782.02 100.66 781.93 113.04 784.20 127.25 C 786.47 141.46 786.93 152.81 788.40 167.75 C 789.87 182.70 791.55 196.05 792.79 213.23 C 794.03 230.41 794.25 254.91 795.00 276.00 C 795.75 297.09 795.56 330.38 795.00 351.00 C 794.44 371.62 792.69 392.21 791.80 408.25 C 790.92 424.28 788.81 433.43 787.20 448.25 C 785.59 463.07 784.16 473.59 781.41 487.75 C 778.67 501.91 777.60 514.50 774.80 527.25 C 772.00 539.99 767.61 551.24 767.00 564.00
C 753.52 564.68 741.37 560.58 728.75 557.80 C 716.13 555.02 701.71 550.68 689.25 548.61 C 676.79 546.53 664.19 543.02 649.92 541.07 C 635.65 539.12 623.81 535.63 609.75 534.20 C 595.69 532.77 583.48 529.94 568.78 528.22 C 554.07 526.51 544.05 526.11 528.25 524.40 C 512.44 522.68 494.32 521.25 473.00 520.00 C 451.68 518.75 420.25 518.11 398.00 518.00 C 375.75 517.89 347.75 519.11 327.97 520.02 C 308.20 520.93 288.46 522.96 273.25 524.40 C 258.05 525.84 247.26 526.88 232.75 528.80 C 218.24 530.72 205.24 532.01 190.77 534.21 C 176.30 536.42 163.44 539.37 149.25 541.39 C 135.06 543.42 123.96 547.01 110.75 549.76 C 97.55 552.50 87.01 553.78 74.75 557.19 C 62.48 560.60 45.34 564.55 34.00 567.00
C 18.76 476.19 8.70 399.83 6.00 290.00 C 3.30 180.17 14.98 95.06 35.00 8.00
C 148.68 36.47 259.15 56.62 400.00 57.00 C 540.85 57.38 649.44 36.13 768.00 8.00 Z"/>
</g>
<g fill="#000000" fill-opacity="1.00" stroke="None">
<path d="
M 768.00 8.00 
C 649.44 36.13 540.85 57.38 400.00 57.00 C 259.15 56.62 148.68 36.47 35.00 8.00
C 14.98 95.06 3.30 180.17 6.00 290.00 C 8.70 399.83 18.76 476.19 34.00 567.00
C 45.34 564.55 62.48 560.60 74.75 557.19 C 87.01 553.78 97.55 552.50 110.75 549.76 C 123.96 547.01 135.06 543.42 149.25 541.39 C 163.44 539.37 176.30 536.42 190.77 534.21 C 205.24 532.01 218.24 530.72 232.75 528.80 C 247.26 526.88 258.05 525.84 273.25 524.40 C 288.46 522.96 308.20 520.93 327.97 520.02 C 347.75 519.11 375.75 517.89 398.00 518.00 C 420.25 518.11 451.68 518.75 473.00 520.00 C 494.32 521.25 512.44 522.68 528.25 524.40 C 544.05 526.11 554.07 526.51 568.78 528.22 C 583.48 529.94 595.69 532.77 609.75 534.20 C 623.81 535.63 635.65 539.12 649.92 541.07 C 664.19 543.02 676.79 546.53 689.25 548.61 C 701.71 550.68 716.13 555.02 728.75 557.80 C 741.37 560.58 753.52 564.68 767.00 564.00
C 767.61 551.24 772.00 539.99 774.80 527.25 C 777.60 514.50 778.67 501.91 781.41 487.75 C 784.16 473.59 785.59 463.07 787.20 448.25 C 788.81 433.43 790.92 424.28 791.80 408.25 C 792.69 392.21 794.44 371.62 795.00 351.00 C 795.56 330.38 795.75 297.09 795.00 276.00 C 794.25 254.91 794.03 230.41 792.79 213.23 C 791.55 196.05 789.87 182.70 788.40 167.75 C 786.93 152.81 786.47 141.46 784.20 127.25 C 781.93 113.04 782.02 100.66 779.80 87.25 C 777.58 73.84 775.64 61.82 773.80 48.25 C 771.97 34.68 769.04 21.83 768.00 8.00
M 399.00 109.00 
C 399.50 109.00 400.00 109.00 400.00 109.00
C 407.00 109.00 414.00 109.00 421.00 109.00
C 524.91 109.00 625.40 94.19 724.00 73.00
C 744.09 212.37 753.65 363.11 725.00 502.00
C 627.19 480.19 527.10 466.97 424.00 466.00
C 416.00 466.00 408.00 466.00 400.00 466.00
C 399.50 466.00 399.00 466.00 399.00 466.00
C 288.44 466.00 181.64 478.70 77.00 502.00
C 56.15 362.68 48.40 212.28 75.00 73.00
C 180.47 94.85 287.78 109.83 399.00 109.00 Z"/>
</g>
<g fill="#FEFEFE" fill-opacity="1.00" stroke="None">
<path d="
M 399.00 466.00 
C 404.46 455.25 398.26 440.28 400.00 428.00 C 401.74 415.72 399.23 400.85 400.00 388.00 C 400.77 375.15 399.68 361.10 400.00 348.00 C 400.32 334.90 399.92 321.20 400.00 308.00 C 400.08 294.80 400.10 281.20 400.00 268.00 C 399.90 254.80 400.34 241.12 400.00 228.00 C 399.66 214.88 400.81 200.89 400.00 188.00 C 399.19 175.11 401.82 160.37 400.00 148.00 C 398.18 135.63 404.52 119.88 399.00 109.00
C 287.78 109.83 180.47 94.85 75.00 73.00
C 48.40 212.28 56.15 362.68 77.00 502.00
C 181.64 478.70 288.44 466.00 399.00 466.00
M 209.00 160.00 
C 214.75 164.72 214.00 177.11 218.31 183.69 C 222.61 190.28 223.98 200.90 227.78 208.22 C 231.57 215.55 233.50 224.36 236.93 232.07 C 240.36 239.79 243.10 248.49 246.77 256.23 C 250.44 263.97 251.69 273.52 256.00 281.00
C 255.25 274.30 257.82 265.73 257.00 258.00 C 256.18 250.27 257.14 240.82 257.00 233.00 C 256.86 225.18 256.55 215.58 257.00 208.00 C 257.45 200.42 255.65 189.84 257.00 183.00 C 258.35 176.16 253.39 163.43 258.00 159.00
C 265.83 158.29 274.12 158.83 282.00 159.00 C 289.88 159.17 299.27 157.93 307.00 159.00 C 314.73 160.07 310.10 173.08 311.00 180.00 C 311.90 186.92 310.59 197.31 311.00 205.00 C 311.41 212.69 310.81 221.97 311.00 230.00 C 311.19 238.03 310.91 246.84 311.00 255.00 C 311.09 263.16 310.94 271.81 311.00 280.00 C 311.06 288.19 310.94 295.78 311.00 304.00 C 311.06 312.22 310.91 320.72 311.00 329.00 C 311.09 337.28 310.81 345.69 311.00 354.00 C 311.19 362.31 310.58 370.68 311.00 379.00 C 311.42 387.32 310.08 395.69 311.00 404.00 C 311.92 412.31 311.60 422.19 302.00 420.00 C 292.40 417.81 285.20 422.13 277.00 420.00 C 268.80 417.87 259.03 423.95 253.00 419.00
C 247.83 414.75 248.56 403.19 244.68 397.32 C 240.80 391.45 239.55 382.38 236.22 375.78 C 232.90 369.18 230.89 360.96 228.02 353.98 C 225.16 346.99 221.99 339.89 219.23 332.77 C 216.47 325.65 213.93 318.08 211.07 310.93 C 208.22 303.78 204.97 296.45 203.00 289.00
C 200.67 331.43 202.67 375.82 202.00 419.00
C 199.78 422.16 189.12 419.59 185.00 420.00 C 180.88 420.41 171.17 420.60 167.00 420.00 C 162.83 419.40 151.31 422.30 149.00 419.00
C 145.95 414.64 150.29 405.64 149.00 400.00 C 147.71 394.36 149.58 386.20 149.00 380.00 C 148.42 373.80 149.26 366.46 149.00 360.00 C 148.74 353.54 149.12 346.57 149.00 340.00 C 148.88 333.43 149.05 326.62 149.00 320.00 C 148.95 313.38 149.01 306.64 149.00 300.00 C 148.99 293.36 148.98 286.64 149.00 280.00 C 149.02 273.36 148.95 266.62 149.00 260.00 C 149.05 253.38 148.87 246.57 149.00 240.00 C 149.13 233.43 148.71 226.46 149.00 220.00 C 149.29 213.54 148.36 206.22 149.00 200.00 C 149.64 193.78 147.59 185.68 149.00 180.00 C 150.41 174.32 145.87 164.47 149.00 160.00
C 151.53 156.39 163.05 159.57 168.00 159.00 C 172.95 158.43 183.67 158.56 189.00 159.00 C 194.33 159.44 205.08 156.78 209.00 160.00 Z"/>
</g>
<g fill="#6B8DA7" fill-opacity="1.00" stroke="None">
<path d="
M 421.00 109.00 
C 416.08 109.48 404.52 112.34 400.00 109.00
C 400.00 109.00 399.50 109.00 399.00 109.00
C 404.52 119.88 398.18 135.63 400.00 148.00 C 401.82 160.37 399.19 175.11 400.00 188.00 C 400.81 200.89 399.66 214.88 400.00 228.00 C 400.34 241.12 399.90 254.80 400.00 268.00 C 400.10 281.20 400.08 294.80 400.00 308.00 C 399.92 321.20 400.32 334.90 400.00 348.00 C 399.68 361.10 400.77 375.15 400.00 388.00 C 399.23 400.85 401.74 415.72 400.00 428.00 C 398.26 440.28 404.46 455.25 399.00 466.00
C 399.00 466.00 399.50 466.00 400.00 466.00
C 404.94 462.34 418.66 465.48 424.00 466.00
C 527.10 466.97 627.19 480.19 725.00 502.00
C 753.65 363.11 744.09 212.37 724.00 73.00
C 625.40 94.19 524.91 109.00 421.00 109.00
M 596.00 159.00 
C 596.00 246.00 596.00 333.00 596.00 420.00
C 580.17 422.15 572.66 417.13 556.00 420.00 C 539.34 422.87 542.64 405.50 543.00 392.00 C 543.36 378.50 542.84 364.54 543.00 351.00 C 543.16 337.46 542.93 323.51 543.00 310.00 C 543.07 296.49 542.97 283.48 543.00 270.00 C 543.03 256.52 542.99 242.43 543.00 229.00 C 543.01 215.57 543.01 201.22 543.00 188.00 C 542.99 174.78 538.64 156.67 555.00 159.00 C 571.36 161.33 580.32 157.25 596.00 159.00 Z"/>
</g>
<g fill="#476073" fill-opacity="1.00" stroke="None">
<path d="
M 421.00 109.00 
C 414.00 109.00 407.00 109.00 400.00 109.00
C 404.52 112.34 416.08 109.48 421.00 109.00 Z"/>
</g>
<g fill="#666666" fill-opacity="1.00" stroke="None">
<path d="
M 149.00 160.00 
C 155.37 160.52 162.73 159.30 169.00 160.00 C 175.27 160.70 183.09 158.66 189.00 160.00 C 194.91 161.34 203.96 157.13 209.00 160.00
C 205.08 156.78 194.33 159.44 189.00 159.00 C 183.67 158.56 172.95 158.43 168.00 159.00 C 163.05 159.57 151.53 156.39 149.00 160.00 Z"/>
</g>
<g fill="#B8B8B8" fill-opacity="1.00" stroke="None">
<path d="
M 256.00 281.00 
C 256.61 282.07 256.79 283.54 258.00 284.00
C 258.00 242.67 258.00 201.33 258.00 160.00
C 258.00 159.50 258.00 159.00 258.00 159.00
C 253.39 163.43 258.35 176.16 257.00 183.00 C 255.65 189.84 257.45 200.42 257.00 208.00 C 256.55 215.58 256.86 225.18 257.00 233.00 C 257.14 240.82 256.18 250.27 257.00 258.00 C 257.82 265.73 255.25 274.30 256.00 281.00 Z"/>
</g>
<g fill="#616161" fill-opacity="1.00" stroke="None">
<path d="
M 258.00 160.00 
C 275.19 161.55 292.77 158.83 310.00 160.00
C 310.00 246.33 310.00 332.67 310.00 419.00
C 291.00 419.00 272.00 419.00 253.00 419.00
C 259.03 423.95 268.80 417.87 277.00 420.00 C 285.20 422.13 292.40 417.81 302.00 420.00 C 311.60 422.19 311.92 412.31 311.00 404.00 C 310.08 395.69 311.42 387.32 311.00 379.00 C 310.58 370.68 311.19 362.31 311.00 354.00 C 310.81 345.69 311.09 337.28 311.00 329.00 C 310.91 320.72 311.06 312.22 311.00 304.00 C 310.94 295.78 311.06 288.19 311.00 280.00 C 310.94 271.81 311.09 263.16 311.00 255.00 C 310.91 246.84 311.19 238.03 311.00 230.00 C 310.81 221.97 311.41 212.69 311.00 205.00 C 310.59 197.31 311.90 186.92 311.00 180.00 C 310.10 173.08 314.73 160.07 307.00 159.00 C 299.27 157.93 289.88 159.17 282.00 159.00 C 274.12 158.83 265.83 158.29 258.00 159.00
C 258.00 159.00 258.00 159.50 258.00 160.00 Z"/>
</g>
<g fill="#FDFDFE" fill-opacity="1.00" stroke="None">
<path d="
M 596.00 159.00 
C 580.32 157.25 571.36 161.33 555.00 159.00 C 538.64 156.67 542.99 174.78 543.00 188.00 C 543.01 201.22 543.01 215.57 543.00 229.00 C 542.99 242.43 543.03 256.52 543.00 270.00 C 542.97 283.48 543.07 296.49 543.00 310.00 C 542.93 323.51 543.16 337.46 543.00 351.00 C 542.84 364.54 543.36 378.50 543.00 392.00 C 542.64 405.50 539.34 422.87 556.00 420.00 C 572.66 417.13 580.17 422.15 596.00 420.00
C 596.00 333.00 596.00 246.00 596.00 159.00 Z"/>
</g>
<g fill="#000000" fill-opacity="1.00" stroke="None">
<path d="
M 149.00 419.00 
C 166.67 419.00 184.33 419.00 202.00 419.00
C 202.67 375.82 200.67 331.43 203.00 289.00
C 204.97 296.45 208.22 303.78 211.07 310.93 C 213.93 318.08 216.47 325.65 219.23 332.77 C 221.99 339.89 225.16 346.99 228.02 353.98 C 230.89 360.96 232.90 369.18 236.22 375.78 C 239.55 382.38 240.80 391.45 244.68 397.32 C 248.56 403.19 247.83 414.75 253.00 419.00
C 272.00 419.00 291.00 419.00 310.00 419.00
C 310.00 332.67 310.00 246.33 310.00 160.00
C 292.77 158.83 275.19 161.55 258.00 160.00
C 258.00 201.33 258.00 242.67 258.00 284.00
C 256.79 283.54 256.61 282.07 256.00 281.00
C 251.69 273.52 250.44 263.97 246.77 256.23 C 243.10 248.49 240.36 239.79 236.93 232.07 C 233.50 224.36 231.57 215.55 227.78 208.22 C 223.98 200.90 222.61 190.28 218.31 183.69 C 214.00 177.11 214.75 164.72 209.00 160.00
C 203.96 157.13 194.91 161.34 189.00 160.00 C 183.09 158.66 175.27 160.70 169.00 160.00 C 162.73 159.30 155.37 160.52 149.00 160.00
C 145.87 164.47 150.41 174.32 149.00 180.00 C 147.59 185.68 149.64 193.78 149.00 200.00 C 148.36 206.22 149.29 213.54 149.00 220.00 C 148.71 226.46 149.13 233.43 149.00 240.00 C 148.87 246.57 149.05 253.38 149.00 260.00 C 148.95 266.62 149.02 273.36 149.00 280.00 C 148.98 286.64 148.99 293.36 149.00 300.00 C 149.01 306.64 148.95 313.38 149.00 320.00 C 149.05 326.62 148.88 333.43 149.00 340.00 C 149.12 346.57 148.74 353.54 149.00 360.00 C 149.26 366.46 148.42 373.80 149.00 380.00 C 149.58 386.20 147.71 394.36 149.00 400.00 C 150.29 405.64 145.95 414.64 149.00 419.00 Z"/>
</g>
<g fill="#666666" fill-opacity="1.00" stroke="None">
<path d="
M 202.00 419.00 
C 184.33 419.00 166.67 419.00 149.00 419.00
C 151.31 422.30 162.83 419.40 167.00 420.00 C 171.17 420.60 180.88 420.41 185.00 420.00 C 189.12 419.59 199.78 422.16 202.00 419.00 Z"/>
</g>
<g fill="#455D6F" fill-opacity="1.00" stroke="None">
<path d="
M 400.00 466.00 
C 408.00 466.00 416.00 466.00 424.00 466.00
C 418.66 465.48 404.94 462.34 400.00 466.00 Z"/>
</g>
</svg>