<svg id="Calque_1" data-name="Calque 1" xmlns="http://www.w3.org/2000/svg" viewBox="0 0 1000 1000"><defs><style>.cls-1{fill:#fff;}.cls-1,.cls-2{fill-rule:evenodd;}.cls-2{fill:#1d1d1b;}</style></defs><title>nikon-seeklogo</title><polygon class="cls-1" points="192.85 181.94 883.37 181.94 883.37 872.47 192.85 872.47 192.85 181.94 192.85 181.94"/><path class="cls-2" d="M713.69,524.63c-4.63-11.82-15.8-20.94-27.75-23.9-32.77-8.74-74.27-5.27-96.88,22.1C576,539.66,568.25,565,578,586.3c4.76,12.46,18,21.46,30.45,23.77,27.5,3.6,63,5.14,85.06-15,20.69-17.22,27.62-46,20.17-70.41Zm-67.84,50.62c-3.08,1.16-8.09,1.67-10.92-.51-6.55-3.6-4.37-11.7-3.59-17.09,3.08-10,6.55-24.16,19-26.09,4.09-.4,9.25,1.42,10.92,6.17,1.16,14.52-3,29.29-15.42,37.52Z"/><polygon class="cls-2" points="347.8 442.2 324.67 509.27 307.09 442.2 260.37 442.2 203 605.96 257.59 605.96 279.33 543.5 295.53 605.96 345.02 605.96 402.39 442.2 347.8 442.2 347.8 442.2 347.8 442.2"/><path class="cls-2" d="M438.32,491.05c9.64-1.41,19.79-4.5,25.05-14,3.86-7.58,2.44-16.7-2.18-23.38-7.45-7.84-17.73-8.61-28.65-8-10,1.42-20.17,6.43-23.77,16.84-1.67,6.55-1.29,14.51,3.08,19.78,6.43,7.84,16.83,9,26.47,8.74Z"/><polygon class="cls-2" points="398.55 502.02 362.01 606.11 413.82 606.11 450.37 502.02 398.55 502.02 398.55 502.02 398.55 502.02"/><polygon class="cls-2" points="598.94 501.87 538.8 501.87 508.74 537.03 541.58 442.2 488.84 442.2 431.48 605.96 484.22 605.96 499.02 564.78 507.35 605.96 562.4 605.96 553.14 556 598.94 501.87 598.94 501.87 598.94 501.87"/><path class="cls-2" d="M835.75,500.63a68.79,68.79,0,0,0-46.26,17.12h0l6-15.73H740.91L704.37,606.1H759l17.58-50h0c2.78-7.86,7.4-11.56,15.27-11.56s9.71,7.86,7.4,14.34h0L782.55,606.1h52.73l23.6-67.54h0c6.47-18.5,0-37.93-23.13-37.93Z"/><path class="cls-2" d="M862.36,584.3a10.89,10.89,0,1,0,10.86,10.86,10.89,10.89,0,0,0-10.86-10.86Zm0,20.46a9.58,9.58,0,1,1,9.54-9.6,9.57,9.57,0,0,1-9.54,9.6Z"/><path class="cls-2" d="M868,592.31a3,3,0,0,0-1.37-2.62,5.53,5.53,0,0,0-3-.6h-5.31v12.17h1.49v-5.62h2.73l3.48,5.62h1.77l-3.68-5.62h0c2.17,0,3.85-.94,3.85-3.33Zm-5.87,2.15H859.8v-4.3h3.47c1.51,0,3.17.22,3.17,2.11,0,2.47-2.65,2.19-4.36,2.19Z"/></svg>