<?xml version="1.0" encoding="utf-8"?>
<!-- Generator: Adobe Illustrator 19.0.0, SVG Export Plug-In . SVG Version: 6.00 Build 0)  -->
<svg version="1.1" id="layer" xmlns="http://www.w3.org/2000/svg" xmlns:xlink="http://www.w3.org/1999/xlink" x="0px" y="0px"
	 viewBox="-153 -46 652 652" style="enable-background:new -153 -46 652 652;" xml:space="preserve">
<style type="text/css">
	.st0{fill:none;stroke:#000000;stroke-width:2.1178;}
	.st1{fill-rule:evenodd;clip-rule:evenodd;}
</style>
<path d="M12.5,298.6c0,4.4-1.1,7.8-3.3,10.3c-2.2,2.5-5.3,3.7-9.4,3.7c-4.1,0-7.3-1.3-9.5-3.7c-2.2-2.4-3.3-5.9-3.3-10.4
	c0-4.5,1.1-7.9,3.3-10.3c2.2-2.4,5.3-3.6,9.5-3.6c4,0,7.2,1.3,9.4,3.7C11.4,290.7,12.5,294.1,12.5,298.6L12.5,298.6z M-8.3,298.6
	c0,3.4,0.7,5.9,2,7.6c1.3,1.8,3.4,2.6,6,2.6c2.6,0,4.6-0.9,6-2.6c1.3-1.7,2-4.3,2-7.6c0-3.4-0.7-5.9-2-7.6c-1.3-1.8-3.3-2.6-5.9-2.6
	c-2.6,0-4.7,0.9-6,2.6C-7.6,292.7-8.3,295.2-8.3,298.6L-8.3,298.6z M-8.3,298.6 M27.4,312.6c-2.6,0-4.6-1-6.1-2.8H21
	c0.1,1.8,0.3,2.8,0.3,3.2v8.4h-4.4v-29.8h3.5c0.1,0.4,0.3,1.3,0.6,2.8h0.2c1.4-2,3.5-3.1,6.2-3.1c2.6,0,4.5,0.9,6,2.8
	c1.5,1.8,2.1,4.5,2.1,7.8c0,3.4-0.7,6-2.2,7.8C32,311.6,30,312.6,27.4,312.6L27.4,312.6z M26.4,294.8c-1.8,0-3,0.5-3.8,1.5
	c-0.8,1-1.2,2.6-1.2,4.9v0.7c0,2.5,0.4,4.3,1.2,5.4c0.8,1.1,2.1,1.7,3.9,1.7c1.5,0,2.7-0.6,3.5-1.8c0.8-1.2,1.2-3,1.2-5.3
	c0-2.3-0.4-4-1.2-5.2C29.1,295.4,27.9,294.8,26.4,294.8L26.4,294.8z M26.4,294.8 M48.8,312.6c-3.2,0-5.7-1-7.5-2.8
	c-1.8-1.8-2.7-4.5-2.7-7.7c0-3.4,0.8-6,2.5-7.9c1.7-1.9,3.9-2.9,6.9-2.9c2.7,0,4.8,0.8,6.4,2.5c1.5,1.7,2.4,3.9,2.4,6.8v2.4H43.1
	c0.1,2,0.6,3.5,1.6,4.6c1,1.1,2.4,1.6,4.3,1.6c1.3,0,2.3-0.1,3.4-0.4c1-0.2,2.2-0.6,3.4-1.2v3.5c-1.1,0.5-2.1,0.9-3.2,1.1
	C51.5,312.5,50.2,312.6,48.8,312.6L48.8,312.6z M48,294.6c-1.4,0-2.5,0.4-3.4,1.3c-0.8,0.9-1.3,2.2-1.5,3.9h9.3c0-1.7-0.4-3-1.3-3.9
	C50.5,295,49.4,294.6,48,294.6L48,294.6z M48,294.6 M79,312.2h-4.4v-12.7c0-1.6-0.3-2.8-1-3.5c-0.7-0.7-1.7-1.2-3.1-1.2
	c-1.8,0-3.2,0.5-4,1.6c-0.9,1.1-1.3,2.9-1.3,5.5v10.3h-4.4v-20.6h3.4l0.6,2.7H65c0.6-1,1.5-1.8,2.6-2.3c1.2-0.5,2.4-0.8,3.8-0.8
	c4.9,0,7.4,2.5,7.4,7.5L79,312.2L79,312.2z M79,312.2 M93.6,285h8.1c3.7,0,6.4,0.5,8.1,1.6c1.7,1.1,2.5,2.8,2.5,5.2
	c0,1.6-0.4,2.9-1.2,4c-0.8,1-2,1.7-3.5,2v0.2c1.9,0.4,3.3,1.1,4.3,2.1c1,1,1.3,2.5,1.3,4.3c0,2.4-0.9,4.3-2.6,5.7
	c-1.7,1.4-4.1,2.1-7.1,2.1h-9.8V285z M98.1,296.2h4.3c1.8,0,3.2-0.3,4.1-0.9c0.9-0.6,1.3-1.6,1.3-3c0-1.2-0.4-2.2-1.4-2.8
	c-0.9-0.6-2.4-0.9-4.4-0.9h-3.9V296.2z M98.1,299.9v8.6h4.7c1.8,0,3.3-0.4,4.3-1.1c0.9-0.7,1.4-1.8,1.4-3.4c0-1.4-0.5-2.5-1.5-3.1
	c-1-0.7-2.4-1-4.4-1H98.1z M98.1,299.9 M127.8,291.3c0.9,0,1.6,0.1,2.2,0.2l-0.4,4.1c-0.6-0.1-1.2-0.2-1.9-0.2
	c-1.8,0-3.2,0.6-4.2,1.7c-1.1,1.2-1.6,2.6-1.6,4.5v10.8h-4.4v-20.7h3.4l0.6,3.7h0.2c0.7-1.2,1.5-2.2,2.6-2.9
	C125.4,291.6,126.5,291.3,127.8,291.3L127.8,291.3z M127.8,291.3 M151.2,301.9c0,3.4-0.9,6-2.6,7.8c-1.8,1.9-4.1,2.9-7.2,2.9
	c-1.9,0-3.6-0.4-5.1-1.3c-1.5-0.9-2.6-2.1-3.4-3.7c-0.8-1.6-1.2-3.5-1.2-5.7c0-3.4,0.9-5.9,2.6-7.8c1.7-1.9,4.1-2.8,7.3-2.8
	c3,0,5.3,0.9,7,2.9C150.3,296,151.2,298.7,151.2,301.9L151.2,301.9z M136.2,301.9c0,4.8,1.8,7.1,5.3,7.1c3.4,0,5.2-2.3,5.2-7.1
	c0-4.7-1.8-7-5.3-7c-1.8,0-3.2,0.6-4,1.8C136.6,297.9,136.2,299.6,136.2,301.9L136.2,301.9z M136.2,301.9 M168.2,312.2l-0.9-2.9
	h-0.1c-1,1.2-2,2.1-3,2.6c-1,0.4-2.3,0.7-3.9,0.7c-2,0-3.6-0.5-4.8-1.6c-1.1-1.1-1.7-2.6-1.7-4.6c0-2.1,0.8-3.7,2.4-4.8
	c1.5-1.1,3.9-1.7,7.2-1.8l3.5-0.1v-1.1c0-1.3-0.3-2.3-1-2.9c-0.7-0.7-1.5-1-2.9-1c-1,0-2,0.1-3,0.4c-1,0.3-1.9,0.7-2.8,1.1l-1.4-3.2
	c1.1-0.6,2.4-1,3.7-1.3c1.3-0.3,2.6-0.4,3.7-0.4c2.6,0,4.6,0.6,5.9,1.7c1.3,1.2,2,2.9,2,5.3v13.9L168.2,312.2L168.2,312.2z
	 M161.6,309.3c1.6,0,2.9-0.4,3.8-1.3c0.9-0.9,1.5-2.1,1.5-3.7v-1.8l-2.6,0.1c-2,0.1-3.6,0.4-4.5,1c-0.9,0.6-1.4,1.5-1.4,2.8
	c0,0.9,0.3,1.6,0.8,2.1C159.7,309.1,160.5,309.3,161.6,309.3L161.6,309.3z M161.6,309.3 M183.4,312.6c-2.6,0-4.5-1-6-2.8
	c-1.5-1.8-2.1-4.5-2.1-7.8c0-3.4,0.7-6,2.2-7.9c1.5-1.9,3.4-2.8,6.1-2.8c2.7,0,4.8,1,6.2,3h0.2c-0.2-1.5-0.3-2.6-0.3-3.5v-7.5h4.4
	v29h-3.5l-0.7-2.7h-0.2C188.2,311.6,186.1,312.6,183.4,312.6L183.4,312.6z M184.6,309.1c1.8,0,3.1-0.5,4-1.5c0.8-1,1.3-2.6,1.3-4.9
	V302c0-2.6-0.4-4.5-1.3-5.5c-0.9-1.1-2.2-1.6-4-1.6c-1.5,0-2.7,0.7-3.5,1.9c-0.8,1.2-1.2,3-1.2,5.4c0,2.3,0.4,4,1.2,5.2
	C181.8,308.5,183,309.1,184.6,309.1L184.6,309.1z M184.6,309.1 M207.6,312.6c-3.1,0-5.5-0.9-7.1-2.7c-1.6-1.8-2.4-4.4-2.4-7.8
	c0-3.4,0.9-6.2,2.6-8c1.7-1.8,4.1-2.8,7.3-2.8c2.2,0,4.1,0.4,5.9,1.2l-1.3,3.5c-1.8-0.7-3.4-1.1-4.5-1.1c-3.6,0-5.4,2.4-5.4,7.1
	c0,2.3,0.4,4,1.3,5.2c0.9,1.2,2.2,1.8,3.9,1.8c2,0,3.8-0.5,5.5-1.5v3.8c-0.8,0.4-1.6,0.8-2.5,1C210,312.4,208.9,312.6,207.6,312.6
	L207.6,312.6z M207.6,312.6 M230.2,312.2l-0.9-2.9h-0.1c-1,1.2-2,2.1-3,2.6c-1,0.4-2.3,0.7-3.9,0.7c-2.1,0-3.6-0.5-4.8-1.6
	c-1.1-1.1-1.7-2.6-1.7-4.6c0-2.1,0.8-3.7,2.3-4.8c1.5-1.1,4-1.7,7.2-1.8l3.5-0.1v-1.1c0-1.3-0.3-2.3-1-2.9c-0.7-0.7-1.5-1-2.9-1
	c-1,0-2,0.1-3,0.4c-1,0.3-1.9,0.7-2.8,1.1l-1.4-3.2c1.1-0.6,2.3-1,3.7-1.3c1.3-0.3,2.6-0.4,3.7-0.4c2.6,0,4.6,0.6,5.9,1.7
	c1.3,1.2,2,2.9,2,5.3v13.9L230.2,312.2L230.2,312.2z M223.7,309.3c1.6,0,2.9-0.4,3.8-1.3c0.9-0.9,1.5-2.1,1.5-3.7v-1.8l-2.6,0.1
	c-2.1,0.1-3.6,0.4-4.5,1c-0.9,0.6-1.4,1.5-1.4,2.8c0,0.9,0.3,1.6,0.8,2.1C221.8,309.1,222.6,309.3,223.7,309.3L223.7,309.3z
	 M223.7,309.3 M252.3,306.4c0,2-0.7,3.5-2.2,4.6c-1.5,1.1-3.6,1.6-6.3,1.6c-2.7,0-4.9-0.4-6.6-1.3v-3.8c2.4,1.1,4.7,1.7,6.8,1.7
	c2.7,0,4-0.8,4-2.4c0-0.5-0.1-1-0.4-1.3c-0.3-0.4-0.8-0.7-1.5-1.1c-0.7-0.4-1.6-0.8-2.9-1.2c-2.3-1-3.9-1.8-4.8-2.8
	c-0.8-1-1.3-2.1-1.3-3.6c0-1.8,0.7-3.1,2.1-4.1c1.4-1,3.4-1.5,5.8-1.5c2.4,0,4.7,0.5,6.9,1.5l-1.4,3.3c-2.2-1-4.1-1.4-5.6-1.4
	c-2.3,0-3.4,0.7-3.4,2c0,0.7,0.3,1.2,0.9,1.6c0.6,0.4,1.9,1,3.9,1.8c1.7,0.7,2.9,1.2,3.7,1.8c0.7,0.5,1.3,1.2,1.7,1.9
	C252.1,304.5,252.3,305.4,252.3,306.4L252.3,306.4z M252.3,306.4 M263.8,309.1c1.1,0,2.1-0.2,3.2-0.5v3.3c-0.5,0.2-1.1,0.4-1.9,0.5
	c-0.7,0.1-1.5,0.2-2.3,0.2c-4.2,0-6.2-2.2-6.2-6.5V295h-2.8v-1.9l3-1.6l1.5-4.3h2.7v4.5h5.9v3.3h-5.9v11c0,1,0.3,1.8,0.8,2.3
	C262.2,308.8,263,309.1,263.8,309.1L263.8,309.1z M263.8,309.1 M279.2,312.6c-3.2,0-5.7-1-7.5-2.8c-1.8-1.8-2.7-4.5-2.7-7.7
	c0-3.4,0.8-6,2.5-7.9c1.7-1.9,3.9-2.9,6.9-2.9c2.7,0,4.8,0.8,6.5,2.5c1.5,1.7,2.3,3.9,2.3,6.8v2.4h-13.7c0.1,2,0.6,3.5,1.6,4.6
	c1,1.1,2.4,1.6,4.3,1.6c1.2,0,2.4-0.1,3.4-0.4c1-0.2,2.2-0.6,3.4-1.2v3.5c-1.1,0.5-2.1,0.9-3.2,1.1
	C281.8,312.5,280.6,312.6,279.2,312.6L279.2,312.6z M278.4,294.6c-1.4,0-2.5,0.4-3.4,1.3c-0.8,0.9-1.3,2.2-1.5,3.9h9.4
	c0-1.7-0.4-3-1.3-3.9C280.8,295,279.7,294.6,278.4,294.6L278.4,294.6z M278.4,294.6 M301.7,291.3c0.9,0,1.6,0.1,2.2,0.2l-0.4,4
	c-0.6-0.1-1.3-0.2-1.9-0.2c-1.8,0-3.2,0.6-4.3,1.7c-1.1,1.2-1.6,2.6-1.6,4.5v10.8h-4.4v-20.6h3.4l0.6,3.7h0.2
	c0.7-1.2,1.5-2.2,2.6-2.9C299.2,291.6,300.4,291.3,301.7,291.3L301.7,291.3z M301.7,291.3 M331.9,304.8c0,2.4-0.9,4.3-2.6,5.7
	c-1.8,1.4-4.2,2.1-7.3,2.1s-5.6-0.5-7.5-1.5v-4.2c1.2,0.6,2.6,1,3.9,1.4c1.4,0.4,2.7,0.5,3.9,0.5c1.8,0,3.1-0.4,3.9-1
	c0.8-0.7,1.2-1.5,1.2-2.7c0-1-0.4-1.9-1.2-2.6c-0.8-0.7-2.3-1.5-4.8-2.5c-2.5-1-4.2-2.1-5.3-3.5c-1-1.3-1.5-2.9-1.5-4.6
	c0-2.3,0.8-4,2.4-5.3c1.6-1.3,3.8-2,6.5-2c2.6,0,5.2,0.6,7.8,1.7L330,290c-2.4-1-4.5-1.5-6.5-1.5c-1.5,0-2.6,0.3-3.3,1
	c-0.7,0.7-1.1,1.5-1.1,2.5c0,0.7,0.1,1.3,0.4,1.8c0.3,0.5,0.8,1,1.5,1.4c0.7,0.4,1.9,1,3.7,1.8c2,0.8,3.4,1.6,4.4,2.3
	c1,0.7,1.6,1.5,2.1,2.4C331.6,302.5,331.9,303.6,331.9,304.8L331.9,304.8z M331.9,304.8 M354.1,301.9c0,3.4-0.9,6-2.6,7.8
	c-1.8,1.9-4.1,2.9-7.2,2.9c-1.9,0-3.6-0.4-5.1-1.3c-1.5-0.9-2.6-2.1-3.4-3.7c-0.8-1.6-1.2-3.5-1.2-5.7c0-3.4,0.9-5.9,2.6-7.8
	c1.7-1.9,4.1-2.8,7.3-2.8c3,0,5.3,0.9,7,2.9C353.2,296,354.1,298.7,354.1,301.9L354.1,301.9z M339,301.9c0,4.8,1.8,7.1,5.3,7.1
	c3.4,0,5.2-2.3,5.2-7.1c0-4.7-1.8-7-5.3-7c-1.8,0-3.2,0.6-4,1.8C339.5,297.9,339,299.6,339,301.9L339,301.9z M339,301.9 M368.5,295
	h-5.1v17.3h-4.4V295h-3.4v-2l3.4-1.3v-1.3c0-2.4,0.6-4.3,1.7-5.4c1.1-1.2,2.9-1.8,5.2-1.8c1.5,0,3.1,0.2,4.5,0.7l-1.2,3.3
	c-1.1-0.4-2.1-0.5-3.1-0.5c-1,0-1.7,0.3-2.2,0.9c-0.5,0.7-0.7,1.5-0.7,2.8v1.3h5.1L368.5,295L368.5,295z M368.5,295 M378.7,309.1
	c1.1,0,2.1-0.2,3.2-0.5v3.3c-0.5,0.2-1.1,0.4-1.9,0.5c-0.7,0.1-1.5,0.2-2.3,0.2c-4.2,0-6.2-2.2-6.2-6.5V295h-2.8v-1.9l3-1.6l1.5-4.3
	h2.7v4.5h5.9v3.3h-5.9v11c0,1,0.3,1.8,0.8,2.3C377.2,308.8,377.9,309.1,378.7,309.1L378.7,309.1z M378.7,309.1 M402,312.2l-2.6-9.6
	c-0.3-1-0.9-3.4-1.8-7.1h-0.1c-0.7,3.4-1.3,5.7-1.7,7.1l-2.7,9.6h-4.8l-5.8-20.6h4.5l2.6,10.1c0.6,2.5,1,4.6,1.2,6.4h0.1
	c0.1-0.9,0.3-2,0.6-3.2c0.3-1.2,0.4-2,0.7-2.6l3.2-10.8h4.8l3,10.8c0.2,0.6,0.4,1.5,0.7,2.8c0.3,1.2,0.4,2.2,0.5,2.9h0.1
	c0.2-1.5,0.6-3.7,1.3-6.4l2.6-10.1h4.4l-5.8,20.6H402z M402,312.2 M428.3,312.2l-0.9-2.9h-0.1c-1,1.2-2,2.1-3,2.6
	c-1,0.4-2.3,0.7-3.9,0.7c-2,0-3.6-0.5-4.8-1.6c-1.1-1.1-1.7-2.6-1.7-4.6c0-2.1,0.8-3.7,2.3-4.8c1.5-1.1,4-1.7,7.2-1.8l3.5-0.1v-1.1
	c0-1.3-0.3-2.3-0.9-2.9c-0.7-0.7-1.5-1-2.9-1c-1,0-2,0.1-3,0.4c-1,0.3-1.9,0.7-2.8,1.1L416,293c1.1-0.6,2.4-1,3.7-1.3
	c1.3-0.3,2.6-0.4,3.7-0.4c2.6,0,4.6,0.6,5.9,1.7c1.3,1.2,2,2.9,2,5.3v13.9L428.3,312.2L428.3,312.2z M421.7,309.3
	c1.6,0,2.9-0.4,3.8-1.3c1-0.9,1.5-2.1,1.5-3.7v-1.8l-2.6,0.1c-2.1,0.1-3.6,0.4-4.5,1c-0.9,0.6-1.4,1.5-1.4,2.8
	c0,0.9,0.3,1.6,0.8,2.1C419.8,309.1,420.6,309.3,421.7,309.3L421.7,309.3z M421.7,309.3 M447,291.3c0.9,0,1.6,0.1,2.2,0.2l-0.4,4.1
	c-0.6-0.1-1.2-0.2-1.9-0.2c-1.8,0-3.2,0.6-4.3,1.7c-1.1,1.2-1.6,2.6-1.6,4.5v10.8h-4.4v-20.7h3.4l0.6,3.7h0.2
	c0.7-1.2,1.6-2.2,2.6-2.9C444.5,291.6,445.7,291.3,447,291.3L447,291.3z M447,291.3 M461,312.6c-3.2,0-5.7-1-7.5-2.8
	c-1.8-1.8-2.7-4.5-2.7-7.7c0-3.4,0.8-6,2.5-7.9c1.7-1.9,4-2.9,6.9-2.9c2.7,0,4.8,0.8,6.5,2.5c1.5,1.7,2.3,3.9,2.3,6.8v2.4h-13.7
	c0.1,2,0.6,3.5,1.6,4.6c1,1.1,2.4,1.6,4.3,1.6c1.2,0,2.4-0.1,3.4-0.4c1-0.2,2.2-0.6,3.4-1.2v3.5c-1.1,0.5-2.1,0.9-3.2,1.1
	C463.7,312.5,462.5,312.6,461,312.6L461,312.6z M460.3,294.6c-1.4,0-2.5,0.4-3.4,1.3c-0.8,0.9-1.3,2.2-1.5,3.9h9.3
	c0-1.7-0.4-3-1.3-3.9C462.7,295,461.7,294.6,460.3,294.6L460.3,294.6z M460.3,294.6 M20.9,247.8c0,5.8-1.4,10.3-4.3,13.3
	c-2.9,3-7,4.5-12.5,4.5c-5.4,0-9.6-1.5-12.5-4.5c-2.9-3-4.3-7.5-4.3-13.3c0-5.7,1.5-10.1,4.3-13.2c2.8-3,7-4.5,12.5-4.5
	c5.5,0,9.7,1.5,12.5,4.5C19.4,237.6,20.9,242,20.9,247.8L20.9,247.8z M-2.9,247.8c0,6.7,2.4,10,7,10c2.3,0,4.1-0.8,5.3-2.4
	c1.2-1.6,1.7-4.2,1.7-7.6c0-3.4-0.6-6-1.8-7.6c-1.2-1.6-2.9-2.5-5.2-2.5C-0.5,237.7-2.9,241-2.9,247.8L-2.9,247.8z M-2.9,247.8
	 M26.6,230.6h12c4.7,0,8.2,0.7,10.5,2.1c2.3,1.4,3.5,3.6,3.5,6.5c0,1.9-0.5,3.6-1.5,5c-1,1.4-2.3,2.3-3.9,2.6v0.2
	c2.1,0.6,3.7,1.5,4.6,2.9c1,1.3,1.5,3,1.5,5.1c0,3.1-1.2,5.6-3.5,7.4c-2.4,1.8-5.6,2.7-9.6,2.7H26.8v-34.6H26.6z M36,243.8h2.8
	c1.3,0,2.3-0.3,3.1-0.8c0.7-0.6,1.1-1.4,1.1-2.5c0-1.9-1.5-2.9-4.4-2.9h-2.6L36,243.8L36,243.8z M36,250.6v7.3h3.3
	c2.9,0,4.4-1.3,4.4-3.7c0-1.2-0.4-2-1.2-2.6c-0.8-0.6-1.9-1-3.4-1H36z M36,250.6 M81.4,254.6c0,2.1-0.5,4-1.6,5.7
	c-1.1,1.7-2.6,2.9-4.7,3.9c-2.1,1-4.5,1.4-7.2,1.4c-2.3,0-4.3-0.1-5.8-0.5c-1.5-0.4-3.1-0.9-4.8-1.7v-8.3c1.8,0.9,3.7,1.6,5.6,2.1
	c1.9,0.5,3.7,0.7,5.3,0.7c1.4,0,2.4-0.2,3.1-0.7c0.7-0.5,1-1.1,1-1.8c0-0.4-0.1-0.9-0.4-1.2c-0.3-0.4-0.7-0.7-1.2-1.1
	c-0.6-0.4-2.1-1.1-4.6-2.2c-2.3-1-4-2-5.1-3c-1.1-1-2-2-2.5-3.3c-0.5-1.2-0.8-2.7-0.8-4.4c0-3.2,1.2-5.6,3.4-7.5
	c2.4-1.8,5.5-2.6,9.5-2.6c3.6,0,7.2,0.8,10.9,2.5l-2.9,7.2c-3.2-1.5-6-2.2-8.4-2.2c-1.2,0-2.1,0.2-2.6,0.7c-0.5,0.4-1,0.9-1,1.6
	c0,0.7,0.4,1.3,1,1.8c0.7,0.5,2.6,1.5,5.7,2.9c3,1.3,5.1,2.8,6.2,4.3C80.8,250.4,81.4,252.3,81.4,254.6L81.4,254.6z M81.4,254.6"/>
<path class="st0" d="M-85.9,229c24.9,0,45,20.1,45,45c0,24.9-20.1,45-45,45c-24.8,0-45-20-45-44.9C-131,249.3-110.8,229-85.9,229
	L-85.9,229z M-85.9,229"/>
<path class="st1" d="M-85.9,316.2c-23.2,0-42.1-18.8-42.1-42.1c0-23.2,18.8-42.1,42.1-42.1c23.2,0,42.1,18.8,42.1,42.1
	C-43.8,297.3-62.7,316.2-85.9,316.2L-85.9,316.2z M-95.4,267.7c9.1,5.2,20.6,2.1,25.8-7c0.3,0,0.5,0,0.9,0.1
	c3.2,0.3,6.3,1.2,9.1,2.7c2.7,1.5,5.1,3.5,7.1,5.9c2.6,3.3,4.3,7.3,4.9,11.4c-0.2-0.7-0.4-1.5-0.7-2.3c-0.3-0.7-0.6-1.4-1-2
	c-0.2-0.5-0.5-1-0.8-1.4c-0.1-0.3-0.3-0.5-0.5-0.8c-0.1-0.2-0.2-0.3-0.4-0.5l-0.9-1.1c-0.3-0.4-0.6-0.7-1-1
	c-0.2-0.1-0.4-0.3-0.5-0.4c-0.2-0.1-0.3-0.3-0.5-0.4c-0.1-0.1-0.2-0.2-0.3-0.3c-0.2-0.2-0.4-0.4-0.7-0.5c-0.3-0.2-0.7-0.4-1-0.7
	c-0.2-0.1-0.4-0.2-0.6-0.3c-0.2-0.1-0.4-0.2-0.6-0.3c-0.4-0.2-0.7-0.4-1.2-0.6c-0.4-0.2-0.7-0.4-1.2-0.5c-0.2-0.1-0.4-0.1-0.6-0.2
	c-0.2,0-0.4-0.1-0.6-0.2c-0.2,0-0.3-0.1-0.5-0.1c-0.2-0.1-0.5-0.1-0.8-0.2l-1.3-0.2c-0.4-0.1-0.9-0.1-1.3-0.1
	c-0.4-0.1-0.9-0.1-1.4-0.1c-6.8,0-13.1,3.7-16.4,9.8c-1,1.8-1.7,3.7-2.1,5.7c-0.4,2.3-0.4,4.7,0,7c0.2,1.1,0.5,2.1,0.9,3.2
	c0.1,0.3,0.2,0.5,0.3,0.7c0.1,0.2,0.2,0.5,0.3,0.7c0.1,0.1,0.1,0.2,0.2,0.4c0.1,0.1,0.1,0.3,0.2,0.4c0,0,0,0.1,0,0.1
	c0,0,0,0.1,0,0.1c0,0,0,0.1,0,0.1c0,0,0,0,0,0.1c0,0-0.1,0.1-0.1,0.1c0,0.1-0.1,0.1-0.1,0.1c-1.5,2.4-3.4,4.4-5.6,6
	c-3,2.3-6.5,3.7-10.3,4.3c-2.1,0.3-4.2,0.4-6.3,0.1c-2.3-0.3-4.5-1-6.5-1.8c0.2,0.1,0.5,0.1,0.7,0.2c0.2,0.1,0.5,0.1,0.7,0.2
	c0.7,0.1,1.5,0.3,2.2,0.4c4,0.5,8.2-0.4,11.7-2.5c1.8-1,3.4-2.4,4.7-4c2.3-2.8,3.9-6.1,4.4-9.7c0.2-1.9,0.2-3.8-0.1-5.7
	c-1.4-8.5-8.3-15-16.9-15.8c-0.4-0.1-0.9-0.1-1.3-0.1h-0.8c-0.1,0-0.1-0.1-0.1-0.1c0,0,0,0,0-0.1c0,0,0,0,0-0.1c0,0-0.1-0.1-0.1-0.1
	c0,0,0-0.1-0.1-0.1c-5.4-11.2-1-24.6,10-30.5c-0.2,0.1-0.3,0.2-0.5,0.3c-0.5,0.4-1,0.7-1.5,1.2c-0.4,0.4-0.9,0.8-1.3,1.2
	c-0.3,0.3-0.6,0.6-0.9,1c-0.1,0.1-0.2,0.2-0.3,0.3c-0.4,0.4-0.7,0.9-0.9,1.3l-0.9,1.5c-0.3,0.5-0.5,1-0.7,1.5
	c-0.2,0.5-0.4,1-0.6,1.5c-0.1,0.3-0.1,0.5-0.2,0.8c-0.1,0.3-0.1,0.6-0.2,0.8c-0.1,0.4-0.2,1-0.3,1.4c0,0,0,0.1,0,0.2
	c-0.1,0.5-0.1,1.1-0.1,1.6c-0.3,4.8,1.5,9.7,4.7,13.3c1.3,1.4,2.6,2.6,4.3,3.6c0.1,0,0.2,0.1,0.3,0.1
	C-95.5,267.6-95.4,267.6-95.4,267.7L-95.4,267.7z M-96,235.4c-0.1,0.1-0.2,0.1-0.4,0.2C-96.3,235.5-96.2,235.5-96,235.4L-96,235.4z
	 M-96,235.4"/>
</svg>
