<?xml version="1.0" encoding="UTF-8" standalone="no"?>
<svg width="32px" height="32px" viewBox="0 0 32 32" version="1.1" xmlns="http://www.w3.org/2000/svg" xmlns:xlink="http://www.w3.org/1999/xlink">
    <!-- Generator: Sketch 44.1 (41455) - http://www.bohemiancoding.com/sketch -->
    <title>photo</title>
    <desc>Created with Sketch.</desc>
    <defs></defs>
    <g id="Page-2-Copy" stroke="none" stroke-width="1" fill="none" fill-rule="evenodd">
        <g id="288" stroke="#979797" fill-rule="nonzero">
            <path d="M27,7.5 C27,5.56700338 25.4329966,4 23.5,4 C21.5670034,4 20,5.56700338 20,7.5 C20,9.43299662 21.5670034,11 23.5,11 C25.4329966,11 27,9.43299662 27,7.5 L27,7.5 L27,7.5 Z M22,7.5 C22,6.67157288 22.6715729,6 23.5,6 C24.3284271,6 25,6.67157288 25,7.5 C25,8.32842712 24.3284271,9 23.5,9 C22.6715729,9 22,8.32842712 22,7.5 L22,7.5 L22,7.5 Z M10.7855524,13.6187951 L9.19750128,13.5966538 L17.1975013,24.3566445 C17.5760078,24.8657353 18.3267847,24.8982579 18.747897,24.4238054 L24.747897,17.6638148 L23.2474831,17.6585729 L30.2474831,25.6571081 C30.6112028,26.0727117 31.2429693,26.1147719 31.6585729,25.7510521 C32.0741765,25.3873323 32.1162367,24.7555659 31.7525169,24.3399623 L24.7525169,16.3414271 C24.3559605,15.8883028 23.6518158,15.8858427 23.252103,16.3361852 L17.252103,23.0961758 L18.8024987,23.1633368 L10.8024987,12.4033462 C10.4095732,11.8748617 9.62195427,11.8638804 9.21444759,12.3812049 L0.549530598,23.3812049 C0.207779485,23.8150535 0.282439263,24.4438013 0.716287879,24.7855524 C1.15013649,25.1273035 1.7788843,25.0526437 2.12063542,24.6187951 L10.7855524,13.6187951 L10.7855524,13.6187951 Z" id="Oval-127" stroke="none" fill="#2A2630"></path>
            <path d="M0,0.992786407 C0,0.452362061 0.444485615,0 0.992786407,0 L31.0072136,0 C31.5476379,0 32,0.444485615 32,0.992786407 L32,31.0072136 C32,31.5476379 31.5555144,32 31.0072136,32 L0.992786407,32 C0.452362061,32 0,31.5555144 0,31.0072136 L0,0.992786407 Z M31.0072136,2 L0.992786407,2 C1.5542148,2 2,1.55177184 2,0.992786407 L2,31.0072136 C2,30.4457852 1.55177184,30 0.992786407,30 L31.0072136,30 C30.4457852,30 30,30.4482282 30,31.0072136 L30,0.992786407 C30,1.5542148 30.4482282,2 31.0072136,2 Z" id="Rectangle-1184" stroke="none" fill="#95909E"></path>
        </g>
    </g>
</svg>