<svg xmlns="http://www.w3.org/2000/svg" viewBox="0 0 32 32" id="photo">
  <path fill="#231f20" d="M28.58.08h-18a3.43 3.43 0 0 0-3.45 3.43v18A3.42 3.42 0 0 0 10.55 25h18.28A3.43 3.43 0 0 0 32 21.54v-18A3.43 3.43 0 0 0 28.58.08Zm.28 18.65a.61.61 0 0 1-.66.51h-2.5a6.16 6.16 0 0 0-12.27 0h-2.5a.61.61 0 0 1-.66-.51v-15a.6.6 0 0 1 .66-.51H28.2a.6.6 0 0 1 .66.51Z"></path>
  <path fill="#231f20" d="M6.1 21.54V6.8l-3.45.8a3.42 3.42 0 0 0-2.56 4.1l4.06 17.57a3.42 3.42 0 0 0 4.1 2.56l17.57-4.06A3.41 3.41 0 0 0 28.1 26H10.55a4.45 4.45 0 0 1-4.45-4.46zM19.57 7.21a2.92 2.92 0 1 0 2.91 2.92 2.92 2.92 0 0 0-2.91-2.92z"></path>
</svg>
