<?xml version="1.0" encoding="iso-8859-1"?>
<!-- Uploaded to: SVG Repo, www.svgrepo.com, Generator: SVG Repo Mixer Tools -->
<svg fill="#000000" height="800px" width="800px" version="1.1" id="Layer_1" xmlns="http://www.w3.org/2000/svg" xmlns:xlink="http://www.w3.org/1999/xlink" 
	 viewBox="0 0 512 512" xml:space="preserve">
<g>
	<g>
		<path d="M483.265,39.184H28.735C12.89,39.184,0,52.075,0,67.918v303.02c0,15.844,12.89,28.735,28.735,28.735H198.59l-9.555,33.437
			h-15.06c-10.947,0-19.853,8.906-19.853,19.853s8.906,19.853,19.853,19.853h164.049c10.947,0,19.853-8.906,19.853-19.853
			s-8.906-19.853-19.853-19.853h-15.061l-9.555-33.437h169.857c15.844,0,28.735-12.891,28.735-28.735V67.918
			C512,52.075,499.109,39.184,483.265,39.184z M338.024,448.784c2.305,0,4.18,1.875,4.18,4.18s-1.875,4.18-4.18,4.18H173.976
			c-2.305,0-4.18-1.875-4.18-4.18s1.875-4.18,4.18-4.18H338.024z M205.336,433.11l9.555-33.437h82.219l9.555,33.437H205.336z
			 M496.327,370.939c0,7.202-5.859,13.061-13.061,13.061H28.735c-7.202,0-13.061-5.859-13.061-13.061v-39.184h480.653V370.939z
			 M496.327,316.082H15.673V67.918c0-7.203,5.859-13.061,13.061-13.061h454.531c7.202,0,13.061,5.859,13.061,13.061V316.082z"/>
	</g>
</g>
<g>
	<g>
		<path d="M26.122,65.306v241.371h459.755V65.306H26.122z M470.204,291.004H41.796V80.98h428.408V291.004z"/>
	</g>
</g>
<g>
	<g>
		<circle cx="256" cy="357.878" r="13.061"/>
	</g>
</g>
</svg>