<?xml version="1.0" standalone="no"?>
<!DOCTYPE svg PUBLIC "-//W3C//DTD SVG 20010904//EN"
 "http://www.w3.org/TR/2001/REC-SVG-20010904/DTD/svg10.dtd">
<svg version="1.0" xmlns="http://www.w3.org/2000/svg"
 width="1220.000000pt" height="500.000000pt" viewBox="0 0 1220.000000 500.000000"
 preserveAspectRatio="xMidYMid meet">

<g transform="translate(0.000000,500.000000) scale(0.100000,-0.100000)"
fill="#000000" stroke="none">
<path d="M0 2500 l0 -2500 6100 0 6100 0 0 2500 0 2500 -6100 0 -6100 0 0
-2500z m4460 1375 l0 -575 -575 0 -575 0 0 575 0 575 575 0 575 0 0 -575z
m-2770 -2770 l0 -575 -575 0 -575 0 0 575 0 575 575 0 575 0 0 -575z"/>
</g>
</svg>
