<?xml version="1.0" encoding="UTF-8"?><svg id="Logo" xmlns="http://www.w3.org/2000/svg" xmlns:xlink="http://www.w3.org/1999/xlink" viewBox="0 0 1034 298"><defs><style>.cls-1{fill:#fff;}.cls-2{fill:url(#Unbenannter_Verlauf_146);}.cls-3{fill:url(#Unbenannter_Verlauf_127);}</style><linearGradient id="Unbenannter_Verlauf_127" x1=".93" y1="147.94" x2="490.93" y2="147.94" gradientUnits="userSpaceOnUse"><stop offset="0" stop-color="#2f89a5"/><stop offset=".24" stop-color="#5eadc3"/><stop offset=".47" stop-color="#84c9dc"/><stop offset=".67" stop-color="#9fdeed"/><stop offset=".86" stop-color="#b0eaf8"/><stop offset="1" stop-color="#b6effc"/></linearGradient><linearGradient id="Unbenannter_Verlauf_146" x1="70.86" y1="137.02" x2="413.24" y2="137.02" gradientUnits="userSpaceOnUse"><stop offset="0" stop-color="#b6effc"/><stop offset=".14" stop-color="#b0eaf8"/><stop offset=".33" stop-color="#9fdeed"/><stop offset=".53" stop-color="#84c9dc"/><stop offset=".76" stop-color="#5eadc3"/><stop offset="1" stop-color="#2f89a5"/></linearGradient></defs><polygon class="cls-1" points="571.36 62.48 550.68 .74 541.55 .74 565.34 71.8 577.57 71.8 601.36 .74 592.23 .74 571.36 62.48"/><rect class="cls-1" x="607.78" y="0" width="8.78" height="9.08"/><rect class="cls-1" x="607.78" y="18.51" width="8.78" height="53.3"/><path class="cls-1" d="M663.81,20.73c-3.77-2.47-8.33-3.7-13.7-3.7s-9.66,1.16-13.5,3.48c-3.83,2.32-6.82,5.61-8.96,9.87-2.14,4.26-3.21,9.3-3.21,15.13s1.08,10.42,3.26,14.58c2.17,4.16,5.21,7.4,9.11,9.72,3.9,2.32,8.46,3.48,13.69,3.48s9.83-1.29,13.99-3.87c4.16-2.58,7.28-6.23,9.35-10.93l-8.44-2.91c-1.48,3.03-3.52,5.35-6.12,6.96-2.6,1.61-5.66,2.42-9.18,2.42-5.23,0-9.26-1.73-12.09-5.18-2.45-2.99-3.83-7.04-4.16-12.14h40.88c.26-6.32-.55-11.76-2.44-16.33-1.89-4.57-4.72-8.09-8.49-10.56ZM638.03,30.15c2.83-3.49,6.96-5.23,12.39-5.23,5.06,0,8.88,1.62,11.45,4.86,2.02,2.56,3.27,6.16,3.76,10.78h-31.57c.53-4.32,1.86-7.79,3.98-10.41Z"/><path class="cls-1" d="M726.56,29.09c-.92-2.22-2.19-4.23-3.8-6.02s-3.63-3.23-6.07-4.32c-2.44-1.09-5.38-1.63-8.83-1.63-4.57,0-8.55,1-11.92,2.99-2.31,1.36-4.25,3.13-5.85,5.29v-6.9h-7.9v53.3h8.88v-28.08c0-3.09.35-5.78,1.06-8.07.71-2.29,1.7-4.19,2.99-5.7,1.28-1.51,2.82-2.64,4.62-3.38,1.79-.74,3.79-1.11,5.99-1.11,2.83,0,5.17.54,7.03,1.63,1.86,1.09,3.34,2.56,4.44,4.42,1.1,1.86,1.88,3.96,2.32,6.29.45,2.34.67,4.77.67,7.3v26.7h8.88v-29.46c0-2.04-.19-4.2-.57-6.49-.38-2.29-1.03-4.54-1.95-6.76Z"/><path class="cls-1" d="M782.27,29.09c-.92-2.22-2.19-4.23-3.8-6.02-1.61-1.79-3.64-3.23-6.07-4.32-2.44-1.09-5.38-1.63-8.83-1.63-4.57,0-8.54,1-11.92,2.99-2.31,1.36-4.25,3.13-5.85,5.29v-6.9h-7.89v53.3h8.88v-28.08c0-3.09.35-5.78,1.06-8.07.71-2.29,1.7-4.19,2.99-5.7,1.28-1.51,2.82-2.64,4.61-3.38s3.79-1.11,6-1.11c2.83,0,5.17.54,7.03,1.63,1.86,1.09,3.34,2.56,4.44,4.42,1.1,1.86,1.88,3.96,2.32,6.29.44,2.34.67,4.77.67,7.3v26.7h8.88v-29.46c0-2.04-.19-4.2-.57-6.49-.38-2.29-1.03-4.54-1.95-6.76Z"/><path class="cls-1" d="M838.03,32.79c-.2-1.92-.67-3.71-1.43-5.35-1.51-3.49-4.01-6.09-7.48-7.82s-7.62-2.59-12.46-2.59c-6.02,0-10.88,1.33-14.56,4-3.69,2.66-6.17,6.33-7.45,11l8.34,2.52c.99-3.29,2.69-5.67,5.11-7.13,2.42-1.46,5.24-2.2,8.46-2.2,4.87,0,8.3,1.13,10.29,3.41,1.79,2.04,2.73,5.09,2.83,9.13-1.87.26-3.82.52-5.86.79-3.22.43-6.41.9-9.55,1.41-3.14.51-5.98,1.11-8.51,1.8-2.7.79-5.02,1.87-6.96,3.23-1.94,1.37-3.45,3.08-4.52,5.13-1.07,2.06-1.6,4.48-1.6,7.28s.68,5.49,2.05,7.9c1.36,2.4,3.39,4.33,6.07,5.8,2.68,1.46,6.01,2.2,9.99,2.2,5.16,0,9.55-1.1,13.15-3.31,2.62-1.6,4.81-3.77,6.59-6.48v8.31h7.8v-32.96c0-2.1-.1-4.12-.3-6.04ZM828.71,53.64c-.43,2.2-1.35,4.24-2.76,6.09-1.42,1.86-3.28,3.36-5.6,4.49-2.32,1.14-5.06,1.7-8.22,1.7-2.53,0-4.58-.41-6.14-1.23-1.56-.82-2.71-1.89-3.45-3.21-.74-1.32-1.11-2.7-1.11-4.15,0-1.68.39-3.08,1.16-4.22.77-1.13,1.79-2.06,3.06-2.79,1.27-.72,2.62-1.32,4.07-1.78,1.97-.56,4.2-1.04,6.66-1.46,2.47-.41,5.08-.8,7.85-1.16,1.77-.23,3.56-.47,5.36-.72-.01.83-.03,1.79-.06,2.91-.05,2.02-.32,3.86-.81,5.5Z"/><path class="cls-1" d="M591.01,135.41c-1.83-1.31-3.71-2.33-5.65-3.05s-3.65-1.29-5.13-1.7l-12.96-3.74c-1.67-.47-3.38-1.08-5.13-1.82-1.75-.74-3.22-1.75-4.42-3.03s-1.8-2.96-1.8-5.04.66-3.98,1.99-5.61c1.32-1.62,3.11-2.89,5.35-3.81,2.24-.91,4.75-1.36,7.52-1.32,2.9.03,5.57.59,8,1.68,2.43,1.09,4.46,2.63,6.08,4.64,1.62,2,2.67,4.39,3.15,7.17l8.94-1.56c-.82-4.13-2.42-7.68-4.8-10.64-2.38-2.96-5.38-5.24-8.99-6.84-3.61-1.59-7.7-2.4-12.28-2.44-4.51-.03-8.56.71-12.16,2.22s-6.44,3.7-8.54,6.55c-2.1,2.85-3.15,6.3-3.15,10.34,0,2.52.41,4.71,1.23,6.55.82,1.85,1.92,3.42,3.31,4.73,1.39,1.31,2.96,2.4,4.73,3.26,1.77.87,3.59,1.58,5.49,2.15l17.36,5.16c1.23.35,2.41.79,3.55,1.32,1.14.54,2.15,1.19,3.05,1.96.9.77,1.61,1.7,2.13,2.79.52,1.09.78,2.39.78,3.9,0,2.46-.72,4.59-2.18,6.39s-3.41,3.18-5.89,4.14c-2.47.96-5.24,1.44-8.3,1.44-4.73,0-8.84-1.21-12.32-3.62-3.49-2.41-5.78-5.76-6.88-10.05l-8.71,1.37c.76,4.16,2.39,7.77,4.9,10.81,2.51,3.04,5.69,5.39,9.55,7.02,3.86,1.64,8.21,2.46,13.04,2.46,3.53,0,6.84-.45,9.93-1.35,3.09-.9,5.8-2.21,8.14-3.93,2.33-1.72,4.16-3.86,5.46-6.41s1.96-5.47,1.96-8.75-.6-6-1.8-8.16c-1.2-2.16-2.71-3.89-4.54-5.2Z"/><polygon class="cls-1" points="641.37 116.7 626.42 156.9 610.48 116.7 601.64 116.7 622.36 167.62 613.94 190.5 622.12 190.5 649.94 116.7 641.37 116.7"/><path class="cls-1" d="M718.37,135.1l-.05,32.69h8.42l.05-34.54c0-5.46-1.53-9.8-4.59-13.03-3.06-3.23-7.26-4.85-12.58-4.85-3.41,0-6.47.76-9.18,2.27-2.64,1.47-4.73,3.53-6.28,6.15,0,0,0-.02-.01-.03-1.39-2.7-3.36-4.77-5.91-6.22-2.55-1.45-5.55-2.18-8.99-2.18s-6.51.75-9.22,2.25c-2.12,1.17-3.87,2.69-5.3,4.54v-5.46h-7.52v51.09h8.47v-32.45c0-3.75,1.02-6.77,3.07-9.04,2.05-2.27,4.73-3.41,8.04-3.41s6.02,1.11,8.04,3.34c2.02,2.22,3.03,5.29,3.03,9.2l-.05,32.36h8.37l.04-32.45h0c0-2.87.54-5.23,1.61-7.07,1.07-1.85,2.46-3.2,4.16-4.07,1.7-.87,3.5-1.3,5.39-1.3,3.25,0,5.89,1.08,7.92,3.24,2.04,2.16,3.05,5.15,3.05,8.96Z"/><path class="cls-1" d="M782.7,155.96c1.83-4.07,2.74-8.66,2.74-13.77s-.92-9.7-2.74-13.77c-1.83-4.07-4.46-7.28-7.88-9.63-3.42-2.35-7.5-3.52-12.23-3.52s-8.84,1.17-12.13,3.5c-1.46,1.04-2.76,2.25-3.9,3.63v-5.71h-7.52v73.8h8.47v-27.46c.9.95,1.87,1.82,2.93,2.6,3.28,2.38,7.32,3.57,12.11,3.57s8.85-1.19,12.28-3.57c3.42-2.38,6.05-5.61,7.88-9.67ZM769.88,158.94c-2.21,1.7-5,2.55-8.38,2.55s-6.26-.83-8.47-2.48c-2.21-1.66-3.84-3.94-4.9-6.86-1.06-2.92-1.59-6.24-1.59-9.96s.54-7.12,1.61-10.01c1.07-2.89,2.7-5.14,4.87-6.76,2.18-1.62,4.92-2.44,8.23-2.44s6.33.85,8.59,2.55c2.25,1.7,3.93,4.01,5.01,6.91,1.09,2.9,1.63,6.15,1.63,9.75s-.55,6.9-1.66,9.82c-1.11,2.92-2.76,5.23-4.97,6.93Z"/><path class="cls-1" d="M804.32,140.87c0-2.96.34-5.54,1.02-7.74.68-2.19,1.63-4.01,2.86-5.46,1.23-1.45,2.71-2.53,4.42-3.24,1.72-.71,3.63-1.06,5.75-1.06,2.71,0,4.96.52,6.74,1.56,1.78,1.04,3.2,2.45,4.26,4.23,1.06,1.78,1.8,3.79,2.22,6.03.43,2.24.64,4.57.64,7v25.59h8.52v-28.24c0-1.96-.18-4.03-.54-6.22-.36-2.19-.99-4.35-1.87-6.48s-2.1-4.05-3.64-5.77c-1.54-1.72-3.48-3.1-5.82-4.14-2.33-1.04-5.16-1.56-8.47-1.56-4.38,0-8.19.95-11.42,2.86-2.21,1.31-4.07,3-5.61,5.07v-23.64h-7.57v68.12h8.52v-26.92Z"/><path class="cls-1" d="M888.01,118.71c-3.69-2.29-8.09-3.43-13.2-3.43s-9.32,1.13-13.01,3.38c-3.69,2.26-6.54,5.4-8.56,9.44-2.02,4.04-3.03,8.74-3.03,14.1s.99,9.93,2.98,14c1.99,4.07,4.82,7.25,8.49,9.56s8.05,3.45,13.13,3.45,9.46-1.14,13.15-3.43c3.69-2.29,6.53-5.46,8.52-9.51,1.99-4.05,2.98-8.74,2.98-14.07s-.99-9.93-2.96-13.98c-1.97-4.05-4.8-7.22-8.49-9.51ZM886.64,155.92c-2.59,3.53-6.53,5.3-11.83,5.3s-9.04-1.73-11.69-5.2c-2.65-3.47-3.97-8.07-3.97-13.81,0-3.72.57-7,1.7-9.84,1.14-2.84,2.86-5.06,5.16-6.67,2.3-1.61,5.23-2.41,8.8-2.41,5.23,0,9.16,1.71,11.78,5.13,2.62,3.42,3.93,8.02,3.93,13.79s-1.29,10.19-3.88,13.72Z"/><path class="cls-1" d="M952.35,126.84c-.88-2.13-2.1-4.05-3.64-5.77-1.55-1.72-3.49-3.1-5.82-4.14-2.34-1.04-5.16-1.56-8.47-1.56-4.38,0-8.19.95-11.43,2.86-2.21,1.31-4.07,3-5.61,5.07v-6.61h-7.57v51.09h8.51v-26.92c0-2.96.34-5.54,1.02-7.74.68-2.19,1.63-4.01,2.86-5.46,1.23-1.45,2.7-2.53,4.42-3.24,1.72-.71,3.63-1.06,5.75-1.06,2.71,0,4.96.52,6.74,1.56,1.78,1.04,3.2,2.45,4.26,4.23,1.06,1.78,1.8,3.79,2.22,6.03.43,2.24.64,4.57.64,7v25.59h8.52v-28.24c0-1.96-.18-4.03-.54-6.22-.36-2.19-.99-4.35-1.87-6.48Z"/><rect class="cls-1" x="968.01" y="98.96" width="8.42" height="8.7"/><rect class="cls-1" x="968.01" y="116.7" width="8.42" height="51.09"/><path class="cls-1" d="M1020.47,158.92c-2.21,1.53-4.98,2.29-8.33,2.29-5.08,0-8.9-1.74-11.47-5.23-2.57-3.48-3.89-8.07-3.95-13.74.03-3.69.6-6.96,1.7-9.82,1.1-2.85,2.79-5.09,5.06-6.72,2.27-1.62,5.16-2.44,8.66-2.44,3.12,0,5.89.82,8.3,2.46,2.41,1.64,4.15,3.94,5.23,6.91l8.33-2.51c-1.33-4.6-3.94-8.23-7.83-10.88-3.9-2.65-8.54-3.97-13.93-3.97-5.11,0-9.48,1.14-13.11,3.41-3.63,2.27-6.41,5.43-8.35,9.49s-2.94,8.74-3,14.07c.06,5.2,1.04,9.84,2.93,13.91s4.64,7.26,8.25,9.58c3.61,2.32,8,3.48,13.18,3.48s9.82-1.26,13.58-3.78c3.75-2.52,6.51-6.17,8.28-10.93l-8.52-2.22c-1.14,2.9-2.81,5.12-5.02,6.65Z"/><polygon class="cls-1" points="560.83 207.17 552.41 207.17 552.41 275.29 592.43 275.29 592.43 267.3 560.83 267.3 560.83 207.17"/><rect class="cls-1" x="601.42" y="206.46" width="8.42" height="8.71"/><rect class="cls-1" x="601.42" y="224.2" width="8.42" height="51.09"/><path class="cls-1" d="M659.77,226.3c-3.42-2.35-7.5-3.52-12.23-3.52s-8.84,1.17-12.13,3.5c-1.07.76-2.05,1.62-2.96,2.57v-21.68h-8.47v68.12h7.52v-5.83c1.14,1.39,2.43,2.62,3.88,3.67,3.28,2.38,7.32,3.57,12.11,3.57s8.85-1.19,12.28-3.57c3.42-2.38,6.05-5.61,7.88-9.67,1.83-4.07,2.74-8.66,2.74-13.77s-.92-9.7-2.74-13.77c-1.83-4.07-4.46-7.28-7.88-9.63ZM659.8,259.52c-1.11,2.92-2.76,5.23-4.97,6.93-2.21,1.7-5,2.55-8.38,2.55s-6.26-.83-8.47-2.48c-2.21-1.66-3.84-3.94-4.9-6.86-1.06-2.92-1.59-6.24-1.59-9.96s.54-7.12,1.61-10.01,2.7-5.14,4.87-6.77c2.18-1.62,4.92-2.44,8.23-2.44s6.33.85,8.59,2.55c2.25,1.7,3.93,4.01,5.01,6.91,1.09,2.9,1.63,6.15,1.63,9.75s-.55,6.9-1.66,9.82Z"/><path class="cls-1" d="M700.39,223.84c-1.73.11-3.44.45-5.11,1.02-1.67.57-3.17,1.39-4.49,2.46-1.2.85-2.28,1.94-3.24,3.26-.41.56-.77,1.14-1.11,1.74v-8.13h-7.52v51.09h8.47v-25.64c0-2.02.17-4,.52-5.94.35-1.94.97-3.74,1.87-5.42s2.17-3.09,3.81-4.26c1.8-1.32,3.75-2.1,5.87-2.32,2.11-.22,4.05-.09,5.82.38v-7.9c-1.51-.35-3.14-.47-4.87-.36Z"/><path class="cls-1" d="M750.01,232.76c-1.45-3.34-3.84-5.84-7.17-7.5s-7.31-2.48-11.95-2.48c-5.77,0-10.42,1.28-13.96,3.83-3.53,2.55-5.91,6.07-7.14,10.55l8,2.41c.95-3.15,2.58-5.43,4.9-6.84s5.02-2.11,8.11-2.11c4.67,0,7.96,1.09,9.86,3.26,1.72,1.96,2.61,4.88,2.71,8.75-1.79.25-3.66.5-5.62.76-3.09.41-6.14.86-9.15,1.35-3.01.49-5.73,1.06-8.16,1.73-2.59.76-4.81,1.79-6.67,3.1-1.86,1.31-3.3,2.95-4.33,4.92-1.03,1.97-1.54,4.3-1.54,6.98s.65,5.27,1.96,7.57c1.31,2.3,3.25,4.16,5.82,5.56,2.57,1.4,5.76,2.11,9.58,2.11,4.95,0,9.15-1.06,12.61-3.17,2.51-1.54,4.61-3.61,6.32-6.22v7.97h7.47v-31.6c0-2.02-.1-3.95-.29-5.79s-.65-3.56-1.37-5.13ZM742.44,257.88c-.41,2.11-1.29,4.06-2.65,5.84-1.36,1.78-3.15,3.22-5.37,4.31-2.22,1.09-4.85,1.63-7.88,1.63-2.43,0-4.39-.39-5.89-1.18s-2.6-1.81-3.31-3.08c-.71-1.26-1.06-2.59-1.06-3.97,0-1.61.37-2.96,1.11-4.04.74-1.09,1.72-1.98,2.93-2.67,1.21-.69,2.51-1.26,3.9-1.7,1.89-.54,4.02-1,6.39-1.4,2.37-.39,4.87-.76,7.52-1.11,1.69-.22,3.41-.45,5.14-.69-.01.8-.03,1.72-.06,2.79-.05,1.94-.31,3.7-.78,5.27Z"/><path class="cls-1" d="M785.45,223.84c-1.73.11-3.44.45-5.11,1.02-1.67.57-3.17,1.39-4.49,2.46-1.2.85-2.28,1.94-3.24,3.26-.41.56-.77,1.14-1.11,1.74v-8.13h-7.52v51.09h8.47v-25.64c0-2.02.17-4,.52-5.94.35-1.94.97-3.74,1.87-5.42s2.17-3.09,3.81-4.26c1.8-1.32,3.75-2.1,5.87-2.32,2.11-.22,4.05-.09,5.82.38v-7.9c-1.51-.35-3.14-.47-4.87-.36Z"/><polygon class="cls-1" points="819.84 264.4 803.89 224.2 795.05 224.2 815.77 275.12 807.35 298 815.53 298 843.35 224.2 834.79 224.2 819.84 264.4"/><polygon class="cls-1" points="237.82 274.59 356.84 18.59 118.8 18.59 237.82 274.59"/><path class="cls-3" d="M490.52,78.66c-5.75-20.34-71.17-20.68-159.82-3.83l-.49,1.06c59.91-9.68,102.57-8.08,106.67,6.44,5.45,19.28-58.89,54.8-148.57,83.68-10.8,3.48-21.94,6.87-33.4,10.11-19.41,5.5-38.3,10.21-56.28,14.14-80.77,17.64-142.82,19.09-147.82,1.42-4.74-16.78,43.32-45.83,114.95-72.13l-.17-.37C64.68,154.15-5.08,194.54,1.33,217.22c6.73,23.8,95.15,20.23,206.91-6.25,16.78-3.97,34.07-8.46,51.71-13.46,5.34-1.51,10.62-3.05,15.86-4.61,127.21-37.82,222.15-87.95,214.71-114.24Z"/><path class="cls-2" d="M436.87,82.34c-4.11-14.52-46.77-16.12-106.67-6.44l-7.34,15.8c.46-.05.92-.11,1.38-.16.32-.03.63-.06.96-.1,1.61-.17,3.2-.33,4.75-.47.52-.05,1.02-.09,1.53-.13,1.34-.11,2.67-.22,3.97-.31.54-.04,1.08-.07,1.61-.11,1.28-.08,2.52-.15,3.75-.21.47-.02.95-.05,1.42-.07,1.42-.06,2.79-.09,4.14-.12.23,0,.47-.01.7-.02,1.6-.02,3.14-.02,4.64,0,.2,0,.39.01.6.02,1.24.03,2.44.07,3.6.13.42.02.81.05,1.22.08.92.06,1.83.13,2.7.21.43.04.85.08,1.27.13.82.09,1.61.19,2.38.3.38.05.77.11,1.15.17.81.13,1.58.28,2.33.44.26.05.55.1.8.16.99.22,1.92.47,2.79.74.1.03.19.07.29.1.74.24,1.44.5,2.08.77.24.1.46.22.69.33.47.22.92.45,1.33.7.23.14.44.28.65.42.36.25.69.5,1,.77.18.15.35.3.51.46.29.29.54.6.77.92.11.15.23.29.32.44.29.48.52.97.67,1.49.53,1.89.11,4-1.18,6.29-.97,1.72-2.43,3.54-4.35,5.44-10.22,10.14-33.36,22.6-63.96,34.59-3.83,1.5-7.77,2.99-11.82,4.47-.62.23-1.26.45-1.89.68-8.46,3.05-17.36,6.05-26.62,8.93-5.69,1.77-11.5,3.51-17.44,5.2-20.71,5.86-40.59,10.47-58.6,13.75-10.36,1.89-20.11,3.34-29.04,4.32-3.49.39-6.86.7-10.09.95-1.61.12-3.19.23-4.74.32-4.63.26-8.94.36-12.88.3-.04,0-.08,0-.12,0-14.41-.23-23.97-2.65-26.7-7.41-.25-.43-.44-.89-.57-1.36,0,0,0,0,0-.01-.14-.52-.18-1.96-.16-2.15.03-.38.29-1.61.36-1.83.12-.38.65-1.62.77-1.86.22-.42,1.01-1.7,1.17-1.92.37-.52,1.43-1.85,1.55-1.98.59-.69,2.23-2.33,2.35-2.45.62-.59,2.48-2.22,2.74-2.44.63-.52,2.57-2.06,2.89-2.29.71-.54,2.85-2.07,3.17-2.29.89-.62,3.24-2.17,3.48-2.32,2.5-1.6,8.62-5.15,8.85-5.28,1.23-.69,4.55-2.47,4.93-2.67,1.22-.64,4.55-2.34,4.96-2.55,1.34-.67,4.8-2.35,5.15-2.51,6.25-2.98,13.06-5.98,20.37-8.97l-1.88-4.05-3.77-8.11c-71.62,26.29-119.69,55.35-114.95,72.13,5,17.67,67.05,16.22,147.82-1.42,17.98-3.93,36.87-8.64,56.28-14.14,11.46-3.25,22.6-6.63,33.4-10.11,89.68-28.88,154.03-64.4,148.57-83.68Z"/></svg>